<?xml version="1.0" encoding="UTF-8" standalone="no"?>
<!-- Created with Inkscape (http://www.inkscape.org/) -->

<svg
   width="299.28519mm"
   height="210.30005mm"
   viewBox="0 0 299.28518 210.30004"
   version="1.1"
   id="svg5"
   xmlns="http://www.w3.org/2000/svg"
   xmlns:svg="http://www.w3.org/2000/svg">
  <defs
     id="defs2" />
  <g
     id="layer1"
     transform="translate(647.72349,3125.2663)">
    <g
       id="g31680">
      <g
         id="g31565">
        <g
           id="g35629"
           transform="translate(-516.14731,264.50054)">
          <rect
             style="font-variation-settings:normal;vector-effect:none;fill:#f0f0f0;fill-opacity:1;stroke:none;stroke-width:0.98039;stroke-linecap:butt;stroke-linejoin:miter;stroke-miterlimit:4;stroke-dasharray:none;stroke-dashoffset:0;stroke-opacity:1;-inkscape-stroke:none;paint-order:stroke fill markers;stop-color:#000000"
             id="rect21529"
             width="210"
             height="297"
             x="-3389.7668"
             y="-129.29103"
             transform="matrix(0,1,1,0,0,0)" />
          <path
             style="color:#000000;fill:#808080;-inkscape-stroke:none"
             d="m -129.29102,-3285.2676 v 1 h 13.125 v -1 z"
             id="path21531" />
          <path
             style="color:#000000;fill:#808080;-inkscape-stroke:none"
             d="m -129.29102,-3337.7676 v 1 h 13.125 v -1 z"
             id="path21535" />
          <g
             id="path21655">
            <path
               style="color:#000000;fill:#303030;-inkscape-stroke:none;paint-order:stroke fill markers"
               d="m -128.89062,-3337.5664 -0.86719,0.4766 c 9.47604,24.9822 13.95325,51.8515 13.09179,78.5566 -0.72073,22.3428 -5.1637,44.5636 -13.09179,65.4648 l 0.93359,0.3536 c 7.96749,-21.0052 12.43389,-43.3314 13.1582,-65.7852 0.82528,-25.5835 -3.28065,-51.2934 -11.91015,-75.3906 15.43862,21.8976 24.03515,48.5756 24.03515,75.373 0,28.0424 -9.32496,56.0173 -26.15039,78.4512 l 0.80079,0.5996 c 16.95838,-22.6111 26.3496,-50.7868 26.3496,-79.0508 0,-28.2639 -9.39122,-56.4377 -26.3496,-79.0488 z"
               id="path33532" />
            <g
               id="g33524">
              <path
                 style="color:#000000;fill:#303030;-inkscape-stroke:none"
                 d="m -130.66406,-3196.7324 -0.91211,0.4101 1.94531,4.3262 4.32617,-1.9473 -0.41211,-0.9121 -3.41211,1.5352 z"
                 id="path33526" />
            </g>
          </g>
          <path
             style="color:#000000;fill:#303030;stroke-dasharray:4, 1;-inkscape-stroke:none;paint-order:stroke fill markers"
             d="m -129.29102,-3259.0176 v 1 h 4 v -1 z m 5,0 v 1 h 4 v -1 z m 5,0 v 1 h 4 v -1 z m 5,0 v 1 h 4 v -1 z m 5,0 v 1 h 4 v -1 z m 5,0 v 1 h 4 v -1 z m 5.000004,0 v 1 h 4 v -1 z m 5,0 v 1 h 4 v -1 z m 5,0 v 1 h 4 v -1 z m 5,0 v 1 h 4 v -1 z m 5,0 v 1 h 4 v -1 z m 5,0 v 1 h 4 v -1 z m 5,0 v 1 h 4 v -1 z m 5,0 v 1 h 4 v -1 z m 5,0 v 1 h 4 v -1 z m 5,0 v 1 h 4 v -1 z m 5,0 v 1 h 4 v -1 z m 5,0 v 1 h 4 v -1 z m 5,0 v 1 h 4 v -1 z m 5,0 v 1 h 4 v -1 z m 5,0 v 1 h 4 v -1 z m 5,0 v 1 h 4 v -1 z m 5,0 v 1 h 4 v -1 z m 5,0 v 1 h 4 v -1 z m 5.0000004,0 v 1 h 4 v -1 z m 5,0 v 1 h 3.99999997 v -1 z m 4.99999997,0 v 1 H 4.7089844 v -1 z m 5.00000003,0 v 1 h 4 v -1 z m 4.9999996,0 v 1 h 4 v -1 z m 5,0 v 1 h 4 v -1 z m 5,0 v 1 h 4 v -1 z m 5,0 v 1 h 4 v -1 z m 5,0 v 1 h 4 v -1 z m 5,0 v 1 h 4 v -1 z m 5,0 v 1 h 4 v -1 z m 5,0 v 1 h 4 v -1 z m 5,0 v 1 h 4 v -1 z m 5,0 v 1 h 4 v -1 z m 5,0 v 1 h 4 v -1 z m 5,0 v 1 h 4 v -1 z m 5,0 v 1 h 4 v -1 z m 5,0 v 1 h 4 v -1 z m 5,0 v 1 h 4 v -1 z m 5,0 v 1 h 4 v -1 z m 5,0 v 1 h 4 v -1 z m 5,0 v 1 h 4 v -1 z m 4.999996,0 v 1 h 4 v -1 z m 5,0 v 1 h 4 v -1 z m 5,0 v 1 h 4 v -1 z m 5,0 v 1 h 4 v -1 z m 5,0 v 1 h 4 v -1 z m 5,0 v 1 h 4 v -1 z m 5,0 v 1 h 4 v -1 z m 5,0 v 1 h 4 v -1 z m 5,0 v 1 h 4 v -1 z m 5,0 v 1 h 4 v -1 z m 5,0 v 1 h 4 v -1 z m 5,0 v 1 h 4 v -1 z m 5,0 v 1 h 4 v -1 z m 5,0 v 1 h 2 v -1 z"
             id="path21743" />
        </g>
      </g>
    </g>
  </g>
</svg>
