<?xml version="1.0" encoding="UTF-8" standalone="no"?>
<!-- Created with Inkscape (http://www.inkscape.org/) -->

<svg
   width="298.73831mm"
   height="210.24683mm"
   viewBox="0 0 298.73831 210.24682"
   version="1.1"
   id="svg5"
   xmlns="http://www.w3.org/2000/svg"
   xmlns:svg="http://www.w3.org/2000/svg">
  <defs
     id="defs2" />
  <g
     id="layer1"
     transform="translate(646.30747,2839.4452)">
    <g
       id="g31680">
      <g
         id="g31565">
        <g
           id="g36564"
           transform="translate(-919.80747,550.44538)">
          <rect
             style="font-variation-settings:normal;vector-effect:none;fill:#f0f0f0;fill-opacity:1;stroke:none;stroke-width:0.98039;stroke-linecap:butt;stroke-linejoin:miter;stroke-miterlimit:4;stroke-dasharray:none;stroke-dashoffset:0;stroke-opacity:1;-inkscape-stroke:none;paint-order:stroke fill markers;stop-color:#000000"
             id="rect21799"
             width="210"
             height="297"
             x="-3389.6438"
             y="275.23752"
             transform="matrix(0,1,1,0,0,0)" />
          <path
             style="color:#000000;fill:#808080;-inkscape-stroke:none"
             d="m 275.23828,-3285.1445 v 1 h 13.125 v -1 z"
             id="path21801" />
          <path
             style="color:#000000;fill:#808080;-inkscape-stroke:none"
             d="m 275.23828,-3337.6445 v 1 h 13.125 v -1 z"
             id="path21803" />
          <path
             style="color:#000000;fill:#808080;-inkscape-stroke:none;paint-order:stroke fill markers"
             d="m 275.23828,-3258.8945 v 1 h 297 v -1 z"
             id="path21807" />
          <g
             id="path21931">
            <path
               style="color:#000000;fill:#303030;-inkscape-stroke:none;paint-order:stroke fill markers"
               d="m 275.67187,-3389.8906 -0.86914,0.4941 c 11.24288,19.8578 17.24805,42.6551 17.24805,65.4746 0,22.8196 -6.00517,45.6188 -17.24805,65.4766 l 0.86914,0.4922 c 11.32931,-20.0104 17.37891,-42.9738 17.37891,-65.9688 0,-22.995 -6.0496,-45.9583 -17.37891,-65.9687 z"
               id="path33232" />
            <g
               id="g33224">
              <path
                 style="color:#000000;fill:#303030;-inkscape-stroke:none"
                 d="m 274.46289,-3262.2031 -0.96289,0.2656 1.26562,4.5703 4.57032,-1.2656 -0.26563,-0.9629 -3.60742,1 z"
                 id="path33226" />
            </g>
          </g>
          <path
             style="color:#000000;fill:#303030;stroke-dasharray:4, 1;-inkscape-stroke:none;paint-order:stroke fill markers"
             d="m 275.23828,-3324.4219 v 1 h 4 v -1 z m 5,0 v 1 h 4 v -1 z m 5,0 v 1 h 4 v -1 z m 5,0 v 1 h 4 v -1 z m 5,0 v 1 h 4 v -1 z m 5,0 v 1 h 4 v -1 z m 5,0 v 1 h 4 v -1 z m 5,0 v 1 h 4 v -1 z m 5,0 v 1 h 4 v -1 z m 5,0 v 1 h 4 v -1 z m 5,0 v 1 h 4 v -1 z m 5,0 v 1 h 4 v -1 z m 5,0 v 1 h 4 v -1 z m 5,0 v 1 h 4 v -1 z m 5,0 v 1 h 4 v -1 z m 5,0 v 1 h 4 v -1 z m 5,0 v 1 h 4 v -1 z m 5,0 v 1 h 4 v -1 z m 5,0 v 1 h 4 v -1 z m 5,0 v 1 h 4 v -1 z m 5,0 v 1 h 4 v -1 z m 5,0 v 1 h 4 v -1 z m 5,0 v 1 h 4 v -1 z m 5,0 v 1 h 4 v -1 z m 5,0 v 1 h 4 v -1 z m 5,0 v 1 h 4 v -1 z m 5,0 v 1 h 4 v -1 z m 5,0 v 1 h 4 v -1 z m 5,0 v 1 h 4 v -1 z m 5,0 v 1 h 4 v -1 z m 5,0 v 1 h 4 v -1 z m 5,0 v 1 h 4 v -1 z m 5,0 v 1 h 4 v -1 z m 5,0 v 1 h 4 v -1 z m 5,0 v 1 h 4 v -1 z m 5,0 v 1 h 4 v -1 z m 5,0 v 1 h 4 v -1 z m 5,0 v 1 h 4 v -1 z m 5,0 v 1 h 4 v -1 z m 5,0 v 1 h 4 v -1 z m 5,0 v 1 h 4 v -1 z m 5,0 v 1 h 4 v -1 z m 5,0 v 1 h 4 v -1 z m 5,0 v 1 h 4 v -1 z m 5,0 v 1 h 4 v -1 z m 5,0 v 1 h 4 v -1 z m 5,0 v 1 h 4 v -1 z m 5,0 v 1 h 4 v -1 z m 5,0 v 1 h 4 v -1 z m 5,0 v 1 h 4 v -1 z m 5,0 v 1 h 4 v -1 z m 5,0 v 1 h 4 v -1 z m 5,0 v 1 h 4 v -1 z m 5,0 v 1 h 4 v -1 z m 5,0 v 1 h 4 v -1 z m 5,0 v 1 h 4 v -1 z m 5,0 v 1 h 4 v -1 z m 5,0 v 1 h 4 v -1 z m 5,0 v 1 h 4 v -1 z m 5,0 v 1 h 2 v -1 z"
             id="path22089" />
        </g>
      </g>
    </g>
  </g>
</svg>
