<?xml version="1.0" encoding="UTF-8" standalone="no"?>
<!-- Created with Inkscape (http://www.inkscape.org/) -->

<svg
   width="302.90482mm"
   height="147.16296mm"
   viewBox="0 0 302.90481 147.16296"
   version="1.1"
   id="svg5"
   xmlns="http://www.w3.org/2000/svg"
   xmlns:svg="http://www.w3.org/2000/svg">
  <defs
     id="defs2" />
  <g
     id="layer1"
     transform="translate(622.50754,2574.2289)">
    <g
       id="g31680">
      <g
         id="g31565">
        <g
           id="g37506"
           transform="translate(-491.38254,501.26284)">
          <path
             id="rect23651"
             style="font-variation-settings:normal;vector-effect:none;fill:#f0f0f0;fill-opacity:1;stroke:none;stroke-width:0.98039;stroke-linecap:butt;stroke-linejoin:miter;stroke-miterlimit:4;stroke-dasharray:none;stroke-dashoffset:0;stroke-opacity:1;-inkscape-stroke:none;paint-order:stroke fill markers;stop-color:#000000"
             d="m -129.29106,-3073.107 h 297.00003 v 144.7783 h -297.00003 z" />
          <g
             id="rect24075"
             transform="matrix(0.05669279,0.99839167,1,0,0,0)">
            <path
               style="color:#000000;fill:#d0d0d0;stroke-width:0.981183;-inkscape-stroke:none;paint-order:stroke fill markers"
               d="m -3077.1558,46.344959 h 64.732 V 342.56252 h -64.732 z"
               id="path33356" />
            <g
               id="g33350">
              <path
                 style="fill:none;stroke:context-stroke;stroke-width:0.981183"
                 d="m -3074.2122,49.043212 -2.9436,-2.943548 -2.9435,2.943548"
                 id="path33352" />
            </g>
          </g>
          <path
             style="color:#000000;fill:#808080;-inkscape-stroke:none"
             d="m -126.05273,-3033.7148 v 1 h 13.125 v -1 z"
             id="path23653" />
          <path
             style="color:#000000;fill:#808080;-inkscape-stroke:none"
             d="m -127.5332,-3059.7715 v 1 h 13.125 v -1 z"
             id="path23655" />
          <path
             style="color:#000000;fill:#808080;stroke-dasharray:4, 1;-inkscape-stroke:none;paint-order:stroke fill markers"
             d="m -129.29102,-3007.5781 v 1 h 4 v -1 z m 5,0 v 1 h 4 v -1 z m 5,0 v 1 h 4 v -1 z m 5,0 v 1 h 4 v -1 z m 5,0 v 1 h 4 v -1 z m 5,0 v 1 h 4 v -1 z m 5.000004,0 v 1 h 4 v -1 z m 5,0 v 1 h 4 v -1 z m 5,0 v 1 h 4 v -1 z m 5,0 v 1 h 4 v -1 z m 5,0 v 1 h 4 v -1 z m 5,0 v 1 h 4 v -1 z m 5,0 v 1 h 4 v -1 z m 5,0 v 1 h 4 v -1 z m 5,0 v 1 h 4 v -1 z m 5,0 v 1 h 4 v -1 z m 5,0 v 1 h 4 v -1 z m 5,0 v 1 h 4 v -1 z m 5,0 v 1 h 4 v -1 z m 5,0 v 1 h 4 v -1 z m 5,0 v 1 h 4 v -1 z m 5,0 v 1 h 4 v -1 z m 5,0 v 1 h 4 v -1 z m 5,0 v 1 h 4 v -1 z m 5.0000004,0 v 1 h 4 v -1 z m 5,0 v 1 h 3.99999997 v -1 z m 4.99999997,0 v 1 H 4.7089844 v -1 z m 5.00000003,0 v 1 h 4 v -1 z m 4.9999996,0 v 1 h 4 v -1 z m 5,0 v 1 h 4 v -1 z m 5,0 v 1 h 4 v -1 z m 5,0 v 1 h 4 v -1 z m 5,0 v 1 h 4 v -1 z m 5,0 v 1 h 4 v -1 z m 5,0 v 1 h 4 v -1 z m 5,0 v 1 h 4 v -1 z m 5,0 v 1 h 4 v -1 z m 5,0 v 1 h 4 v -1 z m 5,0 v 1 h 4 v -1 z m 5,0 v 1 h 4 v -1 z m 5,0 v 1 h 4 v -1 z m 5,0 v 1 h 4 v -1 z m 5,0 v 1 h 4 v -1 z m 5,0 v 1 h 4 v -1 z m 5,0 v 1 h 4 v -1 z m 5,0 v 1 h 4 v -1 z m 4.999996,0 v 1 h 4 v -1 z m 5,0 v 1 h 4 v -1 z m 5,0 v 1 h 4 v -1 z m 5,0 v 1 h 4 v -1 z m 5,0 v 1 h 4 v -1 z m 5,0 v 1 h 4 v -1 z m 5,0 v 1 h 4 v -1 z m 5,0 v 1 h 4 v -1 z m 5,0 v 1 h 4 v -1 z m 5,0 v 1 h 4 v -1 z m 5,0 v 1 h 4 v -1 z m 5,0 v 1 h 4 v -1 z m 5,0 v 1 h 4 v -1 z m 5,0 v 1 h 2 v -1 z"
             id="path23657" />
          <path
             style="color:#000000;fill:#808080;-inkscape-stroke:none;paint-order:stroke fill markers"
             d="m -129.29102,-3073.1074 v 1 h 297 v -1 z"
             id="path23661" />
          <g
             id="path24328">
            <path
               style="color:#000000;fill:#303030;-inkscape-stroke:none;paint-order:stroke fill markers"
               d="m -128.84961,-3073.3418 -0.88281,0.4707 c 10.65077,19.9968 16.30468,42.6366 16.30469,65.293 0,22.6564 -5.6539,45.2941 -16.30469,65.291 l 0.88281,0.4707 c 10.72897,-20.1437 16.42188,-42.939 16.42188,-65.7617 -1e-5,-22.8227 -5.69292,-45.6201 -16.42188,-65.7637 z"
               id="path33330" />
            <g
               id="g33322">
              <path
                 style="color:#000000;fill:#303030;-inkscape-stroke:none"
                 d="m -130.16797,-2946.0352 -0.95703,0.293 1.38477,4.5352 4.53515,-1.3828 -0.29101,-0.9571 -3.58008,1.0918 z"
                 id="path33324" />
            </g>
          </g>
        </g>
      </g>
    </g>
  </g>
</svg>
