<?xml version="1.0" encoding="UTF-8" standalone="no"?>
<!-- Created with Inkscape (http://www.inkscape.org/) -->

<svg
   width="190.78325mm"
   height="106.22437mm"
   viewBox="0 0 190.78325 106.22436"
   version="1.1"
   id="svg5"
   xmlns="http://www.w3.org/2000/svg"
   xmlns:svg="http://www.w3.org/2000/svg">
  <defs
     id="defs2" />
  <g
     id="layer1"
     transform="translate(-93.539123,2179.481)">
    <g
       id="g31680">
      <g
         id="g31565">
        <g
           id="g50762"
           transform="translate(170.63877,283.09494)">
          <g
             id="path28229">
            <path
               style="color:#000000;fill:#f0f0f0;stroke-width:0.98039;-inkscape-stroke:none;paint-order:stroke fill markers"
               d="m -60.40243,-2459.7871 148.37023,39.7132 0.2228,39.037 H -60.40243 Z"
               id="path33412" />
            <g
               id="g33406">
              <path
                 style="fill:none;stroke:context-stroke;stroke-width:0.98039"
                 d="m -57.46126,-2457.091 -2.94117,-2.9412 -2.94117,2.9412"
                 id="path33408" />
            </g>
          </g>
          <g
             id="path28017">
            <path
               style="color:#000000;fill:#808080;stroke-width:0.884207;-inkscape-stroke:none;paint-order:stroke fill markers"
               d="m 67.76637,-2358.6674 20.20143,-61.4065 -148.37023,-39.7132 -16.69724,62.3029 z"
               id="path33402" />
            <g
               id="g33396">
              <path
                 style="fill:none;stroke:context-stroke;stroke-width:0.884207"
                 d="m 64.731105,-2356.7345 3.248785,-1.8757 -1.875685,-3.2488"
                 id="path33398" />
            </g>
          </g>
          <g
             id="path27810">
            <path
               style="color:#000000;fill:#d0d0d0;-inkscape-stroke:none;paint-order:stroke fill markers"
               d="m -60.40243,-2459.7871 -16.69724,62.3029 144.86604,38.8168 3.38499,-10.2893 c 2.315542,-7.0385 4.294183,-14.1885 5.755674,-21.4526 1.461491,-7.264 2.610112,-14.7024 5.756626,-21.4107 1.39287,-2.9696 3.181664,-5.7532 5.30414,-8.2539 z"
               id="path33392" />
            <g
               id="g33386">
              <path
                 style="fill:none;stroke:context-stroke"
                 d="m -56.970261,-2461.974 -3.673668,2.1223 2.122302,3.6736"
                 id="path33388" />
            </g>
          </g>
          <path
             style="color:#000000;fill:#808080;-inkscape-stroke:none;paint-order:stroke fill markers"
             d="m -60.244141,-2460.2617 -0.316406,0.9492 142.908203,47.9238 0.31836,-0.9472 z"
             id="path27891" />
          <g
             id="path28317-2">
            <path
               style="color:#000000;fill:#dfdfdf;-inkscape-stroke:none;paint-order:stroke fill markers"
               d="m -60.402442,-2459.7871 145.302044,40.0918 5.006308,-8.4965 z"
               id="path33572" />
            <g
               id="g33566">
              <path
                 style="fill:none;stroke:context-stroke"
                 d="m -57.094132,-2462.1572 -3.552963,2.3187 2.318717,3.5529"
                 id="path33568" />
            </g>
          </g>
          <path
             style="color:#000000;fill:#808080;-inkscape-stroke:none;paint-order:stroke fill markers"
             d="m -60.351562,-2460.0313 -0.101563,0.4883 150.306641,31.5957 0.103515,-0.4882 z"
             id="path28735-0" />
          <path
             style="font-variation-settings:normal;fill:#dfdfdf;fill-opacity:1;stroke:none;stroke-width:0.5;stroke-linecap:butt;stroke-linejoin:miter;stroke-miterlimit:4;stroke-dasharray:none;stroke-dashoffset:0;stroke-opacity:1;paint-order:stroke fill markers;stop-color:#000000"
             d="m 89.9059,-2428.1918 -3.1802,7.7854 -1.39177,-0.3725 z"
             id="path28910" />
          <g
             id="path28317">
            <path
               style="color:#000000;fill:#dfdfdf;-inkscape-stroke:none;paint-order:stroke fill markers"
               d="m -60.40243,-2459.7871 142.90979,47.9253 5.46044,-8.2121 z"
               id="path33558" />
            <g
               id="g33552">
              <path
                 style="fill:none;stroke:context-stroke"
                 d="m -56.970261,-2461.974 -3.673668,2.1223 2.122302,3.6736"
                 id="path33554" />
            </g>
          </g>
          <path
             style="color:#000000;fill:#808080;-inkscape-stroke:none;paint-order:stroke fill markers"
             d="m -60.337891,-2460.0293 -0.128906,0.4844 148.369141,39.7129 0.130859,-0.4825 z"
             id="path28735" />
          <path
             style="color:#000000;fill:#303030;-inkscape-stroke:none;paint-order:stroke fill markers"
             d="m 63.113281,-2371.4863 c -2.030394,0 -3.6875,1.6551 -3.6875,3.6855 0,2.0304 1.657106,3.6875 3.6875,3.6875 2.030394,0 3.685547,-1.6571 3.685547,-3.6875 0,-2.0304 -1.655153,-3.6855 -3.685547,-3.6855 z m 0,1 c 1.489955,0 2.685547,1.1956 2.685547,2.6855 0,1.49 -1.195592,2.6875 -2.685547,2.6875 -1.489954,0 -2.6875,-1.1975 -2.6875,-2.6875 0,-1.4899 1.197546,-2.6855 2.6875,-2.6855 z"
             id="path27746-6" />
          <g
             id="path29061">
            <path
               style="color:#000000;fill:#303030;-inkscape-stroke:none;paint-order:stroke fill markers"
               d="m 90.978516,-2387.7559 c -6.242711,0.4439 -12.361028,2.6298 -17.429688,6.3145 -4.718635,3.4303 -8.513353,8.111 -10.892578,13.4375 l 0.912109,0.4082 c 2.306677,-5.1641 5.993608,-9.7114 10.56836,-13.0371 6.547789,-4.76 14.934726,-6.9451 22.972656,-5.9844 l 0.119141,-0.9922 c -2.074061,-0.2479 -4.169097,-0.2944 -6.25,-0.1465 z"
               id="path33374" />
            <g
               id="g33366">
              <path
                 style="color:#000000;fill:#303030;-inkscape-stroke:none"
                 d="m 95.1875,-2390.7266 -0.787109,0.6172 2.314453,2.9414 -2.941407,2.3145 0.617188,0.7851 3.728516,-2.9316 z"
                 id="path33368" />
            </g>
          </g>
          <path
             style="color:#000000;fill:#303030;-inkscape-stroke:none;paint-order:stroke fill markers"
             d="m 103.65234,-2404.8262 -0.8164,0.5801 7.95117,11.1895 -8.62891,3.8164 9.47461,6.6015 -10.71484,4.5801 8.20312,12.6289 -10.271481,4.1192 0.373047,0.9277 11.400394,-4.5723 -8.21875,-12.6523 11.27929,-4.8223 -9.49609,-6.6152 8.12305,-3.5938 z"
             id="path29103" />
        </g>
      </g>
    </g>
  </g>
</svg>
