<?xml version="1.0" encoding="UTF-8" standalone="no"?>
<!-- Created with Inkscape (http://www.inkscape.org/) -->

<svg
   width="542.82709mm"
   height="183.57748mm"
   viewBox="0 0 542.82709 183.57748"
   version="1.1"
   id="svg5"
   inkscape:version="1.3.2 (091e20ef0f, 2023-11-25, custom)"
   sodipodi:docname="thumbnail.svg"
   xmlns:inkscape="http://www.inkscape.org/namespaces/inkscape"
   xmlns:sodipodi="http://sodipodi.sourceforge.net/DTD/sodipodi-0.dtd"
   xmlns="http://www.w3.org/2000/svg"
   xmlns:svg="http://www.w3.org/2000/svg">
  <sodipodi:namedview
     id="namedview7"
     pagecolor="#ffffff"
     bordercolor="#111111"
     borderopacity="1"
     inkscape:showpageshadow="0"
     inkscape:pageopacity="0"
     inkscape:pagecheckerboard="1"
     inkscape:deskcolor="#d1d1d1"
     inkscape:document-units="mm"
     showgrid="false"
     inkscape:zoom="0.23896936"
     inkscape:cx="665.35728"
     inkscape:cy="554.4644"
     inkscape:window-width="1680"
     inkscape:window-height="1006"
     inkscape:window-x="0"
     inkscape:window-y="0"
     inkscape:window-maximized="1"
     inkscape:current-layer="layer1" />
  <defs
     id="defs2">
    <rect
       x="-142.34352"
       y="-132.26175"
       width="360.62832"
       height="96.272687"
       id="rect4297" />
    <rect
       x="412.4038"
       y="-352.35303"
       width="706.28431"
       height="131.88228"
       id="rect3416" />
    <inkscape:path-effect
       effect="spiro"
       id="path-effect16131"
       is_visible="true"
       lpeversion="1" />
    <inkscape:path-effect
       effect="spiro"
       id="path-effect16097"
       is_visible="true"
       lpeversion="1" />
    <inkscape:path-effect
       effect="spiro"
       id="path-effect15908"
       is_visible="true"
       lpeversion="1" />
    <inkscape:path-effect
       effect="spiro"
       id="path-effect15904"
       is_visible="true"
       lpeversion="1" />
    <inkscape:path-effect
       effect="spiro"
       id="path-effect15900"
       is_visible="true"
       lpeversion="1" />
    <inkscape:path-effect
       effect="spiro"
       id="path-effect15896"
       is_visible="true"
       lpeversion="1" />
    <inkscape:path-effect
       effect="spiro"
       id="path-effect15892"
       is_visible="true"
       lpeversion="1" />
    <inkscape:path-effect
       effect="spiro"
       id="path-effect15886"
       is_visible="true"
       lpeversion="1" />
    <rect
       x="-210.68327"
       y="440.59668"
       width="457.62945"
       height="151.21466"
       id="rect5938" />
    <rect
       x="419.91986"
       y="412.78326"
       width="301.94873"
       height="163.05122"
       id="rect4782" />
    <inkscape:path-effect
       effect="spiro"
       id="path-effect497"
       is_visible="true"
       lpeversion="1" />
    <inkscape:path-effect
       effect="spiro"
       id="path-effect493"
       is_visible="true"
       lpeversion="1" />
    <inkscape:path-effect
       effect="spiro"
       id="path-effect460"
       is_visible="true"
       lpeversion="1" />
    <inkscape:path-effect
       effect="fill_between_many"
       method="originald"
       linkedpaths="#path8105,0,1|#path6980,0,1"
       id="path-effect10520"
       is_visible="true"
       lpeversion="0"
       join="true"
       close="true"
       autoreverse="true" />
    <rect
       x="-210.68327"
       y="440.59668"
       width="346.37134"
       height="301.18203"
       id="rect15292" />
    <rect
       x="-210.68327"
       y="440.59668"
       width="365.54984"
       height="118.08885"
       id="rect15930" />
  </defs>
  <g
     inkscape:label="Layer 1"
     inkscape:groupmode="layer"
     id="layer1"
     transform="translate(315.55789,-88.187576)">
    <rect
       style="fill:#1e1f29;fill-opacity:1;stroke:none;stroke-width:1;stroke-dasharray:none;stroke-opacity:1"
       id="rect14785"
       width="541.82709"
       height="182.57748"
       x="-315.05789"
       y="88.687576" />
    <text
       xml:space="preserve"
       transform="scale(0.26458333)"
       id="text4780"
       style="font-style:italic;font-size:85.3333px;font-family:'Noto Sans';-inkscape-font-specification:'Noto Sans Italic';white-space:pre;shape-inside:url(#rect4782);display:inline;fill:#010a0b;fill-opacity:1;stroke:none;stroke-width:3.77953" />
    <path
       id="path398"
       style="fill:#91e1f2;fill-opacity:1;stroke:none;stroke-width:1;stroke-opacity:1"
       d="m 116.15687,144.15592 a 28.904032,28.904032 0 0 0 -26.89707,18.32239 26.454479,26.454479 0 0 0 -0.0574,-5.1e-4 26.454479,26.454479 0 0 0 -26.454717,26.45471 26.454479,26.454479 0 0 0 26.454717,26.4542 l 83.06263,0.40979 c 3.28768,-0.58928 6.38302,-2.20991 8.74055,-4.57595 2.35754,-2.36602 3.96647,-5.46678 4.54391,-8.75657 0.75356,-4.29317 -0.29079,-8.87302 -2.83084,-12.41526 -2.54003,-3.54224 -6.54303,-6.00104 -10.85101,-6.66471 a 21.009111,21.009111 0 0 0 -21.00906,-21.00905 21.009111,21.009111 0 0 0 -7.35252,1.33893 28.904032,28.904032 0 0 0 -27.34923,-19.55797 z" />
    <path
       d="m 89.76991,230.97717 h -2.122314 v 16.45922 h 2.122314 z m 3.476978,4.62845 v 11.83077 h 1.896535 v -6.52499 c 0,-2.41582 1.264357,-3.99627 3.206048,-3.99627 1.490135,0 2.438399,0.90311 2.438399,2.32551 v 8.19575 h 1.87396 v -8.94081 c 0,-1.96427 -1.46756,-3.22863 -3.747914,-3.22863 -1.761069,0 -2.889959,0.67734 -3.928537,2.32551 v -1.98684 z m 16.707562,0 h -1.94169 v -3.2512 h -1.87395 v 3.2512 h -1.60303 v 1.53529 h 1.60303 v 8.94081 c 0,1.2192 0.8128,1.87396 2.28035,1.87396 0.49671,0 0.90312,-0.0452 1.53529,-0.15805 v -1.58045 c -0.27093,0.0677 -0.51929,0.0903 -0.90311,0.0903 -0.8128,0 -1.03858,-0.22578 -1.03858,-1.06116 v -8.10543 h 1.94169 z m 11.80819,6.54756 c 0,-1.80622 -0.13546,-2.88996 -0.47413,-3.77049 -0.76765,-1.94169 -2.57387,-3.11574 -4.78649,-3.11574 -3.29636,0 -5.41868,2.50614 -5.41868,6.4121 0,3.90596 2.03201,6.27663 5.37352,6.27663 2.70934,0 4.58329,-1.53529 5.05743,-4.10916 h -1.89654 c -0.51929,1.55786 -1.58044,2.37066 -3.09316,2.37066 -1.19662,0 -2.21262,-0.54186 -2.8448,-1.53529 -0.45156,-0.67733 -0.6096,-1.35466 -0.63218,-2.52871 z m -8.66987,-1.53529 c 0.15804,-2.19005 1.49013,-3.61245 3.38667,-3.61245 1.91911,0 3.2512,1.49014 3.2512,3.61245 z m 11.19858,-5.01227 v 11.83077 h 1.89654 v -6.14117 c 0.0226,-2.8448 1.19662,-4.10916 3.79307,-4.04142 v -1.91912 c -0.31609,-0.0451 -0.49672,-0.0677 -0.72249,-0.0677 -1.2192,0 -2.14489,0.72249 -3.22863,2.48356 v -2.14489 z m 7.54099,0 v 11.83077 h 1.89653 v -6.52499 c 0,-2.41582 1.26436,-3.99627 3.20605,-3.99627 1.49014,0 2.4384,0.90311 2.4384,2.32551 v 8.19575 h 1.87396 v -8.94081 c 0,-1.96427 -1.46756,-3.22863 -3.74791,-3.22863 -1.76107,0 -2.88996,0.67734 -3.92854,2.32551 v -1.98684 z m 22.55522,6.54756 c 0,-1.80622 -0.13547,-2.88996 -0.47414,-3.77049 -0.76764,-1.94169 -2.57387,-3.11574 -4.78649,-3.11574 -3.29636,0 -5.41867,2.50614 -5.41867,6.4121 0,3.90596 2.032,6.27663 5.37351,6.27663 2.70934,0 4.5833,-1.53529 5.05743,-4.10916 h -1.89653 c -0.51929,1.55786 -1.58045,2.37066 -3.09316,2.37066 -1.19663,0 -2.21263,-0.54186 -2.84481,-1.53529 -0.45155,-0.67733 -0.6096,-1.35466 -0.63217,-2.52871 z m -8.66988,-1.53529 c 0.15805,-2.19005 1.49014,-3.61245 3.38667,-3.61245 1.91911,0 3.2512,1.49014 3.2512,3.61245 z m 15.17226,-5.01227 h -1.94169 v -3.2512 h -1.87396 v 3.2512 h -1.60302 v 1.53529 h 1.60302 v 8.94081 c 0,1.2192 0.81281,1.87396 2.28036,1.87396 0.49671,0 0.90311,-0.0452 1.53529,-0.15805 v -1.58045 c -0.27093,0.0677 -0.51929,0.0903 -0.90311,0.0903 -0.8128,0 -1.03858,-0.22578 -1.03858,-1.06116 v -8.10543 h 1.94169 z"
       id="text5826"
       style="-inkscape-font-specification:'Noto Sans';fill:#f1f2f5;fill-opacity:1"
       aria-label="Internet" />
    <path
       id="path5882"
       style="fill:#93e181;fill-opacity:1;stroke:none;stroke-width:1;stroke-opacity:1"
       d="m -61.73252,144.15592 a 28.904032,28.904032 0 0 0 -26.89707,18.32239 26.454479,26.454479 0 0 0 -0.05736,-5.2e-4 26.454479,26.454479 0 0 0 -26.45472,26.45472 26.454479,26.454479 0 0 0 26.45472,26.4542 l 83.06263,0.40979 c 3.28768,-0.58928 6.38302,-2.20991 8.74055,-4.57595 2.35754,-2.36602 3.96647,-5.46678 4.54391,-8.75657 0.75356,-4.29317 -0.29079,-8.87302 -2.83084,-12.41526 -2.54003,-3.54224 -6.54303,-6.00104 -10.85101,-6.66471 a 21.009111,21.009111 0 0 0 -21.00906,-21.00905 21.009111,21.009111 0 0 0 -7.35252,1.33893 28.904032,28.904032 0 0 0 -27.34923,-19.55797 z" />
    <path
       d="m -194.98227,487.1043 h 19.54133 c 4.864,0 8.70399,-1.45066 12.03199,-4.43733 3.75467,-3.41333 5.376,-7.42399 5.376,-13.14133 0,-11.69066 -6.912,-18.26132 -19.19999,-18.26132 h -25.68532 v 62.20797 h 7.93599 z m 0,-6.99733 v -21.84532 h 16.55466 c 7.59467,0 12.11733,4.096 12.11733,10.92266 0,6.82666 -4.52266,10.92266 -12.11733,10.92266 z m 47.10397,-11.34933 v 44.71465 h 7.16799 v -23.21065 c 0.0853,-10.752 4.52267,-15.53066 14.336,-15.27466 v -7.25334 c -1.19467,-0.17066 -1.87733,-0.25599 -2.73067,-0.25599 -4.608,0 -8.10666,2.73066 -12.20266,9.38666 v -8.10667 z m 45.22661,-1.27999 c -12.62932,0 -20.13865,8.95999 -20.13865,23.97865 0,15.104 7.50933,23.97866 20.22399,23.97866 12.629326,0 20.223989,-8.96 20.223989,-23.63733 0,-15.53066 -7.338664,-24.31998 -20.309329,-24.31998 z m 0.0853,6.57066 c 8.021327,0 12.799992,6.57066 12.799992,17.66399 0,10.58133 -4.949331,17.15199 -12.799992,17.15199 -7.936,0 -12.8,-6.57066 -12.8,-17.40799 0,-10.83733 4.864,-17.40799 12.8,-17.40799 z m 45.055888,-5.29067 h -7.338664 v -12.28799 h -7.082663 v 12.28799 h -6.058664 v 5.80267 h 6.058664 v 33.79198 c 0,4.608 3.071998,7.08267 8.618663,7.08267 1.877332,0 3.413332,-0.17067 5.802664,-0.59733 v -5.97334 c -1.024,0.256 -1.962666,0.34134 -3.413332,0.34134 -3.071999,0 -3.925332,-0.85334 -3.925332,-4.01067 v -30.63465 h 7.338664 z m 24.23473,-1.27999 c -12.629328,0 -20.138658,8.95999 -20.138658,23.97865 0,15.104 7.50933,23.97866 20.223991,23.97866 12.629328,0 20.223992,-8.96 20.223992,-23.63733 0,-15.53066 -7.338664,-24.31998 -20.309325,-24.31998 z m 0.08533,6.57066 c 8.02133,0 12.799995,6.57066 12.799995,17.66399 0,10.58133 -4.949331,17.15199 -12.799995,17.15199 -7.935997,0 -12.799995,-6.57066 -12.799995,-17.40799 0,-10.83733 4.863998,-17.40799 12.799995,-17.40799 z m 30.1226227,-5.29067 v 44.71465 h 7.167997 v -24.66132 c 0,-9.13066 4.7786646,-15.10399 12.1173283,-15.10399 5.631998,0 9.215996,3.41333 9.215996,8.78933 v 30.97598 h 7.082664 v -33.79198 c 0,-7.424 -5.546665,-12.20266 -14.165328,-12.20266 -6.655997,0 -10.9226617,2.55999 -14.8479934,8.78932 v -7.50933 z M 71.854843,513.47229 93.444167,451.26432 H 84.996171 L 67.758844,503.91496 49.497519,451.26432 h -8.53333 l 22.357324,62.20797 z M 111.0228,487.1043 h 19.54132 c 4.864,0 8.704,-1.45066 12.032,-4.43733 3.75466,-3.41333 5.376,-7.42399 5.376,-13.14133 0,-11.69066 -6.912,-18.26132 -19.2,-18.26132 H 103.0868 v 62.20797 h 7.936 z m 0,-6.99733 v -21.84532 h 16.55466 c 7.59466,0 12.11733,4.096 12.11733,10.92266 0,6.82666 -4.52267,10.92266 -12.11733,10.92266 z m 94.12271,-28.84265 h -7.50933 v 50.85864 L 165.1242,451.26432 h -8.61867 v 62.20797 h 7.50933 v -50.43198 l 32.17066,50.43198 h 8.95999 z"
       id="text5936"
       style="-inkscape-font-specification:'Noto Sans';stroke-width:3.77953;fill:#f1f2f5;fill-opacity:1"
       transform="matrix(0.26458333,0,0,0.26458333,-53.915229,111.58017)"
       aria-label="ProtonVPN" />
    <g
       id="g16039"
       transform="translate(43.129561)"
       style="stroke:none">
      <rect
         style="fill:#f2f2f2;fill-opacity:1;stroke:none;stroke-width:1;stroke-dasharray:none;stroke-opacity:1"
         id="rect15828"
         width="4.9933872"
         height="34.035221"
         x="263.36011"
         y="165.59099"
         ry="2.4966936"
         transform="scale(-1,1)" />
      <rect
         style="fill:#f2f2f2;fill-opacity:1;stroke:none;stroke-width:1;stroke-dasharray:none;stroke-opacity:1"
         id="rect15826"
         width="4.9933872"
         height="34.035221"
         x="217.55481"
         y="165.59099"
         ry="2.4966936"
         transform="scale(-1,1)" />
      <rect
         style="fill:#ffffff;fill-opacity:1;stroke:none;stroke-width:1;stroke-dasharray:none;stroke-opacity:1"
         id="rect15450"
         width="61.928761"
         height="14.279497"
         x="211.75023"
         y="193.11098"
         transform="scale(-1,1)" />
      <rect
         style="fill:#f2f2f2;fill-opacity:1;stroke:none;stroke-width:1;stroke-dasharray:none;stroke-opacity:1"
         id="rect15562"
         width="8.0663023"
         height="2.9293141"
         x="216.01836"
         y="207.39047"
         transform="scale(-1,1)" />
      <rect
         style="fill:#f2f2f2;fill-opacity:1;stroke:none;stroke-width:1;stroke-dasharray:none;stroke-opacity:1"
         id="rect15824"
         width="8.0663023"
         height="2.9293141"
         x="261.82367"
         y="207.39047"
         transform="scale(-1,1)" />
    </g>
    <path
       d="m -177.48894,450.24032 c -17.83466,0 -29.95199,13.14133 -29.95199,32.59732 0,19.54132 12.032,32.59732 30.03732,32.59732 7.59467,0 14.25066,-2.304 19.28533,-6.57067 6.74133,-5.71733 10.75199,-15.35999 10.75199,-25.51465 0,-20.05333 -11.86133,-33.10932 -30.12265,-33.10932 z m 0,6.99733 c 13.48266,0 22.18666,10.15466 22.18666,25.94132 0,15.01866 -8.96,25.25866 -22.10133,25.25866 -13.31199,0 -22.10132,-10.24 -22.10132,-25.59999 0,-15.35999 8.78933,-25.59999 22.01599,-25.59999 z m 37.80264,74.8373 h 7.168 v -23.29599 c 3.75466,4.608 7.936,6.656 13.73866,6.656 11.60533,0 19.114658,-9.30133 19.114658,-23.55199 0,-15.01866 -7.338668,-24.40532 -19.199988,-24.40532 -6.05867,0 -10.92267,2.73066 -14.25066,8.02133 v -6.74134 h -6.57067 z m 19.62666,-57.94131 c 7.85066,0 12.97066,6.912 12.97066,17.57866 0,10.15466 -5.20533,17.06666 -12.97066,17.06666 -7.59466,0 -12.45866,-6.82666 -12.45866,-17.32266 0,-10.49599 4.864,-17.32266 12.45866,-17.32266 z m 66.986623,19.37066 c 0,-6.82666 -0.512,-10.92266 -1.792,-14.25066 -2.901332,-7.33866 -9.727995,-11.77599 -18.090659,-11.77599 -12.458661,0 -20.479991,9.47199 -20.479991,24.23465 0,14.76266 7.679997,23.72266 20.309325,23.72266 10.239995,0 17.322659,-5.80267 19.114658,-15.53066 h -7.167997 c -1.962665,5.888 -5.97333,8.95999 -11.690661,8.95999 -4.522665,0 -8.362664,-2.04799 -10.751996,-5.80266 -1.706666,-2.56 -2.303999,-5.12 -2.389332,-9.55733 z m -32.767987,-5.80266 c 0.597333,-8.27733 5.631998,-13.65333 12.799995,-13.65333 7.25333,0 12.287995,5.632 12.287995,13.65333 z m 42.410618,-18.944 v 44.71465 h 7.167997 v -24.66132 c 0,-9.13066 4.778664,-15.10399 12.117328,-15.10399 5.631998,0 9.215996,3.41333 9.215996,8.78933 v 30.97598 h 7.082664 v -33.79198 c 0,-7.424 -5.546664,-12.20266 -14.165327,-12.20266 -6.655998,0 -10.922663,2.55999 -14.847994,8.78932 v -7.50933 z m 104.95994,44.71465 15.78666,-62.20797 H 68.441551 L 57.006889,501.78163 42.841562,451.26432 h -8.53333 L 20.484238,501.78163 8.7935757,451.26432 H -0.08108725 L 15.876239,513.47229 h 8.703997 l 13.909327,-51.11464 14.335994,51.11464 z m 20.480087,-44.71465 v 44.71465 h 7.167997 v -23.21065 c 0.08533,-10.752 4.522664,-15.53066 14.335992,-15.27466 v -7.25334 c -1.19466,-0.17066 -1.87733,-0.25599 -2.73066,-0.25599 -4.608002,0 -8.106667,2.73066 -12.202665,9.38666 v -8.10667 z m 46.506689,0 h -7.33866 v -12.28799 h -7.08266 v 12.28799 h -6.05867 v 5.80267 h 6.05867 v 33.79198 c 0,4.608 3.07199,7.08267 8.61866,7.08267 1.87733,0 3.41333,-0.17067 5.80266,-0.59733 v -5.97334 c -1.024,0.256 -1.96266,0.34134 -3.41333,0.34134 -3.072,0 -3.92533,-0.85334 -3.92533,-4.01067 v -30.63465 h 7.33866 z"
       id="text15928"
       style="-inkscape-font-specification:'Noto Sans';stroke-width:3.77953;fill:#f1f2f5;fill-opacity:1"
       transform="matrix(0.26458333,0,0,0.26458333,-189.14398,108.36037)"
       aria-label="OpenWrt" />
    <g
       id="path16095"
       style="stroke:#ffffff;stroke-opacity:1;fill:#f9fdfb;fill-opacity:1">
      <path
         style="color:#000000;fill:#f9fdfb;-inkscape-stroke:none;stroke:#ffffff;stroke-opacity:1;fill-opacity:1"
         d="m -134.34961,128.57617 c -10.16312,0.71381 -20.15353,3.85497 -28.85937,9.16406 -11.6078,7.07879 -20.83471,17.95455 -25.92774,30.56055 l 1.85547,0.74805 c 4.92818,-12.19797 13.8812,-22.7519 25.11328,-29.60156 11.23208,-6.84967 24.71567,-9.97683 37.81641,-8.77344 11.86157,1.08956 23.39033,5.70774 32.724607,13.10742 l 1.242187,-1.56836 c -9.644764,-7.64581 -21.529034,-12.40545 -33.785154,-13.53125 -3.38474,-0.31091 -6.79198,-0.34341 -10.17969,-0.10547 z"
         id="path20825" />
      <g
         id="g20817"
         style="stroke:#ffffff;stroke-opacity:1;fill:#f9fdfb;fill-opacity:1">
        <path
           style="color:#000000;fill:#f9fdfb;stroke-linecap:round;-inkscape-stroke:none;stroke:#ffffff;stroke-opacity:1;fill-opacity:1"
           d="m -91.703125,133.88477 a 1,1 0 0 0 -0.878906,1.10742 l 0.861328,7.4375 -7.4375,0.85937 a 1,1 0 0 0 -0.876957,1.10742 1,1 0 0 0 1.107426,0.87891 l 9.421875,-1.08984 -1.087891,-9.42188 a 1,1 0 0 0 -1.109375,-0.8789 z"
           id="path20819" />
      </g>
    </g>
    <g
       id="path16127"
       style="stroke:#ffffff;stroke-opacity:1;fill:#f9fdfb;fill-opacity:1">
      <path
         style="color:#000000;fill:#f9fdfb;-inkscape-stroke:none;stroke:#ffffff;stroke-opacity:1;fill-opacity:1"
         d="M 50.474609,128.57617 C 40.311485,129.28999 30.32108,132.43115 21.615234,137.74023 10.00744,144.81902 0.78053195,155.69478 -4.3125,168.30078 l 1.8535156,0.74805 c 4.928183,-12.19798 13.8831554,-22.7519 25.1152344,-29.60156 11.232079,-6.84967 24.713715,-9.97682 37.814453,-8.77344 11.86157,1.08956 23.392283,5.70774 32.726563,13.10742 l 1.242187,-1.56836 c -9.644763,-7.64581 -21.529036,-12.40545 -33.785156,-13.53125 -3.38474,-0.31091 -6.79198,-0.34341 -10.179688,-0.10547 z"
         id="path20841" />
      <g
         id="g20833"
         style="stroke:#ffffff;stroke-opacity:1;fill:#f9fdfb;fill-opacity:1">
        <path
           style="color:#000000;fill:#f9fdfb;stroke-linecap:round;-inkscape-stroke:none;stroke:#ffffff;stroke-opacity:1;fill-opacity:1"
           d="m 93.121094,133.88477 a 1,1 0 0 0 -0.878907,1.10742 l 0.859375,7.4375 -7.435546,0.85937 a 1,1 0 0 0 -0.878907,1.10742 1,1 0 0 0 1.109375,0.87891 l 9.421875,-1.08984 -1.089843,-9.42188 a 1,1 0 0 0 -1.107422,-0.8789 z"
           id="path20835" />
      </g>
    </g>
    <g
       aria-label="Wireguard"
       id="text4295"
       style="font-size:16.9333px;font-family:'Noto Sans';-inkscape-font-specification:'Noto Sans';white-space:pre;fill:#ff7171;stroke-width:7.55906;fill-opacity:1;stroke:none"
       transform="rotate(180,-253.86639,127.86384)">
      <path
         d="m -330.36822,116.36722 9.32665,8.67241 0.84512,-1.54501 -7.70581,-6.80147 10.1437,2.34467 0.81264,-1.48559 -7.4783,-7.21744 9.90804,2.7755 0.84514,-1.54502 -12.34962,-3.146 -0.82888,1.51531 7.57415,7.28917 -10.26395,-2.37184 z"
         id="path4360"
         style="stroke:none;stroke-opacity:1;stroke-width:0.396875;stroke-dasharray:none;fill:#ff7171;fill-opacity:1" />
      <path
         d="m -328.8845,126.97564 1.04537,-0.93944 -5.93095,-6.59961 -1.04537,0.93945 z m 2.32033,2.5819 1.05795,-0.95076 -1.18845,-1.32243 -1.05796,0.95075 z"
         id="path4362"
         style="stroke:none;stroke-opacity:1;stroke-width:0.396875;stroke-dasharray:none;fill:#ff7171;fill-opacity:1" />
      <path
         d="m -331.59591,129.18138 -5.06381,-7.28621 -1.16801,0.81176 2.62853,3.78215 c 1.20373,1.7617 1.02184,3.04289 -0.60622,4.11251 l 0.82142,1.18192 c 0.21399,-0.10748 0.3349,-0.1709 0.47395,-0.26753 0.75086,-0.52184 1.01173,-1.36301 0.9254,-2.91146 l 0.91805,1.32098 z"
         id="path4364"
         style="stroke:none;stroke-opacity:1;stroke-width:0.396875;stroke-dasharray:none;fill:#ff7171;fill-opacity:1" />
      <path
         d="m -346.31533,131.75544 c 0.57643,1.22589 1.01425,1.91819 1.52511,2.40774 1.14067,1.07287 2.74126,1.29326 4.243,0.58714 2.23727,-1.05201 2.87789,-3.43026 1.63135,-6.08128 -1.24653,-2.65101 -3.38225,-3.6115 -5.65017,-2.5451 -1.83886,0.86466 -2.62075,2.50472 -2.12114,4.40295 l 1.2872,-0.60525 c -0.14473,-1.22308 0.31606,-2.1134 1.34279,-2.59615 0.81215,-0.3819 1.67465,-0.33837 2.42077,0.13406 0.52264,0.31561 0.84607,0.72488 1.23608,1.51452 z m 6.37429,-1.72488 c 0.59168,1.53684 0.14151,2.92735 -1.14568,3.53262 -1.30252,0.61246 -2.68219,0.0262 -3.3595,-1.41423 z"
         id="path4366"
         style="stroke:none;stroke-opacity:1;stroke-width:0.396875;stroke-dasharray:none;fill:#ff7171;fill-opacity:1" />
      <path
         d="m -352.97095,138.81615 -0.33952,-1.24133 c 0.96744,0.84137 1.84387,1.09319 2.92187,0.79834 2.07433,-0.56738 2.9845,-2.88786 2.23396,-5.63185 -0.39313,-1.43733 -1.02206,-2.38884 -1.99383,-3.05348 -0.84251,-0.5771 -1.77087,-0.76206 -2.65292,-0.52061 -1.02899,0.28145 -1.63889,0.93984 -2.06271,2.21441 l -0.12063,-0.441 c -0.62544,-2.28666 -0.22075,-3.31024 1.47792,-3.77485 1.15967,-0.31721 1.88909,-0.0252 2.28781,0.9191 l 1.38833,-0.37974 c -0.56402,-1.54859 -2.09421,-2.20093 -3.9562,-1.69164 -1.25767,0.34401 -2.19132,1.03826 -2.55902,1.87615 -0.43442,0.97903 -0.389,2.10772 0.16047,4.11671 l 1.95675,7.15401 z m 2.10769,-1.66492 c -1.43734,0.39315 -2.58461,-0.59212 -3.17878,-2.76449 -0.56736,-2.07433 -0.065,-3.51085 1.35604,-3.89951 1.40466,-0.38421 2.5564,0.61742 3.1327,2.72442 0.57184,2.09066 0.0947,3.55538 -1.30996,3.93958 z"
         id="path4368"
         style="stroke:none;stroke-opacity:1;stroke-width:0.396875;stroke-dasharray:none;fill:#ff7171;fill-opacity:1" />
      <path
         d="m -365.91447,131.92399 1.09812,8.80484 1.39467,-0.17394 -0.62242,-4.99053 c -0.22424,-1.79794 0.57005,-3.09151 2.03192,-3.27384 1.109,-0.13831 1.89856,0.4458 2.03059,1.5044 l 0.77749,6.23395 1.39466,-0.17394 -0.84665,-6.78846 c -0.18233,-1.46186 -1.39188,-2.26662 -3.10581,-2.05287 -1.29383,0.16136 -2.0606,0.71774 -2.73935,1.97984 l -0.153,-1.22663 z"
         id="path4370"
         style="stroke:none;stroke-opacity:1;stroke-width:0.396875;stroke-dasharray:none;fill:#ff7171;fill-opacity:1" />
      <path
         d="m -376.23155,132.88177 c 0.15245,-0.0337 0.22017,-0.0336 0.30485,-0.0335 0.49107,7e-4 0.76165,0.25503 0.76105,0.6953 l -0.007,5.21544 c -0.002,1.57481 1.14819,2.42303 3.33258,2.42599 1.30386,0.002 2.33729,-0.36938 2.94779,-1.02895 0.40702,-0.45664 0.57704,-0.96441 0.6121,-1.8449 l -1.42239,-0.002 c -0.11997,1.08358 -0.76413,1.57376 -2.08493,1.57199 -1.28692,-0.002 -1.98055,-0.47685 -1.9794,-1.32349 l 5e-4,-0.37255 c 0.0178,-0.60956 0.32285,-0.82927 1.47452,-0.98012 1.99848,-0.25129 2.30337,-0.31862 2.84553,-0.53801 1.03352,-0.43887 1.55951,-1.21709 1.56107,-2.36855 0.002,-1.60866 -1.11405,-2.62617 -2.90896,-2.6286 -1.1176,-0.002 -2.01559,0.38674 -3.0159,1.29978 -0.10035,-0.91454 -0.5401,-1.3046 -1.4545,-1.30583 -0.3048,-4e-4 -0.4911,0.0331 -0.9654,0.15108 z m 2.46959,1.96761 c 5.7e-4,-0.47413 0.13651,-0.76182 0.56037,-1.15071 0.57643,-0.52415 1.27106,-0.79414 2.1008,-0.79302 1.10065,0.001 1.74342,0.52729 1.7422,1.42475 -0.001,0.93135 -0.61149,1.40465 -2.1358,1.62272 -1.50734,0.20117 -1.79529,0.2685 -2.26971,0.48799 z"
         id="path4372"
         style="stroke:none;stroke-opacity:1;stroke-width:0.396875;stroke-dasharray:none;fill:#ff7171;fill-opacity:1" />
      <path
         d="m -378.58349,140.6825 0.83322,-8.83386 -1.41611,-0.13366 -0.43253,4.58551 c -0.21722,2.12258 -1.18291,2.98398 -3.11685,2.75053 l -0.13519,1.43296 c 0.23284,0.0559 0.36611,0.0856 0.53469,0.10154 0.91033,0.0861 1.65244,-0.38841 2.58567,-1.62705 l -0.15106,1.60156 z"
         id="path4374"
         style="stroke:none;stroke-opacity:1;stroke-width:0.396875;stroke-dasharray:none;fill:#ff7171;fill-opacity:1" />
      <path
         d="m -392.6804,142.13088 1.38219,0.25469 0.83153,-4.51296 c 0.42022,0.99 1.26687,1.62813 2.43259,1.84294 2.2648,0.41726 4.08136,-1.12476 4.59382,-3.9058 0.54311,-2.94759 -0.55455,-5.02664 -2.91926,-5.46238 -1.19901,-0.22097 -2.11452,0.0753 -3.06336,1.01963 l 0.21172,-1.14905 -1.23231,-0.22711 z m 4.65254,-3.75723 c -1.49876,-0.27614 -2.20557,-1.76665 -1.81893,-3.86492 0.37127,-2.01502 1.58265,-3.16928 3.04811,-2.89924 1.53209,0.28227 2.29934,1.81838 1.92498,3.85004 -0.37439,2.03164 -1.63874,3.19336 -3.15416,2.91412 z"
         id="path4376"
         style="stroke:none;stroke-opacity:1;stroke-width:0.396875;stroke-dasharray:none;fill:#ff7171;fill-opacity:1" />
    </g>
  </g>
</svg>
