<?xml version="1.0" encoding="UTF-8" standalone="no"?>
<!-- Created with Inkscape (http://www.inkscape.org/) -->

<svg
   width="1920"
   height="1080"
   viewBox="0 0 508 285.75"
   version="1.1"
   id="svg5"
   inkscape:version="1.3.2 (091e20ef0f, 2023-11-25, custom)"
   sodipodi:docname="thumbnail.svg"
   xmlns:inkscape="http://www.inkscape.org/namespaces/inkscape"
   xmlns:sodipodi="http://sodipodi.sourceforge.net/DTD/sodipodi-0.dtd"
   xmlns="http://www.w3.org/2000/svg"
   xmlns:svg="http://www.w3.org/2000/svg">
  <sodipodi:namedview
     id="namedview7"
     pagecolor="#ffffff"
     bordercolor="#666666"
     borderopacity="1.0"
     inkscape:showpageshadow="false"
     inkscape:pageopacity="0.0"
     inkscape:pagecheckerboard="true"
     inkscape:deskcolor="#d1d1d1"
     inkscape:document-units="px"
     showgrid="false"
     showborder="false"
     borderlayer="false"
     inkscape:zoom="0.4204826"
     inkscape:cx="951.28788"
     inkscape:cy="740.81543"
     inkscape:window-width="1680"
     inkscape:window-height="1006"
     inkscape:window-x="0"
     inkscape:window-y="0"
     inkscape:window-maximized="1"
     inkscape:current-layer="layer1" />
  <defs
     id="defs2">
    <rect
       x="1449.8167"
       y="40.182365"
       width="1102.5681"
       height="358.87799"
       id="rect2528" />
    <rect
       x="453.06015"
       y="815.58069"
       width="832.68347"
       height="176.61069"
       id="rect1509" />
    <rect
       x="-194.26154"
       y="256.94061"
       width="156.43826"
       height="1094.4111"
       id="rect1391" />
    <rect
       x="160.00003"
       y="102.0312"
       width="445.65634"
       height="675.09851"
       id="rect1385" />
    <rect
       x="-326.86588"
       y="539.99994"
       width="957.93945"
       height="624.44513"
       id="rect1332" />
    <rect
       x="-415.72394"
       y="623.55804"
       width="1045.9056"
       height="640.3728"
       id="rect1326" />
    <rect
       x="805.12024"
       y="399.06033"
       width="1172.8525"
       height="441.77966"
       id="rect1320" />
    <rect
       x="160.00003"
       y="399.06033"
       width="250.55933"
       height="140.93962"
       id="rect1264" />
    <rect
       x="-194.26154"
       y="256.94061"
       width="194.26152"
       height="722.30994"
       id="rect1415" />
    <rect
       x="-194.26154"
       y="256.94061"
       width="194.26152"
       height="722.30994"
       id="rect1099" />
  </defs>
  <g
     inkscape:label="Layer 1"
     inkscape:groupmode="layer"
     id="layer1"
     transform="translate(457.17822,262.60333)">
    <rect
       style="fill:#1e1f29;fill-opacity:1;stroke-width:0"
       id="rect286"
       width="508"
       height="285.75"
       x="-457.17822"
       y="-262.60333" />
    <text
       xml:space="preserve"
       transform="matrix(0.26458333,0,0,0.26458333,-457.17822,-262.60333)"
       id="text1324"
       style="font-weight:bold;font-size:98.8074px;line-height:1;font-family:'RobotoMono Nerd Font Mono';-inkscape-font-specification:'RobotoMono Nerd Font Mono Bold';text-decoration-color:#000000;letter-spacing:0px;white-space:pre;shape-inside:url(#rect1326);display:inline;fill:#000000;stroke-width:1.37232;-inkscape-stroke:none;stop-color:#000000" />
    <g
       id="g10">
      <rect
         style="fill:#2f3240;fill-opacity:1;stroke:#ffffff;stroke-width:1.32292;stroke-dasharray:none;stroke-opacity:1"
         id="rect1214"
         width="132.58765"
         height="74.580551"
         x="-406.13498"
         y="-157.01862" />
      <path
         d="m 182.6269,440.06562 h 34.48378 V 427.71469 H 182.6269 v -16.30322 h 37.25039 v -12.35092 h -52.07151 v 72.03059 h 53.85004 V 458.74022 H 182.6269 Z m 102.26561,-19.06983 c -0.0988,-14.91992 -10.07835,-23.12093 -28.25891,-23.12093 -17.2913,0 -27.27085,8.10221 -27.27085,22.13286 0,11.16523 5.63203,16.59964 20.25552,19.36625 l 10.07836,1.97615 c 9.88074,1.87734 13.53661,4.64394 13.53661,10.47358 0,6.02725 -5.53321,9.68313 -14.52469,9.68313 -10.07835,0 -15.71038,-4.24872 -16.20441,-11.9557 h -14.42588 c 0.88926,15.41396 11.46166,23.81258 29.83983,23.81258 18.57579,0 29.54342,-8.59624 29.54342,-23.31854 0,-11.36285 -5.73083,-17.2913 -19.06983,-19.86029 l -11.26405,-2.17376 c -10.57239,-2.07496 -13.63542,-4.14991 -13.63542,-9.38671 0,-5.4344 4.74276,-8.89266 12.44973,-8.89266 9.38671,0 14.6235,3.95229 15.11754,11.26404 z m 28.2589,24.40543 h 18.47699 c 13.24019,0 21.73762,-9.3867 21.73762,-24.0102 0,-14.42588 -8.20101,-22.33047 -23.21974,-22.33047 H 298.3303 v 72.03059 h 14.82111 z m 0,-12.35093 v -21.63882 h 13.83304 c 7.90459,0 11.56046,3.45826 11.56046,10.77001 0,7.41055 -3.65587,10.86881 -11.56046,10.86881 z"
         id="text1262"
         style="-inkscape-font-specification:'RobotoMono Nerd Font Mono Bold';fill:#ffffff;stroke-width:5"
         transform="matrix(0.26458333,0,0,0.26458333,-409.05128,-235.62087)"
         aria-label="ESP" />
      <rect
         style="fill:#2f3240;fill-opacity:1;stroke:#ffffff;stroke-width:1.32292;stroke-dasharray:none;stroke-opacity:1"
         id="rect1212"
         width="132.58765"
         height="74.580551"
         x="-273.54733"
         y="-157.01862" />
      <path
         d="m 856.89617,448.76067 c 0.0988,-1.18569 0.0988,-1.67972 0.0988,-2.37138 0,-5.3356 -0.79046,-10.27597 -2.07495,-14.03065 -3.55707,-9.68312 -12.15332,-15.51276 -22.92332,-15.51276 -15.31515,0 -24.70185,11.06643 -24.70185,28.95057 0,17.09368 9.28789,27.56726 24.40543,27.56726 11.95569,0 21.63882,-6.7189 24.70185,-17.29129 h -13.63543 c -1.67972,4.24872 -5.53321,6.7189 -10.57239,6.7189 -3.95229,0 -7.11413,-1.67972 -9.09028,-4.64395 -1.2845,-1.97614 -1.77853,-4.34752 -1.97615,-9.3867 z m -35.57066,-9.18909 c 0.88926,-8.20101 4.34752,-12.15331 10.47358,-12.15331 6.32368,0 10.07836,4.24872 10.77001,12.15331 z m 71.53646,4.64395 17.3901,-26.48038 h -16.59964 l -8.59624,16.1056 -8.69505,-16.1056 h -16.59965 l 17.3901,26.48038 -17.78533,26.87561 h 16.59965 l 9.09028,-16.59964 8.99147,16.59964 h 16.59964 z m 41.99313,-4.14991 h 31.51956 V 427.71469 H 934.8551 v -16.30322 h 35.76828 v -12.35092 h -50.5894 v 72.03059 h 14.82112 z m 81.5161,16.50084 4.7428,14.52468 h 15.2163 l -24.8994,-72.03059 h -16.40206 l -25.59112,72.03059 h 15.11753 l 4.84157,-14.52468 z m -4.0511,-12.35093 h -18.77337 l 9.38667,-28.16011 z m 55.7274,-32.80406 h 21.046 V 399.06055 H 1031.39 v 12.35092 h 21.8364 v 59.67967 h 14.8211 z"
         id="text1318"
         style="-inkscape-font-specification:'RobotoMono Nerd Font Mono Bold';fill:#ffffff;stroke-width:5"
         transform="matrix(0.26458333,0,0,0.26458333,-465.64846,-235.75491)"
         aria-label="exFAT" />
      <rect
         style="fill:#2f3240;fill-opacity:1;stroke:#ffffff;stroke-width:1.32292;stroke-dasharray:none;stroke-opacity:1"
         id="rect1218"
         width="132.58765"
         height="74.580551"
         x="-132.80907"
         y="-157.01862" />
      <path
         d="m -304.23834,581.00507 h 34.48378 v -12.35092 h -34.48378 v -16.30322 h 37.25039 V 540 h -52.0715 v 72.0306 h 53.85004 v -12.35093 h -39.02893 z m 85.17188,-5.73083 L -196.83479,540 h -17.19249 L -227.26747,563.71378 -239.91482,540 h -17.58772 l 21.93525,35.76828 -22.72571,36.26232 h 17.19249 l 13.73423,-24.99828 13.83304,24.99828 h 17.58772 z m 64.42231,-22.92331 h 21.04598 V 540 h -57.70352 v 12.35093 h 21.83643 v 59.67967 h 14.82111 z m 73.907955,32.70525 h -7.311748 v -43.08003 h -16.303217 l -25.59112,42.88241 v 11.65927 h 28.0613 v 15.51277 h 13.833037 v -15.51277 h 7.311748 z m -21.144785,0 h -18.27937 l 18.27937,-29.93865 z"
         id="text1330"
         style="-inkscape-font-specification:'RobotoMono Nerd Font Mono Bold';fill:#ffffff;stroke-width:1.37232"
         transform="matrix(0.26458333,0,0,0.26458333,-15.876376,-272.91749)"
         aria-label="EXT4" />
      <rect
         style="fill:#1e1f29;fill-opacity:1;stroke:#ffffff;stroke-width:1.31305;stroke-dasharray:none;stroke-opacity:1"
         id="rect1083"
         width="8.1506243"
         height="74.590355"
         x="-140.95969"
         y="-157.02351" />
      <g
         id="text1389"
         style="font-weight:bold;font-size:98.8074px;font-family:'RobotoMono Nerd Font Mono';-inkscape-font-specification:'RobotoMono Nerd Font Mono Bold';letter-spacing:0px;white-space:pre;fill:#ff6c6c;stroke-width:1.37232"
         transform="matrix(0.07161878,0,0,0.07161878,-125.09661,-172.72986)"
         aria-label="0&#10;1&#10;1&#10;0&#10;1&#10;0&#10;1&#10;1&#10;0&#10;1">
        <path
           d="m -167.2873,257.43544 c -7.50936,0 -13.93184,3.16184 -18.18056,8.99148 -4.0511,5.4344 -5.92844,14.32707 -5.92844,27.96249 0,12.44974 1.58091,21.14479 4.94037,26.48039 4.14991,6.7189 10.96762,10.37477 19.16863,10.37477 7.60817,0 13.83304,-3.06303 18.18056,-8.89266 3.9523,-5.43441 5.92845,-14.42588 5.92845,-27.56727 0,-12.84496 -1.58092,-21.54001 -4.94037,-26.97442 -4.14991,-6.7189 -10.96762,-10.37478 -19.16864,-10.37478 z m 0,11.16524 c 3.55707,0 6.42248,1.97615 8.10221,5.63202 1.3833,2.96422 2.17376,10.57239 2.17376,20.25552 0,7.90459 -0.69165,15.61157 -1.77853,18.47698 -1.58092,4.14992 -4.54514,6.42249 -8.49744,6.42249 -3.65587,0 -6.42248,-1.87735 -8.1022,-5.43441 -1.38331,-2.96422 -2.17377,-10.27597 -2.17377,-19.66268 0,-8.29982 0.69165,-16.20441 1.77854,-19.06982 1.48211,-4.24872 4.54514,-6.6201 8.49743,-6.6201 z"
           id="path1" />
        <path
           d="m -170.74556,379.46259 v 48.31682 h 13.83304 v -70.05445 h -9.18909 c -2.17376,8.29982 -9.3867,12.54854 -21.44121,12.54854 v 9.18909 z"
           id="path2" />
        <path
           d="m -170.74556,478.26999 v 48.31682 h 13.83304 v -70.05445 h -9.18909 c -2.17376,8.29982 -9.3867,12.54854 -21.44121,12.54854 v 9.18909 z"
           id="path3" />
        <path
           d="m -167.2873,553.85768 c -7.50936,0 -13.93184,3.16184 -18.18056,8.99148 -4.0511,5.43441 -5.92844,14.32707 -5.92844,27.96249 0,12.44974 1.58091,21.14479 4.94037,26.48039 4.14991,6.7189 10.96762,10.37477 19.16863,10.37477 7.60817,0 13.83304,-3.06302 18.18056,-8.89266 3.9523,-5.43441 5.92845,-14.42588 5.92845,-27.56727 0,-12.84496 -1.58092,-21.54001 -4.94037,-26.97442 -4.14991,-6.7189 -10.96762,-10.37478 -19.16864,-10.37478 z m 0,11.16524 c 3.55707,0 6.42248,1.97615 8.10221,5.63202 1.3833,2.96423 2.17376,10.5724 2.17376,20.25552 0,7.90459 -0.69165,15.61157 -1.77853,18.47699 -1.58092,4.14991 -4.54514,6.42248 -8.49744,6.42248 -3.65587,0 -6.42248,-1.87734 -8.1022,-5.43441 -1.38331,-2.96422 -2.17377,-10.27597 -2.17377,-19.66267 0,-8.29983 0.69165,-16.20442 1.77854,-19.06983 1.48211,-4.24872 4.54514,-6.6201 8.49743,-6.6201 z"
           id="path4" />
        <path
           d="m -170.74556,675.8848 v 48.31682 h 13.83304 v -70.05445 h -9.18909 c -2.17376,8.29982 -9.3867,12.54854 -21.44121,12.54854 v 9.18909 z"
           id="path5" />
        <path
           d="m -167.2873,751.47243 c -7.50936,0 -13.93184,3.16184 -18.18056,8.99147 -4.0511,5.43441 -5.92844,14.32708 -5.92844,27.9625 0,12.44973 1.58091,21.14478 4.94037,26.48038 4.14991,6.71891 10.96762,10.37478 19.16863,10.37478 7.60817,0 13.83304,-3.06303 18.18056,-8.89267 3.9523,-5.4344 5.92845,-14.42588 5.92845,-27.56726 0,-12.84496 -1.58092,-21.54001 -4.94037,-26.97442 -4.14991,-6.71891 -10.96762,-10.37478 -19.16864,-10.37478 z m 0,11.16524 c 3.55707,0 6.42248,1.97615 8.10221,5.63202 1.3833,2.96422 2.17376,10.57239 2.17376,20.25552 0,7.90459 -0.69165,15.61157 -1.77853,18.47698 -1.58092,4.14991 -4.54514,6.42248 -8.49744,6.42248 -3.65587,0 -6.42248,-1.87734 -8.1022,-5.4344 -1.38331,-2.96423 -2.17377,-10.27597 -2.17377,-19.66268 0,-8.29982 0.69165,-16.20441 1.77854,-19.06983 1.48211,-4.24872 4.54514,-6.62009 8.49743,-6.62009 z"
           id="path6" />
        <path
           d="m -170.74556,873.49954 v 48.31682 h 13.83304 v -70.05445 h -9.18909 c -2.17376,8.29983 -9.3867,12.54854 -21.44121,12.54854 v 9.18909 z"
           id="path7" />
        <path
           d="m -170.74556,972.30692 v 48.31678 h 13.83304 v -70.05441 h -9.18909 c -2.17376,8.29982 -9.3867,12.54854 -21.44121,12.54854 v 9.18909 z"
           id="path8" />
        <path
           d="m -167.2873,1047.8945 c -7.50936,0 -13.93184,3.1619 -18.18056,8.9915 -4.0511,5.4344 -5.92844,14.3271 -5.92844,27.9625 0,12.4498 1.58091,21.1448 4.94037,26.4804 4.14991,6.7189 10.96762,10.3748 19.16863,10.3748 7.60817,0 13.83304,-3.063 18.18056,-8.8927 3.9523,-5.4344 5.92845,-14.4259 5.92845,-27.5673 0,-12.8449 -1.58092,-21.54 -4.94037,-26.9744 -4.14991,-6.7189 -10.96762,-10.3748 -19.16864,-10.3748 z m 0,11.1653 c 3.55707,0 6.42248,1.9761 8.10221,5.632 1.3833,2.9642 2.17376,10.5724 2.17376,20.2555 0,7.9046 -0.69165,15.6116 -1.77853,18.477 -1.58092,4.1499 -4.54514,6.4225 -8.49744,6.4225 -3.65587,0 -6.42248,-1.8773 -8.1022,-5.4344 -1.38331,-2.9642 -2.17377,-10.276 -2.17377,-19.6627 0,-8.2998 0.69165,-16.2044 1.77854,-19.0698 1.48211,-4.2487 4.54514,-6.6201 8.49743,-6.6201 z"
           id="path9" />
        <path
           d="m -170.74556,1169.9217 v 48.3168 h 13.83304 v -70.0545 h -9.18909 c -2.17376,8.2999 -9.3867,12.5486 -21.44121,12.5486 v 9.1891 z"
           id="path10" />
      </g>
      <rect
         style="fill:none;fill-opacity:1;stroke:#0077cc;stroke-width:2.5835;stroke-dasharray:none;stroke-opacity:1"
         id="rect1469"
         width="425.79822"
         height="96.578506"
         x="-416.0773"
         y="-168.01759"
         rx="5.2916665"
         ry="5.2916665" />
    </g>
    <g
       id="path2293"
       transform="matrix(-1,0,0,1,-266.32548,-0.89625308)"
       style="fill:#ffffff;fill-opacity:1">
      <path
         style="color:#000000;fill:#ffffff;-inkscape-stroke:none;fill-opacity:1"
         d="m -69.207031,-217.19727 c -41.837299,3.20903 -58.546879,16.97089 -64.488279,30.23243 -5.94141,13.26154 -1.03906,25.69336 -1.03906,25.69336 l 2.46289,-0.96875 c 0,0 -4.4777,-11.43981 0.99023,-23.64454 5.46793,-12.20472 20.95708,-25.50446 62.277344,-28.67382 z"
         id="path2524" />
      <g
         id="g2516"
         style="fill:#ffffff;fill-opacity:1">
        <path
           style="color:#000000;fill:#ffffff;-inkscape-stroke:none;fill-opacity:1"
           d="m -129.99023,-171.95898 -3.95508,9.07617 -9.07813,-3.95508 -1.05664,2.42578 11.50196,5.01367 5.01367,-11.5039 z"
           id="path2518" />
      </g>
    </g>
    <path
       d="m 1456.4365,40.181641 v 72.030599 h 13.833 V 80.198639 c 0,-6.126059 4.4464,-10.473585 10.6712,-10.473585 3.0631,0 5.3356,1.086882 6.9166,3.260645 1.2845,1.778533 1.5809,3.260644 1.5809,6.620096 v 32.606445 h 13.833 V 76.443958 c 0,-6.620096 -1.7785,-11.362852 -5.4344,-14.425881 -3.063,-2.568993 -7.5094,-4.051104 -11.9557,-4.051104 -6.8177,0 -11.7581,2.6678 -15.6116,8.596244 V 40.181641 Z m 74.2044,18.674599 h -13.8331 v 53.356 h 13.8331 z m 0,-18.674599 h -13.8331 v 12.350925 h 13.8331 z m 47.0323,72.030599 h 13.833 V 40.181641 h -13.833 v 25.591117 c -3.4583,-5.3356 -8.0034,-7.805785 -14.7223,-7.805785 -12.7462,0 -22.4293,12.252118 -22.4293,28.357725 0,7.212941 2.1738,14.524692 5.7308,19.662672 3.6559,5.23679 10.1772,8.49744 16.6985,8.49744 6.7189,0 11.264,-2.37138 14.7223,-7.70698 z m -11.6593,-42.684801 c 7.0153,0 11.6593,6.718904 11.6593,16.994874 0,9.683125 -4.7428,16.402027 -11.6593,16.402027 -6.9165,0 -11.6593,-6.817709 -11.6593,-16.599642 0,-9.979548 4.7428,-16.797259 11.6593,-16.797259 z m 72.0306,42.684801 h 13.833 V 40.181641 h -13.833 v 25.591117 c -3.4582,-5.3356 -8.0034,-7.805785 -14.7223,-7.805785 -12.7461,0 -22.4293,12.252118 -22.4293,28.357725 0,7.212941 2.1738,14.524692 5.7309,19.662672 3.6558,5.23679 10.1771,8.49744 16.6984,8.49744 6.7189,0 11.2641,-2.37138 14.7223,-7.70698 z m -11.6593,-42.684801 c 7.0154,0 11.6593,6.718904 11.6593,16.994874 0,9.683125 -4.7427,16.402027 -11.6593,16.402027 -6.9165,0 -11.6592,-6.817709 -11.6592,-16.599642 0,-9.979548 4.7427,-16.797259 11.6592,-16.797259 z m 83.7887,20.354326 c 0.099,-1.185689 0.099,-1.679726 0.099,-2.371378 0,-5.3356 -0.7904,-10.27597 -2.0749,-14.030651 -3.5571,-9.683126 -12.1533,-15.512763 -22.9233,-15.512763 -15.3152,0 -24.7019,11.066429 -24.7019,28.95057 0,17.093677 9.2879,27.567267 24.4054,27.567267 11.9557,0 21.6389,-6.71891 24.7019,-17.291298 h -13.6354 c -1.6798,4.248718 -5.5332,6.718908 -10.5724,6.718908 -3.9523,0 -7.1142,-1.67973 -9.0903,-4.643952 -1.2845,-1.976148 -1.7785,-4.347526 -1.9762,-9.386703 z m -35.5706,-9.189089 c 0.8892,-8.201014 4.3475,-12.153311 10.4735,-12.153311 6.3237,0 10.0784,4.248719 10.7701,12.153311 z m 44.9573,-21.836436 v 53.356 h 13.833 V 80.198639 c 0,-6.323674 4.3476,-10.473585 11.1653,-10.473585 5.9284,0 8.8926,3.260645 8.8926,9.584318 v 32.902868 h 13.8331 V 76.443958 c 0,-11.856889 -6.4225,-18.476985 -17.8842,-18.476985 -7.2129,0 -12.0545,2.568993 -16.0068,8.596244 V 58.85624 Z m 121.6319,53.356 h 13.833 V 40.181641 h -13.833 v 25.591117 c -3.4583,-5.3356 -8.0034,-7.805785 -14.7223,-7.805785 -12.7462,0 -22.4293,12.252118 -22.4293,28.357725 0,7.212941 2.1738,14.524692 5.7309,19.662672 3.6558,5.23679 10.1771,8.49744 16.6984,8.49744 6.7189,0 11.264,-2.37138 14.7223,-7.70698 z m -11.6593,-42.684801 c 7.0154,0 11.6593,6.718904 11.6593,16.994874 0,9.683125 -4.7428,16.402027 -11.6593,16.402027 -6.9165,0 -11.6592,-6.817709 -11.6592,-16.599642 0,-9.979548 4.7427,-16.797259 11.6592,-16.797259 z m 84.0852,41.005071 c -2.3714,-2.27257 -3.1619,-3.85349 -3.1619,-6.52129 V 74.369002 c 0,-10.868814 -7.4105,-16.402029 -21.8364,-16.402029 -14.4259,0 -21.9352,6.126059 -22.8245,18.476985 h 13.339 c 0.6916,-5.533215 2.9642,-7.311748 9.7819,-7.311748 5.3356,0 8.0034,1.778533 8.0034,5.3356 0,1.778533 -0.8892,3.260644 -2.3714,4.149911 -1.8773,0.988074 -1.8773,0.988074 -8.695,2.074955 l -5.5332,0.988074 c -10.5724,1.778533 -15.7104,7.212941 -15.7104,16.797259 0,9.584321 6.4225,16.006801 16.2044,16.006801 5.9285,0 11.2641,-2.47019 16.2044,-7.60817 0,2.76661 0.2965,3.75468 1.5809,5.3356 h 15.0188 z m -16.6985,-19.761479 c 0,8.0034 -3.9523,12.548539 -10.9676,12.548539 -4.6439,0 -7.5094,-2.47018 -7.5094,-6.42248 0,-4.149911 2.1738,-6.126059 7.9046,-7.311748 l 4.7428,-0.889266 c 3.6559,-0.691652 4.2487,-0.889267 5.8296,-1.679726 z m 49.3049,-30.82791 h -7.707 V 45.616048 h -13.8331 v 14.327073 h -6.8177 v 9.189089 h 6.8177 v 32.80406 c 0,8.39863 4.4464,12.54854 13.5367,12.54854 3.1618,0 5.4344,-0.29642 8.0034,-1.08688 v -9.68313 c -1.3833,0.19762 -2.075,0.29642 -3.1619,0.29642 -3.6558,0 -4.5451,-1.08688 -4.5451,-5.829633 V 69.13221 h 7.707 z m 55.4309,50.589389 c -2.3714,-2.27257 -3.1619,-3.85349 -3.1619,-6.52129 V 74.369002 c 0,-10.868814 -7.4105,-16.402029 -21.8364,-16.402029 -14.4259,0 -21.9353,6.126059 -22.8245,18.476985 h 13.339 c 0.6916,-5.533215 2.9642,-7.311748 9.7819,-7.311748 5.3356,0 8.0034,1.778533 8.0034,5.3356 0,1.778533 -0.8893,3.260644 -2.3714,4.149911 -1.8773,0.988074 -1.8773,0.988074 -8.695,2.074955 l -5.5332,0.988074 c -10.5724,1.778533 -15.7104,7.212941 -15.7104,16.797259 0,9.584321 6.4225,16.006801 16.2044,16.006801 5.9285,0 11.2641,-2.47019 16.2044,-7.60817 0,2.76661 0.2964,3.75468 1.5809,5.3356 h 15.0188 z m -16.6985,-19.761479 c 0,8.0034 -3.9523,12.548539 -10.9676,12.548539 -4.644,0 -7.5094,-2.47018 -7.5094,-6.42248 0,-4.149911 2.1738,-6.126059 7.9046,-7.311748 l 4.7428,-0.889266 c 3.6559,-0.691652 4.2487,-0.889267 5.8296,-1.679726 z"
       id="text2526"
       style="-inkscape-font-specification:'RobotoMono Nerd Font Mono Bold';fill:#ffffff;stroke-width:1.37232"
       transform="matrix(0.26458333,0,0,0.26458333,-687.17248,-251.2147)"
       aria-label="hidden data" />
  </g>
</svg>
