<svg xmlns="http://www.w3.org/2000/svg" width="796.727" height="1128.395" viewBox="0 0 210.801 298.555"><path d="M0 0h210v297H0Z" style="fill:#f0f0f0;stroke-width:1.32292" transform="translate(.4 1.555)"/><path d="m26.518-.422-.536.844c23.65 15.05 51.03 24.176 78.979 26.326 35.738 2.75 72.21-6.154 102.78-24.861C183.352 32.867 144.445 52 105 52 64.596 52 24.643 32.023.4-.3l-.8.6C24.04 32.889 64.266 53 105 53c40.734 0 80.96-20.112 105.4-52.7l-.668-.722c-30.875 19.648-68.204 28.98-104.693 26.174C77.256 23.615 50.027 14.538 26.518-.422Z" style="color:#000;fill:#303030;-inkscape-stroke:none" transform="translate(.4 1.555)"/><path d="m30.072-1.543-4.629 1.03 1.028 4.628a.5.5 0 0 0 .597.381.5.5 0 0 0 .38-.598L26.634.246l3.654-.812a.5.5 0 0 0 .379-.596.5.5 0 0 0-.596-.381z" style="color:#000;fill:#303030;stroke-linecap:round;-inkscape-stroke:none" transform="translate(.4 1.555)"/><path d="M104.5 0v3.125h1V0Zm0 4.125v4h1v-4zm0 5v4h1v-4z" style="color:#000;fill:#303030;stroke-dasharray:4,1;-inkscape-stroke:none" transform="translate(.4 1.555)"/></svg>