<svg xmlns="http://www.w3.org/2000/svg" width="802.34" height="1124.898" viewBox="0 0 212.286 297.629"><path d="M-470.147 2232h210v297h-210z" style="fill:#d0d0d0;stroke-width:1.32292" transform="matrix(-1 0 0 1 -260.147 -2231.686)"/><path d="M364.646 2232v13.125h1V2232ZM417.146 2232v8.75h1V2232ZM394.014 2232v8.75h1V2232ZM405.58 2232v8.75h1V2232ZM399.797 2232v13.125h1V2232Z" style="color:#000;fill:gray;-inkscape-stroke:none" transform="translate(-260.147 -2231.686)"/><path d="M417.146 2232v297h1v-297zM329.72 2232v297h1v-297zM434.72 2232v297h1v-297zM347.184 2232v297h1v-297z" style="color:#000;fill:gray;-inkscape-stroke:none" transform="translate(-260.147 -2231.686)"/><path d="M469.758 2231.686c-33.716 41.724-52.612 95.17-52.612 148.814 0 53.644 18.896 107.09 52.612 148.815l.853-.499c-18.476-47.035-27.446-97.785-26.215-148.304 1.082-44.342 9.998-88.482 26.215-129.766l-.93-.367c-16.26 41.393-25.2 85.65-26.285 130.11-1.206 49.496 7.422 99.183 25.098 145.43-32.226-41.135-50.348-93.156-50.348-145.419 0-53.41 18.82-106.644 52.39-148.186z" style="color:#000;fill:#303030;-inkscape-stroke:none" transform="translate(-260.147 -2231.686)"/><path d="m470.496 2249.672-4.348 1.894a.5.5 0 0 0-.257.659.5.5 0 0 0 .658.26l3.431-1.497 1.495 3.43a.5.5 0 0 0 .658.26.5.5 0 0 0 .258-.659z" style="color:#000;fill:#303030;stroke-linecap:round;-inkscape-stroke:none" transform="translate(-260.147 -2231.686)"/><path d="M461.396 2380v1h4v-1zm5 0v1h3.75v-1z" style="color:#000;fill:#303030;stroke-dasharray:4,1;-inkscape-stroke:none" transform="translate(-260.147 -2231.686)"/></svg>