<svg xmlns="http://www.w3.org/2000/svg" width="799.849" height="297mm" viewBox="0 0 211.627 297"><path d="M-470 2976h210v297h-210z" style="fill:#d0d0d0;stroke-width:1.32292" transform="matrix(-1 0 0 1 -260 -2976)"/><path d="M364.5 2976v13.125h1V2976ZM417 2976v8.75h1V2976ZM393.867 2976v8.75h1V2976ZM405.434 2976v8.75h1V2976ZM399.65 2976v13.125h1V2976Z" style="color:#000;fill:gray;-inkscape-stroke:none" transform="translate(-260 -2976)"/><path d="M417 2976v297h1v-297zM329.574 2976v297h1v-297zM434.574 2976v297h1v-297zM347.037 2976v297h1v-297zM461.25 3124v1H470v-1zM461.25 3050.25v1H470v-1zM461.25 3013.125v1H470v-1z" style="color:#000;fill:gray;-inkscape-stroke:none" transform="translate(-260 -2976)"/><path d="M469.709 3013.389c-4.26 5.272-6.647 12.02-6.647 18.798 0 6.78 2.386 13.527 6.647 18.8l.635-.385a40.89 40.89 0 0 1-3.25-18.393 40.813 40.813 0 0 1 3.25-13.795l-.688-.297a41.56 41.56 0 0 0-3.312 14.049c-.304 5.368.515 10.77 2.265 15.852-3.038-4.701-4.796-10.232-4.796-15.83 0-6.603 2.328-13.191 6.478-18.327z" style="color:#000;fill:#303030;-inkscape-stroke:none" transform="translate(-260 -2976)"/><path d="m470.283 3017.606-3.304 1.316a.375.375 0 0 0-.21.488.375.375 0 0 0 .487.21l2.61-1.04 1.036 2.608a.375.375 0 0 0 .489.21.375.375 0 0 0 .209-.488z" style="color:#000;fill:#303030;stroke-linecap:round;-inkscape-stroke:none" transform="translate(-260 -2976)"/><path d="M461.25 3031.688v1h4v-1zm5 0v1H470v-1z" style="color:#000;fill:#303030;stroke-dasharray:4,1;-inkscape-stroke:none" transform="translate(-260 -2976)"/></svg>