<svg xmlns="http://www.w3.org/2000/svg" width="800.132" height="1123.967" viewBox="0 0 211.702 297.383"><path d="M-210 3720H0v297h-210Z" style="fill:#d0d0d0;stroke-width:1.32292" transform="matrix(-1 0 0 1 0 -3719.617)"/><path d="M104.5 3720v13.125h1V3720ZM157 3720v8.75h1V3720ZM133.865 3720v8.75h1V3720ZM145.434 3720v8.75h1V3720ZM139.648 3720v13.125h1V3720Z" style="color:#000;fill:gray;-inkscape-stroke:none" transform="translate(0 -3719.617)"/><path d="M157 3720v297h1v-297zM69.574 3720v297h1v-297zM174.574 3720v297h1v-297zM87.037 3720v297h1v-297zM201.25 3868v1H210v-1zM201.25 3757.125v1H210v-1zM201.25 3794.25v1H210v-1zM201.25 3775.688v1H210v-1z" style="color:#000;fill:gray;-inkscape-stroke:none" transform="translate(0 -3719.617)"/><path d="M0 3784.969v1h210v-1z" style="color:#000;fill:gray;-inkscape-stroke:none" transform="translate(0 -3719.617)"/><path d="M209.678 3719.617c-5.578 4.699-8.928 11.902-8.928 19.195 0 7.294 3.35 14.497 8.928 19.196l.754-.635a32.36 32.36 0 0 1-4.309-18.525 32.252 32.252 0 0 1 4.309-13.893l-.864-.504a33.242 33.242 0 0 0-4.441 14.326c-.4 5.532.704 11.115 3.008 16.157-3.963-4.4-6.385-10.198-6.385-16.121 0-6.986 3.23-13.93 8.572-18.43z" style="color:#000;fill:#303030;-inkscape-stroke:none" transform="translate(0 -3719.617)"/><path d="m210.482 3723.877-4.587 1.201a.5.5 0 0 0-.358.612.5.5 0 0 0 .611.357l3.622-.95.947 3.622a.5.5 0 0 0 .611.355.5.5 0 0 0 .358-.61z" style="color:#000;fill:#303030;stroke-linecap:round;-inkscape-stroke:none" transform="translate(0 -3719.617)"/><path d="M201.25 3738.313v1h4v-1zm5 0v1H210v-1z" style="color:#000;fill:#303030;stroke-dasharray:4,1;-inkscape-stroke:none" transform="translate(0 -3719.617)"/></svg>