<svg xmlns="http://www.w3.org/2000/svg" width="513.012" height="1091.544" viewBox="0 0 135.734 288.804"><defs><path id="a" d="M13923.261 461.38h388.321v152.585h-388.321z"/></defs><path d="M694.687 4012.153v-287.306H560.452v287.306z" style="color:#000;fill:#f0f0f0;stroke-width:1.5;stroke-dasharray:6,1.5;-inkscape-stroke:none" transform="translate(-559.703 -3724.098)"/><path d="M559.703 3724.098v5.209h1.5v-3.71h.791v-1.5zm3.791 0v1.5h6v-1.5zm7.5 0v1.5h6v-1.5zm7.5 0v1.5h6v-1.5zm7.5 0v1.5h6v-1.5zm7.5 0v1.5h6v-1.5zm7.5 0v1.5h6v-1.5zm7.5 0v1.5h6v-1.5zm7.5 0v1.5h6v-1.5zm7.5 0v1.5h6v-1.5zm7.5 0v1.5h6v-1.5zm7.5 0v1.5h6v-1.5zm7.5 0v1.5h6v-1.5zm7.5 0v1.5h6v-1.5zm7.5 0v1.5h6v-1.5zm7.5 0v1.5h6v-1.5zm7.5 0v1.5h6v-1.5zm7.5 0v1.5h6v-1.5zm7.5 0v1.5h2.943v1.554h1.5v-3.054zm2.943 4.554v6h1.5v-6zm-134.234 2.155v6h1.5v-6zm134.235 5.345v6h1.5v-6zm-134.235 2.155v6h1.5v-6zm134.235 5.345v6h1.5v-6zm-134.235 2.155v6h1.5v-6zm134.235 5.345v6h1.5v-6zm-134.235 2.155v6h1.5v-6zm134.235 5.345v6h1.5v-6zm-134.235 2.155v6h1.5v-6zm134.235 5.345v6h1.5v-6zm-134.235 2.155v6h1.5v-6zm134.235 5.345v6h1.5v-6zm-134.235 2.155v6h1.5v-6zm134.235 5.345v6h1.5v-6zm-134.235 2.155v6h1.5v-6zm134.235 5.345v6h1.5v-6zm-134.235 2.155v6h1.5v-6zm134.235 5.345v6h1.5v-6zm-134.235 2.155v6h1.5v-6zm134.235 5.345v6h1.5v-6zm-134.235 2.155v6h1.5v-6zm134.235 5.345v6h1.5v-6zm-134.235 2.155v6h1.5v-6zm134.235 5.345v6h1.5v-6zm-134.235 2.155v6h1.5v-6zm134.235 5.345v6h1.5v-6zm-134.235 2.155v6h1.5v-6zm134.235 5.345v6h1.5v-6zm-134.235 2.155v6h1.5v-6zm134.235 5.345v6h1.5v-6zm-134.235 2.155v6h1.5v-6zm134.235 5.345v6h1.5v-6zm-134.235 2.155v6h1.5v-6zm134.235 5.345v6h1.5v-6zm-134.235 2.155v6h1.5v-6zm134.235 5.345v6h1.5v-6zm-134.235 2.155v6h1.5v-6zm134.235 5.345v6h1.5v-6zm-134.235 2.155v6h1.5v-6zm134.235 5.345v6h1.5v-6zm-134.235 2.155v6h1.5v-6zm134.235 5.345v6h1.5v-6zm-134.235 2.155v6h1.5v-6zm134.235 5.345v6h1.5v-6zm-134.235 2.155v6h1.5v-6zm134.235 5.345v6h1.5v-6zm-134.235 2.155v6h1.5v-6zm134.235 5.345v6h1.5v-6zm-134.235 2.155v6h1.5v-6zm134.235 5.345v6h1.5v-6zm-134.235 2.155v6h1.5v-6zm134.235 5.345v6h1.5v-6zm-134.235 2.155v6h1.5v-6zm134.235 5.345v6h1.5v-6zm-134.235 2.155v6h1.5v-6zm134.235 5.345v6h1.5v-6zm-134.235 2.155v6h1.5v-6zm134.235 5.345v6h1.5v-6zm-134.235 2.155v6h1.5v-6zm134.235 5.345v6h1.5v-6zm-134.235 2.155v6h1.5v-6zm134.235 5.345v6h1.5v-6zm-134.235 2.155v6h1.5v-6zm134.235 5.345v6h1.5v-6zm-134.235 2.155v6h1.5v-6zm134.235 5.345v6h1.5v-6zm-134.235 2.155v6h1.5v-6zm134.235 5.345v6h1.5v-6zm-134.235 2.155v6h1.5v-6zm134.235 5.345v6h1.5v-6zm-134.235 2.155v6h1.5v-6zm134.235 5.345v6h1.5v-6zm-134.235 2.155v6h1.5v-6zm134.235 5.345v5.25h-2.333v1.5h3.082v-.75h.75v-6zm-134.235 2.155v4.595h2.902v-1.5h-1.402v-3.095zm4.402 3.095v1.5h6v-1.5zm7.5 0v1.5h6v-1.5zm7.5 0v1.5h6v-1.5zm7.5 0v1.5h6v-1.5zm7.5 0v1.5h6v-1.5zm7.5 0v1.5h6v-1.5zm7.5 0v1.5h6v-1.5zm7.5 0v1.5h6v-1.5zm7.5 0v1.5h6v-1.5zm7.5 0v1.5h6v-1.5zm7.5 0v1.5h6v-1.5zm7.5 0v1.5h6v-1.5zm7.5 0v1.5h6v-1.5zm7.5 0v1.5h6v-1.5zm7.5 0v1.5h6v-1.5zm7.5 0v1.5h6v-1.5zm7.5 0v1.5h6v-1.5z" style="color:#000;fill:#0d805a;stroke-dasharray:6,1.5;-inkscape-stroke:none" transform="translate(-559.703 -3724.098)"/><path d="M560.451 3867.54v3.843h33.631v-3.844zM560.451 3938.885v3.843h33.631v-3.843zM560.451 3974.559v3.843h134.236v-3.843zM560.451 3796.193v3.844h33.631v-3.844z" style="color:#000;fill:gray;-inkscape-stroke:none" transform="translate(-559.703 -3724.098)"/><path d="M560.453 3759.559v3.843h15.375v-3.843zm19.219 0v3.843h15.377v-3.843zm19.22 0v3.843h15.376v-3.843zm19.22 0v3.843h15.376v-3.843zm19.22 0v3.843h15.377v-3.843zm19.22 0v3.843h15.376v-3.843zm19.22 0v3.843h15.376v-3.843z" style="color:#000;fill:#303030;stroke-dasharray:15.376,3.844;-inkscape-stroke:none" transform="translate(-559.703 -3724.098)"/><g aria-label="fold across entire page" style="font-size:32px;line-height:1.25;font-family:&quot;Noto Sans&quot;;-inkscape-font-specification:&quot;Noto Sans&quot;;letter-spacing:0;white-space:pre;shape-inside:url(#a);display:inline" transform="matrix(.26458 0 0 .26458 -3661.191 -71.501)"><path d="M13933.886 475.52h-4.32v14.977h-2.816V475.52h-3.008v-1.312l3.008-.96v-.992q0-3.328 1.472-4.768 1.472-1.472 4.096-1.472 1.024 0 1.856.192.864.16 1.472.384l-.736 2.208q-.512-.16-1.184-.32-.672-.16-1.376-.16-1.408 0-2.112.96-.672.928-.672 2.944v1.12h4.32zM13951.902 481.889q0 4.256-2.176 6.592-2.144 2.336-5.824 2.336-2.272 0-4.064-1.024-1.76-1.056-2.784-3.04-1.024-2.016-1.024-4.864 0-4.256 2.144-6.56 2.144-2.304 5.824-2.304 2.336 0 4.096 1.056 1.792 1.024 2.784 3.008 1.024 1.952 1.024 4.8zm-12.96 0q0 3.04 1.184 4.832 1.216 1.76 3.84 1.76 2.592 0 3.808-1.76 1.216-1.792 1.216-4.832t-1.216-4.768q-1.216-1.728-3.84-1.728-2.624 0-3.808 1.728-1.184 1.728-1.184 4.768zM13959.166 490.497h-2.816v-24.32h2.816zM13970.686 490.817q-3.2 0-5.12-2.208-1.92-2.24-1.92-6.656 0-4.416 1.92-6.656 1.952-2.272 5.152-2.272 1.984 0 3.232.736 1.28.736 2.08 1.792h.192q-.03-.416-.128-1.216-.06-.832-.06-1.312v-6.848h2.816v24.32h-2.272l-.416-2.304h-.128q-.768 1.088-2.048 1.856t-3.296.768zm.448-2.336q2.72 0 3.808-1.472 1.12-1.504 1.12-4.512v-.512q0-3.2-1.056-4.896-1.056-1.728-3.904-1.728-2.272 0-3.424 1.824-1.12 1.792-1.12 4.832 0 3.072 1.12 4.768 1.152 1.696 3.456 1.696zM13999.102 473.057q3.136 0 4.64 1.376 1.504 1.376 1.504 4.384v11.68h-2.048l-.544-2.432h-.128q-1.12 1.408-2.368 2.08-1.216.672-3.392.672-2.336 0-3.872-1.216-1.536-1.248-1.536-3.872 0-2.56 2.016-3.936 2.016-1.408 6.208-1.536l2.912-.096v-1.024q0-2.144-.928-2.976-.928-.832-2.624-.832-1.344 0-2.56.416-1.216.384-2.272.896l-.864-2.112q1.12-.608 2.656-1.024 1.536-.448 3.2-.448zm.832 9.152q-3.2.128-4.448 1.024-1.216.896-1.216 2.528 0 1.44.864 2.112.896.672 2.272.672 2.176 0 3.616-1.184 1.44-1.216 1.44-3.712v-1.536zM14017.438 490.817q-2.272 0-4.064-.928-1.76-.928-2.784-2.88-.992-1.952-.992-4.992 0-3.168 1.056-5.152t2.848-2.912q1.824-.928 4.128-.928 1.312 0 2.528.288 1.216.256 1.984.64l-.864 2.336q-.768-.288-1.792-.544-1.024-.256-1.92-.256-5.056 0-5.056 6.496 0 3.104 1.216 4.768 1.248 1.632 3.68 1.632 1.408 0 2.464-.288 1.088-.288 1.984-.704v2.496q-.864.448-1.92.672-1.024.256-2.496.256zM14033.918 473.025q.48 0 1.024.064.576.032.992.128l-.352 2.592q-.416-.096-.928-.16-.48-.064-.928-.064-1.312 0-2.464.736-1.152.704-1.856 2.016-.672 1.28-.672 3.008v9.152h-2.816v-17.152h2.304l.32 3.136h.128q.832-1.408 2.144-2.432 1.312-1.024 3.104-1.024zM14053.406 481.889q0 4.256-2.176 6.592-2.144 2.336-5.824 2.336-2.272 0-4.064-1.024-1.76-1.056-2.784-3.04-1.024-2.016-1.024-4.864 0-4.256 2.144-6.56 2.144-2.304 5.824-2.304 2.336 0 4.096 1.056 1.792 1.024 2.784 3.008 1.024 1.952 1.024 4.8zm-12.96 0q0 3.04 1.184 4.832 1.216 1.76 3.84 1.76 2.592 0 3.808-1.76 1.216-1.792 1.216-4.832t-1.216-4.768q-1.216-1.728-3.84-1.728-2.624 0-3.808 1.728-1.184 1.728-1.184 4.768zM14069.022 485.76q0 2.497-1.856 3.777-1.856 1.28-4.992 1.28-1.792 0-3.104-.288-1.28-.288-2.272-.8v-2.56q1.024.512 2.464.96 1.472.416 2.976.416 2.144 0 3.104-.672.96-.704.96-1.856 0-.64-.352-1.152-.352-.512-1.28-1.024-.896-.512-2.592-1.152-1.664-.64-2.848-1.28t-1.824-1.536q-.64-.896-.64-2.304 0-2.176 1.76-3.36 1.792-1.184 4.672-1.184 1.568 0 2.912.32 1.376.288 2.56.832l-.96 2.24q-1.088-.448-2.272-.768-1.184-.32-2.432-.32-1.728 0-2.656.576-.896.544-.896 1.504 0 .704.416 1.216.416.48 1.376.96.992.448 2.624 1.088 1.632.608 2.784 1.248t1.76 1.568q.608.896.608 2.272zM14084.35 485.76q0 2.497-1.856 3.777-1.856 1.28-4.992 1.28-1.792 0-3.104-.288-1.28-.288-2.272-.8v-2.56q1.024.512 2.464.96 1.472.416 2.976.416 2.144 0 3.104-.672.96-.704.96-1.856 0-.64-.352-1.152-.352-.512-1.28-1.024-.896-.512-2.592-1.152-1.664-.64-2.848-1.28t-1.824-1.536q-.64-.896-.64-2.304 0-2.176 1.76-3.36 1.792-1.184 4.672-1.184 1.568 0 2.912.32 1.376.288 2.56.832l-.96 2.24q-1.088-.448-2.272-.768-1.184-.32-2.432-.32-1.728 0-2.656.576-.896.544-.896 1.504 0 .704.416 1.216.416.48 1.376.96.992.448 2.624 1.088 1.632.608 2.784 1.248t1.76 1.568q.608.896.608 2.272zM14103.454 473.025q2.208 0 3.776.96 1.6.96 2.432 2.72.864 1.728.864 4.064v1.696h-11.744q.06 2.912 1.472 4.448 1.44 1.504 4 1.504 1.632 0 2.88-.288 1.28-.32 2.624-.896v2.464q-1.312.576-2.592.832-1.28.288-3.04.288-2.432 0-4.32-.992-1.856-.992-2.912-2.944-1.024-1.984-1.024-4.832 0-2.816.928-4.832.96-2.016 2.656-3.104 1.728-1.088 4-1.088zm-.03 2.304q-2.016 0-3.2 1.312-1.152 1.28-1.376 3.584h8.736q-.03-2.176-1.024-3.52-.992-1.376-3.136-1.376zM14123.134 473.025q3.072 0 4.64 1.504 1.568 1.472 1.568 4.8v11.168h-2.784V479.52q0-4.128-3.84-4.128-2.848 0-3.936 1.6t-1.088 4.608v8.896h-2.816v-17.152h2.272l.416 2.336h.16q.832-1.344 2.304-1.984 1.472-.672 3.104-.672zM14140.382 488.513q.64 0 1.312-.096.672-.128 1.088-.256v2.144q-.448.224-1.28.352-.832.16-1.6.16-1.344 0-2.496-.448-1.12-.48-1.824-1.632t-.704-3.232v-9.984h-2.432v-1.344l2.464-1.12 1.12-3.648h1.664v3.936h4.96v2.176h-4.96v9.92q0 1.568.736 2.336.768.736 1.952.736zM14147.646 466.913q.64 0 1.12.448.512.416.512 1.344 0 .896-.512 1.344-.48.448-1.12.448-.704 0-1.184-.448t-.48-1.344q0-.928.48-1.344.48-.448 1.184-.448zm1.376 6.432v17.152h-2.816v-17.152zM14162.462 473.025q.48 0 1.024.064.576.032.992.128l-.352 2.592q-.416-.096-.928-.16-.48-.064-.928-.064-1.312 0-2.464.736-1.152.704-1.856 2.016-.672 1.28-.672 3.008v9.152h-2.816v-17.152h2.304l.32 3.136h.128q.832-1.408 2.144-2.432 1.312-1.024 3.104-1.024zM14173.662 473.025q2.208 0 3.776.96 1.6.96 2.432 2.72.864 1.728.864 4.064v1.696h-11.744q.06 2.912 1.472 4.448 1.44 1.504 4 1.504 1.632 0 2.88-.288 1.28-.32 2.624-.896v2.464q-1.312.576-2.592.832-1.28.288-3.04.288-2.432 0-4.32-.992-1.856-.992-2.912-2.944-1.024-1.984-1.024-4.832 0-2.816.928-4.832.96-2.016 2.656-3.104 1.728-1.088 4-1.088zm-.03 2.304q-2.016 0-3.2 1.312-1.152 1.28-1.376 3.584h8.736q-.03-2.176-1.024-3.52-.992-1.376-3.136-1.376zM14201.566 473.025q3.168 0 5.088 2.208 1.952 2.208 1.952 6.656 0 4.384-1.952 6.656-1.92 2.272-5.12 2.272-1.984 0-3.296-.736-1.28-.768-2.016-1.76h-.192q.06.544.128 1.376.06.832.06 1.44v7.04h-2.816v-24.832h2.304l.384 2.336h.128q.768-1.12 2.016-1.888 1.248-.768 3.328-.768zm-.512 2.368q-2.624 0-3.712 1.472-1.056 1.472-1.12 4.48v.544q0 3.168 1.024 4.896 1.056 1.696 3.872 1.696 1.568 0 2.56-.864 1.024-.864 1.504-2.336.512-1.504.512-3.424 0-2.944-1.152-4.704-1.12-1.76-3.488-1.76zM14219.582 473.057q3.136 0 4.64 1.376 1.504 1.376 1.504 4.384v11.68h-2.048l-.544-2.432h-.128q-1.12 1.408-2.368 2.08-1.216.672-3.392.672-2.336 0-3.872-1.216-1.536-1.248-1.536-3.872 0-2.56 2.016-3.936 2.016-1.408 6.208-1.536l2.912-.096v-1.024q0-2.144-.928-2.976-.928-.832-2.624-.832-1.344 0-2.56.416-1.216.384-2.272.896l-.864-2.112q1.12-.608 2.656-1.024 1.536-.448 3.2-.448zm.832 9.152q-3.2.128-4.448 1.024-1.216.896-1.216 2.528 0 1.44.864 2.112.896.672 2.272.672 2.176 0 3.616-1.184 1.44-1.216 1.44-3.712v-1.536zM14237.118 473.025q1.696 0 3.04.64 1.376.64 2.336 1.952h.16l.384-2.272h2.24v17.44q0 3.68-1.888 5.536-1.856 1.856-5.792 1.856-3.776 0-6.176-1.088v-2.592q2.528 1.344 6.336 1.344 2.208 0 3.456-1.312 1.28-1.28 1.28-3.52v-.672q0-.384.03-1.088.03-.736.06-1.024h-.128q-1.728 2.592-5.312 2.592-3.328 0-5.216-2.336-1.856-2.336-1.856-6.528 0-4.096 1.856-6.496 1.888-2.432 5.184-2.432zm.384 2.368q-2.144 0-3.328 1.728-1.184 1.696-1.184 4.864t1.152 4.864q1.184 1.664 3.424 1.664 2.592 0 3.776-1.376 1.184-1.408 1.184-4.512v-.672q0-3.52-1.216-5.024-1.216-1.536-3.808-1.536zM14257.342 473.025q2.208 0 3.776.96 1.6.96 2.432 2.72.864 1.728.864 4.064v1.696h-11.744q.06 2.912 1.472 4.448 1.44 1.504 4 1.504 1.632 0 2.88-.288 1.28-.32 2.624-.896v2.464q-1.312.576-2.592.832-1.28.288-3.04.288-2.432 0-4.32-.992-1.856-.992-2.912-2.944-1.024-1.984-1.024-4.832 0-2.816.928-4.832.96-2.016 2.656-3.104 1.728-1.088 4-1.088zm-.03 2.304q-2.016 0-3.2 1.312-1.152 1.28-1.376 3.584h8.736q-.03-2.176-1.024-3.52-.992-1.376-3.136-1.376z"/></g><path d="m562.473 3724.152-1.252 1.46c10.288 8.845 16.478 22.335 16.478 35.904 0 13.568-6.19 27.058-16.478 35.904l1.252 1.459c10.73-9.226 17.15-23.212 17.15-37.363 0-14.152-6.42-28.137-17.15-37.364z" style="color:#000;fill:#303030;-inkscape-stroke:none" transform="translate(-559.703 -3724.098)"/><path d="M562.166 3789.373a.961.961 0 0 0-1.03.887l-.685 9.09 9.09.683a.961.961 0 0 0 1.031-.885.961.961 0 0 0-.886-1.03l-7.174-.542.54-7.172a.961.961 0 0 0-.886-1.031z" style="color:#000;fill:#303030;stroke-linecap:round;-inkscape-stroke:none" transform="translate(-559.703 -3724.098)"/></svg>