<svg xmlns="http://www.w3.org/2000/svg" width="804.848" height="1089.333" viewBox="0 0 212.949 288.219"><path d="M2.949 5217.032v287.717h210v-287.717z" style="fill:#f0f0f0;fill-opacity:1;stroke:none;stroke-width:1.32292" transform="translate(0 -5216.781)"/><path d="M54.957 5216.781V5505h.984v-288.219zM142.38 5216.781V5505h.987v-288.219zM37.38 5216.781V5505h.987v-288.219zM124.92 5216.781V5505h.984v-288.219zM2.95 5355.5v1h8.75v-1zM2.95 5244.625v1h8.75v-1zM2.95 5281.75v1h8.75v-1zM2.95 5263.188v1h8.75v-1z" style="color:#000;fill:gray;-inkscape-stroke:none" transform="translate(0 -5216.781)"/><path d="M2.95 5272.469v1h210v-1z" style="color:#000;fill:gray;-inkscape-stroke:none" transform="translate(0 -5216.781)"/><path d="M2.95 5393.123v1H6.7v-1zm4.75 0v1h4v-1z" style="color:#000;fill:#303030;stroke-dasharray:4,1;-inkscape-stroke:none" transform="translate(0 -5216.781)"/><path d="m3.402 5282.285-.945.305a533.79 533.79 0 0 1 8.742 111.021 533.583 533.583 0 0 1-8.742 83.266l.984.182a534.582 534.582 0 0 0 8.758-83.422c.936-35.943-1.857-71.963-8.146-107.364 15.2 33.615 23.234 70.457 23.234 107.35 0 38.189-8.532 76.358-24.79 110.912l.903.426c16.323-34.69 24.887-73 24.887-111.338 0-38.338-8.562-76.648-24.885-111.338z" style="color:#000;fill:#303030;-inkscape-stroke:none" transform="translate(0 -5216.781)"/><path d="M.592 5473.225a.5.5 0 0 0-.375.08.5.5 0 0 0-.13.695l2.688 3.908 3.909-2.685a.5.5 0 0 0 .129-.696.5.5 0 0 0-.696-.129l-3.086 2.12-2.119-3.084a.5.5 0 0 0-.32-.21z" style="color:#000;fill:#303030;stroke-linecap:round;-inkscape-stroke:none" transform="translate(0 -5216.781)"/><path d="M2.696 5217.532h210v9.28h-210Z" style="fill:#d0d0d0;stroke-dasharray:4,1" transform="matrix(1 0 .00005 1 0 -5216.781)"/><path d="M2.95 5217.031v1h210v-1z" style="color:#000;fill:gray;-inkscape-stroke:none" transform="translate(0 -5216.781)"/><path d="M54.95 5217.531v9.28h1v-9.28zM37.375 5217.531v9.28h1v-9.28zM124.912 5217.527v9.28h1v-9.28zM142.375 5217.531v9.28h1v-9.28zM72.299 5217.531v9.28h1v-9.28zM107.45 5217.531v9.28h1v-9.28zM78.082 5217.531l.002 8.75h1l-.002-8.75zM66.516 5217.531v8.75h1v-8.75z" style="color:#000;fill:gray;-inkscape-stroke:none" transform="translate(0 -5216.781)"/><path d="M72.166 5217.494v9.227h1v-9.227zM2.95 5226.313v1h8.75v-1zM54.973 5217.13l-17.463 55.688.953.3 17.463-55.688zM142.396 5217.13l-17.462 55.688.955.3 17.463-55.688z" style="color:#000;fill:gray;-inkscape-stroke:none" transform="translate(0 -5216.781)"/></svg>