<svg xmlns="http://www.w3.org/2000/svg" width="793.702" height="1096.644" viewBox="0 0 210 290.154"><path d="M0 5961.032v287.717h210v-287.717z" style="fill:#f0f0f0;fill-opacity:1;stroke:none;stroke-width:1.32292" transform="translate(0 -5960.031)"/><path d="M52.008 5960.781V6249h.986v-288.219zM139.434 5960.781V6249h.984v-288.219zM34.434 5960.781V6249h.984v-288.219zM121.97 5960.781V6249h.985v-288.219zM0 6099.5v1h8.75v-1zM0 5988.625v1h8.75v-1zM0 6025.75v1h8.75v-1zM0 6007.188v1h8.75v-1z" style="color:#000;fill:gray;-inkscape-stroke:none" transform="translate(0 -5960.031)"/><path d="M0 6016.469v1h210v-1z" style="color:#000;fill:gray;-inkscape-stroke:none" transform="translate(0 -5960.031)"/><path d="m52.023 5961.13-17.462 55.688.955.3 17.463-55.688zM139.45 5961.13l-17.464 55.688.953.3 17.463-55.688zM0 6137.123v1h8.75v-1zM0 6174.498v1h8.75v-1zM0 6155.918v1h210v-1z" style="color:#000;fill:gray;-inkscape-stroke:none" transform="translate(0 -5960.031)"/><path d="M-.288 5960.532h210v9.28h-210Z" style="fill:#d0d0d0;stroke-dasharray:4,1" transform="matrix(1 0 .00005 1 0 -5960.031)"/><path d="M0 5960.031v1h210v-1z" style="color:#000;fill:gray;-inkscape-stroke:none" transform="translate(0 -5960.031)"/><path d="m52 5960.531.002 9.28h1l-.002-9.28ZM34.426 5960.531v9.28h1v-9.28zM121.963 5960.527v9.28h1v-9.28zM139.426 5960.531v9.28h1v-9.28zM69.352 5960.531v9.28h1v-9.28zM104.5 5960.531l.002 9.28h1l-.002-9.28zM75.135 5960.531v8.75h1v-8.75zM63.568 5960.531v8.75h1v-8.75z" style="color:#000;fill:gray;-inkscape-stroke:none" transform="translate(0 -5960.031)"/><path d="M69.219 5960.494v9.227h1v-9.227zM0 5969.313v1h8.75v-1z" style="color:#000;fill:gray;-inkscape-stroke:none" transform="translate(0 -5960.031)"/><path d="M96.213 6225.166c-17.318 0-34.36 9-44.125 23.3l.826.565c9.57-14.015 26.328-22.865 43.299-22.865 16.05 0 31.832 7.977 41.601 20.691-12.358-7.651-27.146-11.315-41.64-10.148a68.937 68.937 0 0 0-33.026 11.627l.561.826a67.955 67.955 0 0 1 32.545-11.457c15.196-1.223 30.78 2.892 43.39 11.457l.694-.695c-9.766-14.302-26.808-23.301-44.125-23.301z" style="color:#000;fill:#303030;-inkscape-stroke:none" transform="translate(0 -5960.031)"/><path d="M64.111 6244.23a.5.5 0 0 0-.584.399l-.89 4.658 4.658.889a.5.5 0 0 0 .586-.397.5.5 0 0 0-.399-.586l-3.675-.7.703-3.677a.5.5 0 0 0-.399-.586z" style="color:#000;fill:#303030;stroke-linecap:round;-inkscape-stroke:none" transform="translate(0 -5960.031)"/><path d="M95.713 6239.998v4h1v-4zm0 5v3.75h1v-3.75z" style="color:#000;fill:#303030;stroke-dasharray:4,1;-inkscape-stroke:none" transform="translate(0 -5960.031)"/></svg>