<svg xmlns="http://www.w3.org/2000/svg" width="793.701" height="1128.396" viewBox="0 0 210 298.555"><path d="M520 0h210v297H520Z" style="fill:#f0f0f0;stroke-width:1.32292" transform="translate(-520 1.555)"/><path d="M572 0v8.75h1V0ZM624.5 0v13.125h1V0Z" style="color:#000;fill:gray;-inkscape-stroke:none" transform="translate(-520 1.555)"/><path d="m579.33-.422-.535.844c7.836 4.986 17.296 7.35 26.557 6.639 5.95-.458 11.759-2.236 17.025-5.041-6.052 6.519-14.723 10.605-23.627 10.605-9.978 0-19.863-4.944-25.85-12.926l-.8.602c6.184 8.245 16.343 13.324 26.65 13.324 10.307 0 20.466-5.079 26.65-13.324l-.668-.723a42.505 42.505 0 0 1-19.459 6.486c-9.039.696-18.294-1.619-25.943-6.486Z" style="color:#000;fill:#303030;-inkscape-stroke:none" transform="translate(-520 1.555)"/><path d="m582.885-1.543-4.63 1.03 1.028 4.628a.5.5 0 0 0 .598.381.5.5 0 0 0 .379-.598l-.813-3.652 3.655-.812a.5.5 0 0 0 .378-.596.5.5 0 0 0-.595-.381z" style="color:#000;fill:#303030;stroke-linecap:round;-inkscape-stroke:none" transform="translate(-520 1.555)"/><path d="M598.25 0v3.75h1V0Zm0 4.75v4h1v-4z" style="color:#000;fill:#303030;stroke-dasharray:4,1;-inkscape-stroke:none" transform="translate(-520 1.555)"/></svg>