<svg xmlns="http://www.w3.org/2000/svg" width="795.214" height="1128.395" viewBox="0 0 210.4 298.555"><path d="M520 744h210v297H520Z" style="fill:#f0f0f0;stroke-width:1.32292" transform="translate(-519.6 -742.445)"/><path d="M624.5 744v13.125h1V744ZM572 744v8.75h1V744ZM595.133 744v8.75h1V744ZM583.566 744v8.75h1V744ZM589.35 744v13.125h1V744Z" style="color:#000;fill:gray;-inkscape-stroke:none" transform="translate(-519.6 -742.445)"/><path d="M572 744v4h1v-4zm0 5v4h1v-4zm0 5v4h1v-4zm0 5v4h1v-4zm0 5v4h1v-4zm0 5v4h1v-4zm0 5v4h1v-4zm0 5v4h1v-4zm0 5v4h1v-4zm0 5v4h1v-4zm0 5v4h1v-4zm0 5v4h1v-4zm0 5v4h1v-4zm0 5v4h1v-4zm0 5v4h1v-4zm0 5v4h1v-4zm0 5v4h1v-4zm0 5v4h1v-4zm0 5v4h1v-4zm0 5v4h1v-4zm0 5v4h1v-4zm0 5v4h1v-4zm0 5v4h1v-4zm0 5v4h1v-4zm0 5v4h1v-4zm0 5v4h1v-4zm0 5v4h1v-4zm0 5v4h1v-4zm0 5v4h1v-4zm0 5v4h1v-4zm0 5v4h1v-4zm0 5v4h1v-4zm0 5v4h1v-4zm0 5v4h1v-4zm0 5v4h1v-4zm0 5v4h1v-4zm0 5v4h1v-4zm0 5v4h1v-4zm0 5v4h1v-4zm0 5v4h1v-4zm0 5v4h1v-4zm0 5v4h1v-4zm0 5v4h1v-4zm0 5v4h1v-4zm0 5v4h1v-4zm0 5v4h1v-4zm0 5v4h1v-4zm0 5v4h1v-4zm0 5v4h1v-4zm0 5v4h1v-4zm0 5v4h1v-4zm0 5v4h1v-4zm0 5v4h1v-4zm0 5v4h1v-4zm0 5v4h1v-4zm0 5v4h1v-4zm0 5v4h1v-4zm0 5v4h1v-4zm0 5v4h1v-4zm0 5v2h1v-2z" style="color:#000;fill:#303030;stroke-dasharray:4,1;-inkscape-stroke:none" transform="translate(-519.6 -742.445)"/><path d="m533.393 743.578-.536.844a86.468 86.468 0 0 0 39.604 13.201c17.438 1.341 35.21-2.87 50.28-11.736-12.192 14.764-31.08 23.863-50.241 23.863-20.12 0-40.028-9.955-52.1-26.05l-.8.6c12.27 16.36 32.45 26.45 52.9 26.45 20.45 0 40.63-10.09 52.9-26.45l-.668-.722c-15.39 9.794-34.004 14.448-52.193 13.049a85.496 85.496 0 0 1-39.146-13.049z" style="color:#000;fill:#303030;-inkscape-stroke:none" transform="translate(-519.6 -742.445)"/><path d="m536.947 742.457-4.629 1.03 1.028 4.628a.5.5 0 0 0 .597.381.5.5 0 0 0 .38-.598l-.813-3.652 3.654-.812a.5.5 0 0 0 .379-.596.5.5 0 0 0-.596-.381z" style="color:#000;fill:#303030;stroke-linecap:round;-inkscape-stroke:none" transform="translate(-519.6 -742.445)"/></svg>