<svg xmlns="http://www.w3.org/2000/svg" width="794.387" height="1133.239" viewBox="0 0 210.182 299.836"><path d="M0 1488h210v297H0Z" style="fill:#f0f0f0;stroke-width:1.32292" transform="translate(0 -1485.164)"/><path d="M104.5 1488v13.125h1V1488ZM52 1488v8.75h1V1488ZM75.133 1488v8.75h1V1488ZM63.566 1488v8.75h1V1488ZM69.35 1488v13.125h1V1488Z" style="color:#000;fill:gray;-inkscape-stroke:none" transform="translate(0 -1485.164)"/><path d="M52 1488v297h1v-297z" style="color:#000;fill:gray;-inkscape-stroke:none" transform="translate(0 -1485.164)"/><path d="m69.959 1487.512-.29.955a194.669 194.669 0 0 0 70.257 13.158c23.963 0 47.917-4.486 70.256-13.158l-.364-.934a193.672 193.672 0 0 1-69.892 13.092c-21.422 0-42.776-3.794-63.024-10.785 20.746 4.03 41.914 5.874 63.037 5.222a284.737 284.737 0 0 0 52.65-6.574l-.216-.976a283.709 283.709 0 0 1-52.463 6.55 283.88 283.88 0 0 1-69.951-6.55z" style="color:#000;fill:#303030;-inkscape-stroke:none" transform="translate(0 -1485.164)"/><path d="M189.418 1485.242a.5.5 0 0 0-.691.154.5.5 0 0 0 .152.69l3.156 2.014-2.014 3.154a.5.5 0 0 0 .155.691.5.5 0 0 0 .69-.154l2.55-3.998z" style="color:#000;fill:#303030;stroke-linecap:round;-inkscape-stroke:none" transform="translate(0 -1485.164)"/><path d="M139.426 1488v4h1v-4zm0 5v4h1v-4zm0 5v4h1v-4zm0 5v4h1v-4zm0 5v4h1v-4zm0 5v4h1v-4zm0 5v4h1v-4zm0 5v4h1v-4zm0 5v4h1v-4zm0 5v4h1v-4zm0 5v4h1v-4zm0 5v4h1v-4zm0 5v4h1v-4zm0 5v4h1v-4zm0 5v4h1v-4zm0 5v4h1v-4zm0 5v4h1v-4zm0 5v4h1v-4zm0 5v4h1v-4zm0 5v4h1v-4zm0 5v4h1v-4zm0 5v4h1v-4zm0 5v4h1v-4zm0 5v4h1v-4zm0 5v4h1v-4zm0 5v4h1v-4zm0 5v4h1v-4zm0 5v4h1v-4zm0 5v4h1v-4zm0 5v4h1v-4zm0 5v4h1v-4zm0 5v4h1v-4zm0 5v4h1v-4zm0 5v4h1v-4zm0 5v4h1v-4zm0 5v4h1v-4zm0 5v4h1v-4zm0 5v4h1v-4zm0 5v4h1v-4zm0 5v4h1v-4zm0 5v4h1v-4zm0 5v4h1v-4zm0 5v4h1v-4zm0 5v4h1v-4zm0 5v4h1v-4zm0 5v4h1v-4zm0 5v4h1v-4zm0 5v4h1v-4zm0 5v4h1v-4zm0 5v4h1v-4zm0 5v4h1v-4zm0 5v4h1v-4zm0 5v4h1v-4zm0 5v4h1v-4zm0 5v4h1v-4zm0 5v4h1v-4zm0 5v4h1v-4zm0 5v4h1v-4zm0 5v4h1v-4zm0 5v2h1v-2z" style="color:#000;fill:#303030;stroke-dasharray:4,1;-inkscape-stroke:none" transform="translate(0 -1485.164)"/></svg>