<svg xmlns="http://www.w3.org/2000/svg" width="794.948" height="1130.366" viewBox="0 0 210.33 299.076"><path d="M-730 1488h210v297h-210z" style="fill:#d0d0d0;stroke-width:1.32292" transform="matrix(-1 0 0 1 -520 -1485.924)"/><path d="M624.5 1488v13.125h1V1488ZM677 1488v8.75h1V1488ZM653.867 1488v8.75h1V1488ZM665.434 1488v8.75h1V1488ZM659.65 1488v13.125h1V1488Z" style="color:#000;fill:gray;-inkscape-stroke:none" transform="translate(-520 -1485.924)"/><path d="M677 1488v297h1v-297zM589.574 1488v297h1v-297z" style="color:#000;fill:gray;-inkscape-stroke:none" transform="translate(-520 -1485.924)"/><path d="m660.36 1487.545-.54.832c9.657 8.452 22.42 13.248 35.254 13.248 12.833 0 25.6-4.796 35.256-13.248l-.66-.754c-9.47 8.288-22.012 13.002-34.596 13.002-11.314 0-22.472-3.979-31.515-10.771 9.994 3.966 20.81 5.85 31.546 5.209a73.817 73.817 0 0 0 26.374-6.608l-.418-.91a72.829 72.829 0 0 1-26.016 6.518 72.974 72.974 0 0 1-34.686-6.518z" style="color:#000;fill:#000;-inkscape-stroke:none" transform="translate(-520 -1485.924)"/><path d="M717.69 1485.955a.5.5 0 0 0-.643.295.5.5 0 0 0 .297.643l3.51 1.298-1.3 3.51a.5.5 0 0 0 .298.643.5.5 0 0 0 .642-.295l1.645-4.45z" style="color:#000;fill:#000;stroke-linecap:round;-inkscape-stroke:none" transform="translate(-520 -1485.924)"/><path d="M694.574 1488v4h1v-4zm0 5v4h1v-4zm0 5v4h1v-4zm0 5v4h1v-4zm0 5v4h1v-4zm0 5v4h1v-4zm0 5v4h1v-4zm0 5v4h1v-4zm0 5v4h1v-4zm0 5v4h1v-4zm0 5v4h1v-4zm0 5v4h1v-4zm0 5v4h1v-4zm0 5v4h1v-4zm0 5v4h1v-4zm0 5v4h1v-4zm0 5v4h1v-4zm0 5v4h1v-4zm0 5v4h1v-4zm0 5v4h1v-4zm0 5v4h1v-4zm0 5v4h1v-4zm0 5v4h1v-4zm0 5v4h1v-4zm0 5v4h1v-4zm0 5v4h1v-4zm0 5v4h1v-4zm0 5v4h1v-4zm0 5v4h1v-4zm0 5v4h1v-4zm0 5v4h1v-4zm0 5v4h1v-4zm0 5v4h1v-4zm0 5v4h1v-4zm0 5v4h1v-4zm0 5v4h1v-4zm0 5v4h1v-4zm0 5v4h1v-4zm0 5v4h1v-4zm0 5v4h1v-4zm0 5v4h1v-4zm0 5v4h1v-4zm0 5v4h1v-4zm0 5v4h1v-4zm0 5v4h1v-4zm0 5v4h1v-4zm0 5v4h1v-4zm0 5v4h1v-4zm0 5v4h1v-4zm0 5v4h1v-4zm0 5v4h1v-4zm0 5v4h1v-4zm0 5v4h1v-4zm0 5v4h1v-4zm0 5v4h1v-4zm0 5v4h1v-4zm0 5v4h1v-4zm0 5v4h1v-4zm0 5v4h1v-4zm0 5v2h1v-2z" style="color:#000;fill:#303030;stroke-dasharray:4,1;-inkscape-stroke:none" transform="translate(-520 -1485.924)"/></svg>