<svg xmlns="http://www.w3.org/2000/svg" xmlns:xlink="http://www.w3.org/1999/xlink" width="346.802" height="224.53">
   <defs>
      <linearGradient id="a">
         <stop offset="0" stop-color="#0073e5" />
         <stop offset="1" stop-color="#00ace5" />
      </linearGradient>
      <linearGradient xlink:href="#a" id="d" x1="1124.14" x2="1409.853" y1="374.336" y2="374.336"
         gradientTransform="translate(-12.001 -762.213) scale(1.0175)" gradientUnits="userSpaceOnUse" />
      <linearGradient xlink:href="#a" id="b" x1="1124.14" x2="1409.853" y1="374.336" y2="374.336"
         gradientTransform="translate(-12.001 -762.213) scale(1.0175)" gradientUnits="userSpaceOnUse" />
      <linearGradient xlink:href="#a" id="c" x1="1124.14" x2="1409.853" y1="374.336" y2="374.336"
         gradientTransform="translate(-12.001 -762.213) scale(1.0175)" gradientUnits="userSpaceOnUse" />
   </defs>
   <g font-family="Noto Sans" font-size="72" letter-spacing=".729"
      style="-inkscape-font-specification:&quot;Noto Sans&quot;;white-space:pre">
      <path
         d="m34.27 55.542-7.43 8.153v20.698H13.236V14.147h13.606v32.18l6.368-8.588 17.08-23.592h16.596l-23.64 31.07 24.508 39.176H51.64zm96.286 28.851h-13.509L97.507 39.09v45.303H83.855V14.147h13.654l19.394 45.11.049-45.11h13.605zm73.61-29.961q0 6.755-1.785 12.448-1.785 5.693-5.162 9.794-3.378 4.1-8.25 6.416-4.825 2.268-10.904 2.268t-10.807-2.268q-4.728-2.316-7.96-6.416-3.233-4.15-4.922-9.794-1.688-5.693-1.688-12.448V44.204q0-6.754 1.688-12.447 1.689-5.693 4.921-9.794 3.233-4.15 7.913-6.465 4.728-2.316 10.807-2.316 6.127 0 10.952 2.316 4.872 2.316 8.25 6.465 3.377 4.1 5.162 9.794 1.785 5.693 1.785 12.447zm-13.75-10.324q0-4.294-.724-7.913-.675-3.618-2.17-6.223-1.496-2.606-3.86-4.053-2.316-1.496-5.645-1.496-3.281 0-5.5 1.496-2.22 1.447-3.57 4.053-1.351 2.605-1.93 6.223-.58 3.619-.58 7.913v10.324q0 4.246.58 7.864.579 3.619 1.93 6.272 1.35 2.654 3.57 4.15 2.219 1.495 5.548 1.495 3.28 0 5.596-1.496 2.365-1.495 3.812-4.1 1.496-2.654 2.22-6.272.723-3.619.723-7.913zm69.991 12.351 5.114-42.312h12.448l-9.746 70.246H255.97L249.31 42.9l-6.417 41.492H230.64l-9.65-70.246h12.4l5.017 42.022 5.983-42.022h9.697zM27.854 200.396h32.904v10.952h-46.51v-70.246h13.606zm99.614-19.829h-28.85v19.83h33.723v10.95H85.012v-70.245h47.184v11.048H98.617v17.707h28.851zm62.224 16.114H168.61l-4.15 14.667h-14.28l23.013-70.246h12.303l22.579 70.246h-14.28zm-17.754-11.53h14.57l-7.189-25.86zm75.057-2.654-7.43 8.154v20.697H225.96v-70.246h13.605v32.18l6.369-8.588 17.079-23.592h16.596l-23.64 31.07 24.509 39.176h-16.114zm86.443 10.518q0-1.882-.675-3.522-.627-1.64-2.22-3.04-1.543-1.447-4.1-2.605-2.51-1.206-6.272-2.22-4.584-1.254-8.781-3.135-4.15-1.882-7.333-4.536-3.185-2.653-5.114-6.175-1.882-3.522-1.882-8.105 0-4.439 1.882-8.057 1.881-3.619 5.21-6.176 3.33-2.557 7.864-3.908 4.535-1.399 9.842-1.399 5.5 0 10.035 1.592 4.584 1.592 7.865 4.487 3.28 2.847 5.114 6.803 1.833 3.956 1.833 8.684h-13.22q-.096-2.364-.868-4.342-.724-1.978-2.22-3.377-1.447-1.448-3.666-2.22-2.17-.82-5.114-.82-2.702 0-4.824.676-2.075.627-3.522 1.833-1.448 1.158-2.22 2.798-.723 1.592-.723 3.474 0 1.978.965 3.57 1.013 1.592 2.894 2.895 1.882 1.254 4.535 2.316 2.702 1.061 6.08 1.978 4.824 1.399 8.877 3.425 4.052 2.027 6.947 4.825 2.943 2.75 4.535 6.32 1.64 3.522 1.64 7.864 0 4.632-1.881 8.25-1.834 3.57-5.114 6.08-3.28 2.46-7.816 3.762-4.535 1.255-9.89 1.255-3.33 0-6.658-.628-3.281-.579-6.32-1.833-2.992-1.254-5.597-3.136-2.605-1.881-4.535-4.39-1.882-2.509-2.991-5.693-1.062-3.184-1.062-7.044h13.316q.097 3.184 1.11 5.452 1.013 2.267 2.798 3.715 1.833 1.447 4.342 2.122 2.557.676 5.597.676 2.701 0 4.776-.627 2.123-.628 3.57-1.737 1.447-1.11 2.22-2.654.771-1.592.771-3.473z"
         aria-label="KNOW LEAKS" style="-inkscape-font-specification:&quot;RobotoMono Nerd Font Mono Bold&quot;" />
   </g>
   <path fill="none" stroke="url(#b)" stroke-dasharray="26.393 6.598" stroke-width="6.598"
      d="M1135.11-490.293h284.115v217.932H1135.11z" transform="matrix(1 0 0 -1 -1131.811 -269.062)" />
   <path fill="none" stroke="url(#c)" stroke-dasharray="26.393 6.598" stroke-width="6.598"
      d="M1135.11-490.293h284.115v217.932H1135.11z" transform="matrix(1 0 0 -1 -1131.811 -269.062)" />
   <path fill="none" stroke="url(#d)" stroke-dasharray="26.393 6.598" stroke-width="6.598"
      d="M1135.11-490.293h284.115v217.932H1135.11z" transform="matrix(1 0 0 -1 -1131.811 -269.062)" />
</svg>
