<?xml version="1.0" encoding="UTF-8" standalone="no"?>
<svg
   width="391.54327"
   height="250.63902"
   version="1.1"
   id="svg5"
   sodipodi:docname="logo-know.svg"
   inkscape:version="1.3.2 (091e20ef0f, 2023-11-25, custom)"
   xmlns:inkscape="http://www.inkscape.org/namespaces/inkscape"
   xmlns:sodipodi="http://sodipodi.sourceforge.net/DTD/sodipodi-0.dtd"
   xmlns:xlink="http://www.w3.org/1999/xlink"
   xmlns="http://www.w3.org/2000/svg"
   xmlns:svg="http://www.w3.org/2000/svg">
  <sodipodi:namedview
     id="namedview5"
     pagecolor="#504b4b"
     bordercolor="#111111"
     borderopacity="1"
     inkscape:showpageshadow="0"
     inkscape:pageopacity="0"
     inkscape:pagecheckerboard="true"
     inkscape:deskcolor="#ffffff"
     showgrid="false"
     showguides="true"
     inkscape:zoom="0.6213655"
     inkscape:cx="494.87781"
     inkscape:cy="-78.053899"
     inkscape:window-width="1680"
     inkscape:window-height="1006"
     inkscape:window-x="0"
     inkscape:window-y="0"
     inkscape:window-maximized="1"
     inkscape:current-layer="svg5" />
  <defs
     id="defs2">
    <rect
       x="-247.40234"
       y="-185.00781"
       width="276.82031"
       height="297.2728"
       id="rect10" />
    <rect
       x="17.328125"
       y="25.726562"
       width="266.42578"
       height="178.64767"
       id="rect9" />
    <linearGradient
       id="a">
      <stop
         offset="0"
         stop-color="#0073e5"
         id="stop1" />
      <stop
         offset="1"
         stop-color="#00ace5"
         id="stop2" />
    </linearGradient>
    <linearGradient
       xlink:href="#a"
       id="d"
       x1="1124.14"
       x2="1409.853"
       y1="374.336"
       y2="374.336"
       gradientTransform="matrix(1.0175,0,0,-1.0175,-1143.812,493.151)"
       gradientUnits="userSpaceOnUse" />
    <linearGradient
       xlink:href="#a"
       id="b"
       x1="1124.14"
       x2="1409.853"
       y1="374.336"
       y2="374.336"
       gradientTransform="matrix(1.0175,0,0,-1.0175,-1143.812,493.151)"
       gradientUnits="userSpaceOnUse" />
    <linearGradient
       xlink:href="#a"
       id="c"
       x1="1124.14"
       x2="1409.853"
       y1="374.336"
       y2="374.336"
       gradientTransform="matrix(1.0175,0,0,-1.0175,-1143.812,493.151)"
       gradientUnits="userSpaceOnUse" />
    <linearGradient
       xlink:href="#a"
       id="b-3"
       x1="1124.14"
       x2="1409.853"
       y1="374.336"
       y2="374.336"
       gradientTransform="matrix(1.0175,0,0,-1.0175,-1479.1764,434.08527)"
       gradientUnits="userSpaceOnUse" />
    <linearGradient
       xlink:href="#a"
       id="d-5"
       x1="1124.14"
       x2="1409.853"
       y1="374.336"
       y2="374.336"
       gradientTransform="matrix(1.0175,0,0,-1.0175,-1261.124,493.151)"
       gradientUnits="userSpaceOnUse" />
    <linearGradient
       inkscape:collect="always"
       xlink:href="#a"
       id="linearGradient8"
       gradientUnits="userSpaceOnUse"
       gradientTransform="matrix(1.0174999,0,0,-1.0175001,-1143.8122,493.15107)"
       x1="1124.14"
       y1="374.336"
       x2="1409.853"
       y2="374.336" />
  </defs>
  <path
     id="rect8"
     style="fill:none;fill-rule:evenodd;stroke:url(#linearGradient8);stroke-width:9.89996;stroke-linecap:round;stroke-linejoin:round;stroke-dasharray:39.5998, 19.7999;paint-order:stroke fill markers;stop-color:#000000"
     d="m 17.45,4.9499991 h 296.12341 c 6.925,0 12.5,5.5749999 12.5,12.4999999 V 233.1447 c 0,6.925 -5.575,12.5 -12.5,12.5 H 17.45 c -6.925,0 -12.4999997,-5.575 -12.4999997,-12.5 V 17.449999 C 4.9500003,10.524999 10.525,4.9499991 17.45,4.9499991 Z" />
  <g
     id="g20"
     transform="matrix(1.0807659,0,0,1.115538,9.6210403,-0.96992082)">
    <path
       style="font-weight:bold;font-size:97.3417px;line-height:116%;font-family:'Roboto Mono';-inkscape-font-specification:'Roboto Mono Bold';letter-spacing:15px;word-spacing:0px;fill:#ffffff;fill-opacity:0.998207;fill-rule:evenodd;stroke-width:6.69021;stroke-dasharray:26.7619, 6.69021;paint-order:stroke fill markers"
       d="M 31.252464,64.12093 48.363309,92.543945 H 64.238371 L 40.093068,53.949483 63.382829,23.340082 H 47.032466 L 30.206801,46.582314 23.932825,55.042676 V 23.340082 H 10.529329 V 92.543945 H 23.932825 V 72.153521 Z M 129.66783,92.543945 V 23.340082 H 116.26434 L 116.2168,67.78075 97.109694,23.340082 H 83.658669 V 92.543945 H 97.109694 V 47.913157 L 116.3594,92.543945 Z M 205.74404,63.027737 V 52.95135 q 0,-4.705482 -0.90307,-8.888133 -0.85555,-4.182651 -2.5191,-7.69988 -1.52097,-3.089459 -3.65982,-5.656085 -2.09133,-2.566627 -4.8956,-4.372772 -2.80428,-1.901205 -6.32151,-2.899338 -3.4697,-1.045662 -7.46223,-1.045662 -3.945,0 -7.31964,0.998132 -3.37464,0.998133 -6.08386,2.851808 -2.75674,1.901205 -4.8956,4.562892 -2.09132,2.661687 -3.56476,5.941266 -1.52096,3.469699 -2.32897,7.55729 -0.76049,4.08759 -0.76049,8.650482 v 10.076387 q 0,4.277711 0.66543,8.127652 0.71295,3.84994 2.04379,7.129519 1.47343,3.564759 3.65982,6.416567 2.18639,2.804277 4.94313,4.800542 2.80428,1.901205 6.22645,2.946868 3.42217,1.045663 7.46223,1.045663 3.80241,0 7.08199,-0.950603 3.32711,-0.903072 6.08385,-2.566626 3.04193,-1.901206 5.41844,-4.753013 2.37651,-2.851808 3.99253,-6.273977 1.52096,-3.422169 2.32898,-7.414699 0.80801,-4.040061 0.80801,-8.507893 z M 192.19795,52.85629 v 10.171447 q 0,2.566627 -0.28518,4.943133 -0.23765,2.376507 -0.76048,4.372772 -0.66542,2.566627 -1.80615,4.610422 -1.09319,1.996265 -2.70921,3.327109 -1.28332,1.093193 -2.94687,1.663554 -1.66355,0.570362 -3.65982,0.570362 -2.09133,0 -3.75488,-0.617892 -1.61602,-0.617892 -2.89934,-1.758615 -1.37837,-1.283313 -2.42403,-3.327108 -0.99814,-2.091326 -1.52097,-4.610423 -0.4753,-1.996265 -0.66542,-4.325241 -0.19012,-2.328976 -0.19012,-4.848073 V 52.85629 q 0,-2.661687 0.19012,-5.085723 0.23765,-2.424037 0.71295,-4.467832 0.61789,-2.661687 1.71109,-4.657952 1.14072,-1.996266 2.75674,-3.327109 1.18826,-0.903073 2.66169,-1.378374 1.52096,-0.475301 3.37464,-0.475301 1.94873,0 3.51723,0.522831 1.61602,0.522832 2.89934,1.473434 1.61602,1.283314 2.80427,3.327109 1.18826,1.996265 1.90121,4.562892 0.57036,2.043795 0.80801,4.467832 0.28518,2.376506 0.28518,5.038193 z m 43.18538,39.687655 h 12.07265 l 5.79867,-37.358679 0.52284,-3.517229 0.52283,3.517229 6.03632,37.358679 h 12.07266 l 9.60108,-69.203863 h -12.26277 l -4.70548,38.784583 -0.33271,2.899337 -0.42778,-2.851807 -5.79867,-38.832113 h -9.55356 l -5.46596,38.546932 -0.42777,2.851808 -0.33271,-2.709217 -4.61043,-38.689523 H 225.8773 Z"
       id="path14" />
    <path
       style="font-weight:bold;font-size:97.3417px;line-height:116%;font-family:'Roboto Mono';-inkscape-font-specification:'Roboto Mono Bold';letter-spacing:15px;word-spacing:0px;fill:#ffffff;fill-opacity:0.998207;fill-rule:evenodd;stroke-width:6.69021;stroke-dasharray:26.7619, 6.69021;paint-order:stroke fill markers"
       d="M 24.930957,194.67097 V 136.25645 H 11.527462 v 69.20386 H 57.346503 V 194.67097 Z M 126.6259,175.13609 V 164.5844 H 98.202887 v -17.44355 h 33.080963 v -10.8844 H 84.799392 v 69.20386 H 131.42645 V 194.67097 H 98.202887 v -19.53488 z m 64.8591,15.87506 4.04006,14.44916 h 14.06892 l -22.2441,-69.20386 H 175.2297 l -22.67187,69.20386 h 14.06891 l 4.0876,-14.44916 z m -17.49109,-11.3597 7.27211,-25.47614 7.08199,25.47614 z m 77.50213,-2.61415 17.11085,28.42301 h 15.87506 l -24.14531,-38.59446 23.28977,-30.6094 h -16.35037 l -16.82566,23.24223 -6.27398,8.46036 v -31.70259 h -13.40349 v 69.20386 h 13.40349 v -20.39042 z m 88.71921,10.36156 q 0,1.85368 -0.76049,3.42217 -0.76048,1.52097 -2.18638,2.61416 -1.42591,1.09319 -3.51723,1.71108 -2.0438,0.6179 -4.70548,0.6179 -2.9944,0 -5.5135,-0.66543 -2.47157,-0.66542 -4.23018,-2.09132 -1.80614,-1.42591 -2.80428,-3.65982 -0.99813,-2.23392 -1.09319,-5.37091 h -13.11831 q 0,5.37091 2.04379,9.36344 2.09133,3.99253 5.65609,6.9394 3.75488,2.9944 8.79307,4.56289 5.08572,1.52096 10.26651,1.52096 5.27584,0 9.74367,-1.23578 4.46783,-1.28331 7.69988,-3.75488 3.23205,-2.42404 5.0382,-5.94127 1.85367,-3.56475 1.85367,-8.12765 0,-5.27584 -2.42404,-9.3159 -2.42403,-4.04006 -6.51162,-7.08199 -2.70922,-1.85367 -5.94127,-3.27958 -3.23205,-1.4259 -6.79681,-2.42404 -3.32711,-0.90307 -5.98879,-1.94873 -2.61416,-1.04566 -4.46783,-2.32898 -1.85368,-1.23578 -2.85181,-2.80427 -0.9506,-1.5685 -0.9506,-3.51723 0,-1.85368 0.71295,-3.42217 0.76048,-1.61603 2.18638,-2.80428 1.42591,-1.14072 3.4697,-1.75861 2.09133,-0.66543 4.75301,-0.66543 2.89934,0 5.0382,0.80802 2.18638,0.76048 3.65982,2.13885 1.4259,1.42591 2.13885,3.37464 0.76049,1.94874 0.85555,4.27771 h 13.02325 q 0,-4.65795 -1.80614,-8.55542 -1.80615,-3.89747 -5.0382,-6.74928 -3.23205,-2.80428 -7.74741,-4.37277 -4.46783,-1.56849 -9.88626,-1.56849 -5.22832,0 -9.69615,1.37837 -4.46783,1.33084 -7.74741,3.84994 -3.27958,2.5191 -5.13325,6.08386 -1.85368,3.56476 -1.85368,7.93753 0,3.80241 1.37837,7.03446 1.42591,3.23204 4.18266,5.89373 2.75674,2.66169 7.08198,4.8956 4.37278,2.23392 10.12392,3.80241 3.70735,0.99814 6.17892,2.18639 2.51909,1.14072 4.08759,2.5191 1.52096,1.4259 2.13885,3.04192 0.66543,1.61603 0.66543,3.4697 z"
       id="path15" />
  </g>
</svg>
