<svg width="249.124" height="249.124" viewBox="0 0 65.914 65.914" xmlns="http://www.w3.org/2000/svg">
  <g transform="translate(2.137 8.643)">
    <rect width="65.914" height="65.914" x="-2.137" y="-8.643" rx="12.5" fill="#fff" id="background" />
    <g fill="#e7a148">
      <circle cx="13.378" cy="41.756" r="4.9" />
      <path
        d="M15.602 19.658a4.9 4.9 0 00-6.28 2.93 4.9 4.9 0 002.928 6.279 23.445 23.445 0 0114.018 14.017 4.9 4.9 0 006.279 2.928 4.9 4.9 0 002.93-6.28 33.265 33.265 0 00-19.875-19.874z" />
      <path
        d="M14.228 2.046a4.9 4.9 0 00-5.675 3.975 4.9 4.9 0 003.974 5.676 38.074 38.074 0 0130.91 30.91 4.9 4.9 0 005.676 3.975 4.9 4.9 0 003.975-5.676C49.594 21.089 34.045 5.54 14.228 2.046z" />
    </g>
  </g>
</svg>