<svg xmlns="http://www.w3.org/2000/svg" width="794.255" height="1133.773" viewBox="0 0 210.147 299.978"><path d="M-210.147 2232h210v297h-210Z" style="fill:#d0d0d0;stroke-width:1.32292" transform="matrix(-1 0 0 1 0 -2229.023)"/><path d="M104.646 2232v13.125h1V2232ZM157.146 2232v8.75h1V2232ZM134.014 2232v8.75h1V2232ZM145.58 2232v8.75h1V2232ZM139.797 2232v13.125h1V2232Z" style="color:#000;fill:gray;-inkscape-stroke:none" transform="translate(0 -2229.023)"/><path d="M157.146 2232v297h1v-297zM69.72 2232v297h1v-297zM174.72 2232v297h1v-297z" style="color:#000;fill:gray;-inkscape-stroke:none" transform="translate(0 -2229.023)"/><path d="m22.117 2231.508-.174.984a442.016 442.016 0 0 0 65.729 6.57c26.325.653 52.687-1.188 78.709-5.226-25.621 7.016-52.133 10.789-78.697 10.789a298.528 298.528 0 0 1-87.391-13.104l-.293.957a299.517 299.517 0 0 0 87.684 13.147c29.664 0 59.323-4.447 87.683-13.146l-.232-.971a441.15 441.15 0 0 1-87.438 6.555 441.003 441.003 0 0 1-65.58-6.555z" style="color:#000;fill:#303030;-inkscape-stroke:none" transform="translate(0 -2229.023)"/><path d="m24.973 2229.113-3.885 2.721 2.72 3.885a.5.5 0 0 0 .698.123.5.5 0 0 0 .121-.698l-2.147-3.064 3.067-2.148a.5.5 0 0 0 .123-.696.5.5 0 0 0-.697-.123z" style="color:#000;fill:#303030;stroke-linecap:round;-inkscape-stroke:none" transform="translate(0 -2229.023)"/><path d="M87.184 2232v4h1v-4zm0 5v4h1v-4zm0 5v4h1v-4zm0 5v4h1v-4zm0 5v4h1v-4zm0 5v4h1v-4zm0 5v4h1v-4zm0 5v4h1v-4zm0 5v4h1v-4zm0 5v4h1v-4zm0 5v4h1v-4zm0 5v4h1v-4zm0 5v4h1v-4zm0 5v4h1v-4zm0 5v4h1v-4zm0 5v4h1v-4zm0 5v4h1v-4zm0 5v4h1v-4zm0 5v4h1v-4zm0 5v4h1v-4zm0 5v4h1v-4zm0 5v4h1v-4zm0 5v4h1v-4zm0 5v4h1v-4zm0 5v4h1v-4zm0 5v4h1v-4zm0 5v4h1v-4zm0 5v4h1v-4zm0 5v4h1v-4zm0 5v4h1v-4zm0 5v4h1v-4zm0 5v4h1v-4zm0 5v4h1v-4zm0 5v4h1v-4zm0 5v4h1v-4zm0 5v4h1v-4zm0 5v4h1v-4zm0 5v4h1v-4zm0 5v4h1v-4zm0 5v4h1v-4zm0 5v4h1v-4zm0 5v4h1v-4zm0 5v4h1v-4zm0 5v4h1v-4zm0 5v4h1v-4zm0 5v4h1v-4zm0 5v4h1v-4zm0 5v4h1v-4zm0 5v4h1v-4zm0 5v4h1v-4zm0 5v4h1v-4zm0 5v4h1v-4zm0 5v4h1v-4zm0 5v4h1v-4zm0 5v4h1v-4zm0 5v4h1v-4zm0 5v4h1v-4zm0 5v4h1v-4zm0 5v4h1v-4zm0 5v2h1v-2z" style="color:#000;fill:#303030;stroke-dasharray:4,1;-inkscape-stroke:none" transform="translate(0 -2229.023)"/></svg>