<svg xmlns="http://www.w3.org/2000/svg" width="801.912" height="1123.709" viewBox="0 0 212.172 297.315"><path d="M-730.147 2232h210v297h-210z" style="fill:#d0d0d0;stroke-width:1.32292" transform="matrix(-1 0 0 1 -520.147 -2231.686)"/><path d="M624.646 2232v13.125h1V2232ZM677.146 2232v8.75h1V2232ZM654.014 2232v8.75h1V2232ZM665.58 2232v8.75h1V2232ZM659.797 2232v13.125h1V2232Z" style="color:#000;fill:gray;-inkscape-stroke:none" transform="translate(-520.147 -2231.686)"/><path d="M677.146 2232v297h1v-297zM589.72 2232v297h1v-297zM694.72 2232v297h1v-297zM607.184 2232v297h1v-297zM721.396 2380v1h8.75v-1z" style="color:#000;fill:gray;-inkscape-stroke:none" transform="translate(-520.147 -2231.686)"/><path d="M729.758 2231.686c-17.001 21.037-26.476 48.018-26.362 75.066.114 26.713 9.571 53.285 26.362 74.063l.847-.512c-9.908-23.075-14.423-48.45-13.084-73.526a164.58 164.58 0 0 1 13.084-56.017l-.918-.395a165.57 165.57 0 0 0-13.166 56.358c-1.279 23.953 2.812 48.147 11.754 70.404-15.18-20.123-23.772-45.167-23.879-70.379-.113-26.812 9.287-53.58 26.14-74.433z" style="color:#000;fill:#303030;-inkscape-stroke:none" transform="translate(-520.147 -2231.686)"/><path d="m730.523 2249.684-4.404 1.757a.5.5 0 0 0-.28.65.5.5 0 0 0 .651.278l3.477-1.387 1.387 3.477a.5.5 0 0 0 .65.28.5.5 0 0 0 .28-.651z" style="color:#000;fill:#303030;stroke-linecap:round;-inkscape-stroke:none" transform="translate(-520.147 -2231.686)"/><path d="M721.396 2306.25v1h4v-1zm5 0v1h3.75v-1z" style="color:#000;fill:#303030;stroke-dasharray:4,1;-inkscape-stroke:none" transform="translate(-520.147 -2231.686)"/></svg>