<svg xmlns="http://www.w3.org/2000/svg" width="802.388" height="1123.7" viewBox="0 0 212.298 297.312"><path d="M-210 2976H0v297h-210z" style="fill:#d0d0d0;stroke-width:1.32292" transform="matrix(-1 0 0 1 0 -2975.687)"/><path d="M104.5 2976v13.125h1V2976ZM157 2976v8.75h1V2976ZM133.867 2976v8.75h1V2976ZM145.434 2976v8.75h1V2976ZM139.65 2976v13.125h1V2976Z" style="color:#000;fill:gray;-inkscape-stroke:none" transform="translate(0 -2975.687)"/><path d="M157 2976v297h1v-297zM69.574 2976v297h1v-297zM174.574 2976v297h1v-297zM87.037 2976v297h1v-297zM201.25 3124v1H210v-1zM201.25 3050.25v1H210v-1z" style="color:#000;fill:gray;-inkscape-stroke:none" transform="translate(0 -2975.687)"/><path d="M209.61 2975.688c-8.541 10.66-13.292 24.28-13.235 37.939.056 13.491 4.799 26.907 13.234 37.435l.858-.494a96.419 96.419 0 0 1-6.53-36.933 96.345 96.345 0 0 1 6.53-32.813l-.934-.363a97.35 97.35 0 0 0-6.595 33.156c-.246 11.468 1.67 22.938 5.416 33.78-6.913-9.851-10.929-21.735-10.979-33.772-.056-13.424 4.622-26.834 13.016-37.31z" style="color:#000;fill:#303030;-inkscape-stroke:none" transform="translate(0 -2975.687)"/><path d="m210.348 2979.748-4.342 1.908a.5.5 0 0 0-.258.66.5.5 0 0 0 .66.256l3.426-1.506 1.506 3.426a.5.5 0 0 0 .658.258.5.5 0 0 0 .258-.66z" style="color:#000;fill:#303030;stroke-linecap:round;-inkscape-stroke:none" transform="translate(0 -2975.687)"/><path d="M201.25 3013.125v1h4v-1zm5 0v1H210v-1z" style="color:#000;fill:#303030;stroke-dasharray:4,1;-inkscape-stroke:none" transform="translate(0 -2975.687)"/></svg>