<svg xmlns="http://www.w3.org/2000/svg" width="523.701" height="692.525" viewBox="0 0 138.563 183.23"><defs><path id="b" d="M13944.431 791.553h338.55v86.879h-338.55z"/><path id="a" d="M13923.261 461.38h388.321v152.585h-388.321z"/></defs><path d="M557.938 3035.349v181.73h119.93v-181.73z" style="fill:#d0d0d0;fill-opacity:1;stroke:none;stroke-width:5.18067" transform="translate(-557.187 -3034.598)"/><path d="M643.602 3051.563v3.915h34.265v-3.915zM643.602 3196.947v3.916h34.265v-3.916zM643.602 3124.256v3.916h34.265v-3.916z" style="color:#000;fill:gray;-inkscape-stroke:none" transform="translate(-557.187 -3034.598)"/><path d="M557.938 3034.598v.75h-.75v.088h.75v.662h6v-1.5zm7.5 0v1.5h6v-1.5zm7.5 0v1.5h6v-1.5zm7.5 0v1.5h6v-1.5zm7.5 0v1.5h6v-1.5zm7.5 0v1.5h6v-1.5zm7.5 0v1.5h6v-1.5zm7.5 0v1.5h6v-1.5zm7.5 0v1.5h6v-1.5zm7.5 0v1.5h6v-1.5zm7.5 0v1.5h6v-1.5zm7.5 0v1.5h6v-1.5zm7.5 0v1.5h6v-1.5zm7.5 0v1.5h6v-1.5zm7.5 0v1.5h6v-1.5zm7.5 0v1.5h6v-1.5zm7.5 0v1.5h6v-1.5zm7.5 0v1.5h6v-1.5zm7.5 0v1.5h1.312v3.187h1.5v-4.687zm-135.75 2.337v6h1.5v-6zm137.062 3.85v6h1.5v-6zm-137.063 3.65v6h1.5v-6zm137.063 3.85v6h1.5v-6zm-137.063 3.65v6h1.5v-6zm137.063 3.85v6h1.5v-6zm-137.063 3.65v6h1.5v-6zm137.063 3.85v6h1.5v-6zm-137.063 3.65v6h1.5v-6zm137.063 3.85v6h1.5v-6zm-137.063 3.65v6h1.5v-6zm137.063 3.85v6h1.5v-6zm-137.063 3.65v6h1.5v-6zm137.063 3.85v6h1.5v-6zm-137.063 3.65v6h1.5v-6zm137.063 3.85v6h1.5v-6zm-137.063 3.65v6h1.5v-6zm137.063 3.85v6h1.5v-6zm-137.063 3.65v6h1.5v-6zm137.063 3.85v6h1.5v-6zm-137.063 3.65v6h1.5v-6zm137.063 3.85v6h1.5v-6zm-137.063 3.65v6h1.5v-6zm137.063 3.85v6h1.5v-6zm-137.063 3.65v6h1.5v-6zm137.063 3.85v6h1.5v-6zm-137.063 3.65v6h1.5v-6zm137.063 3.85v6h1.5v-6zm-137.063 3.65v6h1.5v-6zm137.063 3.85v6h1.5v-6zm-137.063 3.65v6h1.5v-6zm137.063 3.85v6h1.5v-6zm-137.063 3.65v6h1.5v-6zm137.063 3.85v6h1.5v-6zm-137.063 3.65v6h1.5v-6zm137.063 3.85v6h1.5v-6zm-137.063 3.65v6h1.5v-6zm137.063 3.85v6h1.5v-6zm-137.063 3.65v6h1.5v-6zm137.063 3.85v6h1.5v-6zm-137.063 3.65v6h1.5v-6zm137.063 3.85v6h1.5v-6zm-137.063 3.65v6h1.5v-6zm137.063 3.85v6h1.5v-6zm-137.063 3.65v6h1.5v-6zm137.063 3.85v6h1.5v-6zm-137.063 3.65v6h1.5v-6zm137.063 3.85v3.043h-1.455v1.5h2.955v-4.543zm-136.313 3.043.608.607h-1.357v.893h6.607v-1.5zm7.358 0v1.5h6v-1.5zm7.5 0v1.5h6v-1.5zm7.5 0v1.5h6v-1.5zm7.5 0v1.5h6v-1.5zm7.5 0v1.5h6v-1.5zm7.5 0v1.5h6v-1.5zm7.5 0v1.5h6v-1.5zm7.5 0v1.5h6v-1.5zm7.5 0v1.5h6v-1.5zm7.5 0v1.5h6v-1.5zm7.5 0v1.5h6v-1.5zm7.5 0v1.5h6v-1.5zm7.5 0v1.5h6v-1.5zm7.5 0v1.5h6v-1.5zm7.5 0v1.5h6v-1.5zm7.5 0v1.5h6v-1.5zm7.5 0v1.5h6v-1.5z" style="color:#000;fill:#0d805a;stroke-dasharray:6,1.5;-inkscape-stroke:none" transform="translate(-557.187 -3034.598)"/><path d="M677.244 3125.459c-10.909 9-17.488 22.958-17.488 37.1 0 14.141 6.58 28.102 17.488 37.101l1.465-1.256c-6.351-10.693-9.339-23.37-8.432-35.773a61.578 61.578 0 0 1 8.432-26.83l-1.682-1a63.515 63.515 0 0 0-8.703 27.687c-.804 10.998 1.514 22.098 6.29 32.03-8.104-8.514-12.901-20.2-12.901-31.96 0-13.532 6.339-26.978 16.777-35.59z" style="color:#000;fill:#303030;-inkscape-stroke:none" transform="translate(-557.187 -3034.598)"/><path d="m678.824 3133.69-8.998 2.29a.979.979 0 0 0-.707 1.192.979.979 0 0 0 1.192.707l7.101-1.809 1.809 7.1a.979.979 0 0 0 1.19.707.979.979 0 0 0 .706-1.19z" style="color:#000;fill:#303030;stroke-linecap:round;-inkscape-stroke:none" transform="translate(-557.187 -3034.598)"/><path d="M557.938 3160.602v3.916h2.45v-3.916zm6.367 0v3.916h15.664v-3.916zm19.58 0v3.916h15.664v-3.916zm19.58 0v3.916h15.664v-3.916zm19.58 0v3.916h15.664v-3.916zm19.58 0v3.916h15.664v-3.916zm19.578 0v3.916h15.664v-3.916z" style="color:#000;fill:#303030;stroke-dasharray:15.664,3.916;-inkscape-stroke:none" transform="translate(-557.187 -3034.598)"/><g aria-label="fold and unfold across entire page" style="font-size:32px;line-height:1.25;font-family:&quot;Noto Sans&quot;;-inkscape-font-specification:&quot;Noto Sans&quot;;letter-spacing:0;white-space:pre;shape-inside:url(#a);display:inline" transform="matrix(.26458 0 0 .26458 -3672.869 -23.058)"><path d="M13933.886 475.52h-4.32v14.977h-2.816V475.52h-3.008v-1.312l3.008-.96v-.992q0-3.328 1.472-4.768 1.472-1.472 4.096-1.472 1.024 0 1.856.192.864.16 1.472.384l-.736 2.208q-.512-.16-1.184-.32-.672-.16-1.376-.16-1.408 0-2.112.96-.672.928-.672 2.944v1.12h4.32zM13951.902 481.889q0 4.256-2.176 6.592-2.144 2.336-5.824 2.336-2.272 0-4.064-1.024-1.76-1.056-2.784-3.04-1.024-2.016-1.024-4.864 0-4.256 2.144-6.56 2.144-2.304 5.824-2.304 2.336 0 4.096 1.056 1.792 1.024 2.784 3.008 1.024 1.952 1.024 4.8zm-12.96 0q0 3.04 1.184 4.832 1.216 1.76 3.84 1.76 2.592 0 3.808-1.76 1.216-1.792 1.216-4.832t-1.216-4.768q-1.216-1.728-3.84-1.728-2.624 0-3.808 1.728-1.184 1.728-1.184 4.768zM13959.166 490.497h-2.816v-24.32h2.816zM13970.686 490.817q-3.2 0-5.12-2.208-1.92-2.24-1.92-6.656 0-4.416 1.92-6.656 1.952-2.272 5.152-2.272 1.984 0 3.232.736 1.28.736 2.08 1.792h.192q-.03-.416-.128-1.216-.06-.832-.06-1.312v-6.848h2.816v24.32h-2.272l-.416-2.304h-.128q-.768 1.088-2.048 1.856t-3.296.768zm.448-2.336q2.72 0 3.808-1.472 1.12-1.504 1.12-4.512v-.512q0-3.2-1.056-4.896-1.056-1.728-3.904-1.728-2.272 0-3.424 1.824-1.12 1.792-1.12 4.832 0 3.072 1.12 4.768 1.152 1.696 3.456 1.696zM13999.102 473.057q3.136 0 4.64 1.376 1.504 1.376 1.504 4.384v11.68h-2.048l-.544-2.432h-.128q-1.12 1.408-2.368 2.08-1.216.672-3.392.672-2.336 0-3.872-1.216-1.536-1.248-1.536-3.872 0-2.56 2.016-3.936 2.016-1.408 6.208-1.536l2.912-.096v-1.024q0-2.144-.928-2.976-.928-.832-2.624-.832-1.344 0-2.56.416-1.216.384-2.272.896l-.864-2.112q1.12-.608 2.656-1.024 1.536-.448 3.2-.448zm.832 9.152q-3.2.128-4.448 1.024-1.216.896-1.216 2.528 0 1.44.864 2.112.896.672 2.272.672 2.176 0 3.616-1.184 1.44-1.216 1.44-3.712v-1.536zM14018.814 473.025q3.072 0 4.64 1.504 1.568 1.472 1.568 4.8v11.168h-2.784V479.52q0-4.128-3.84-4.128-2.848 0-3.936 1.6t-1.088 4.608v8.896h-2.816v-17.152h2.272l.416 2.336h.16q.832-1.344 2.304-1.984 1.472-.672 3.104-.672zM14036.414 490.817q-3.2 0-5.12-2.208-1.92-2.24-1.92-6.656 0-4.416 1.92-6.656 1.952-2.272 5.152-2.272 1.984 0 3.232.736 1.28.736 2.08 1.792h.192q-.03-.416-.128-1.216-.06-.832-.06-1.312v-6.848h2.816v24.32h-2.272l-.416-2.304h-.128q-.768 1.088-2.048 1.856t-3.296.768zm.448-2.336q2.72 0 3.808-1.472 1.12-1.504 1.12-4.512v-.512q0-3.2-1.056-4.896-1.056-1.728-3.904-1.728-2.272 0-3.424 1.824-1.12 1.792-1.12 4.832 0 3.072 1.12 4.768 1.152 1.696 3.456 1.696zM14072.67 473.345v17.152h-2.304l-.416-2.272h-.128q-.832 1.344-2.304 1.984-1.472.608-3.136.608-3.104 0-4.672-1.472-1.568-1.504-1.568-4.768v-11.232h2.848v11.04q0 4.096 3.808 4.096 2.848 0 3.936-1.6 1.12-1.6 1.12-4.608v-8.928zM14086.366 473.025q3.072 0 4.64 1.504 1.568 1.472 1.568 4.8v11.168h-2.784V479.52q0-4.128-3.84-4.128-2.848 0-3.936 1.6t-1.088 4.608v8.896h-2.816v-17.152h2.272l.416 2.336h.16q.832-1.344 2.304-1.984 1.472-.672 3.104-.672zM14105.79 475.52h-4.32v14.977h-2.816V475.52h-3.008v-1.312l3.008-.96v-.992q0-3.328 1.472-4.768 1.472-1.472 4.096-1.472 1.024 0 1.856.192.864.16 1.472.384l-.736 2.208q-.512-.16-1.184-.32-.672-.16-1.376-.16-1.408 0-2.112.96-.672.928-.672 2.944v1.12h4.32zM14123.806 481.889q0 4.256-2.176 6.592-2.144 2.336-5.824 2.336-2.272 0-4.064-1.024-1.76-1.056-2.784-3.04-1.024-2.016-1.024-4.864 0-4.256 2.144-6.56 2.144-2.304 5.824-2.304 2.336 0 4.096 1.056 1.792 1.024 2.784 3.008 1.024 1.952 1.024 4.8zm-12.96 0q0 3.04 1.184 4.832 1.216 1.76 3.84 1.76 2.592 0 3.808-1.76 1.216-1.792 1.216-4.832t-1.216-4.768q-1.216-1.728-3.84-1.728-2.624 0-3.808 1.728-1.184 1.728-1.184 4.768zM14131.07 490.497h-2.816v-24.32h2.816zM14142.59 490.817q-3.2 0-5.12-2.208-1.92-2.24-1.92-6.656 0-4.416 1.92-6.656 1.952-2.272 5.152-2.272 1.984 0 3.232.736 1.28.736 2.08 1.792h.192q-.03-.416-.128-1.216-.06-.832-.06-1.312v-6.848h2.816v24.32h-2.272l-.416-2.304h-.128q-.768 1.088-2.048 1.856t-3.296.768zm.448-2.336q2.72 0 3.808-1.472 1.12-1.504 1.12-4.512v-.512q0-3.2-1.056-4.896-1.056-1.728-3.904-1.728-2.272 0-3.424 1.824-1.12 1.792-1.12 4.832 0 3.072 1.12 4.768 1.152 1.696 3.456 1.696zM14171.006 473.057q3.136 0 4.64 1.376 1.504 1.376 1.504 4.384v11.68h-2.048l-.544-2.432h-.128q-1.12 1.408-2.368 2.08-1.216.672-3.392.672-2.336 0-3.872-1.216-1.536-1.248-1.536-3.872 0-2.56 2.016-3.936 2.016-1.408 6.208-1.536l2.912-.096v-1.024q0-2.144-.928-2.976-.928-.832-2.624-.832-1.344 0-2.56.416-1.216.384-2.272.896l-.864-2.112q1.12-.608 2.656-1.024 1.536-.448 3.2-.448zm.832 9.152q-3.2.128-4.448 1.024-1.216.896-1.216 2.528 0 1.44.864 2.112.896.672 2.272.672 2.176 0 3.616-1.184 1.44-1.216 1.44-3.712v-1.536zM14189.342 490.817q-2.272 0-4.064-.928-1.76-.928-2.784-2.88-.992-1.952-.992-4.992 0-3.168 1.056-5.152t2.848-2.912q1.824-.928 4.128-.928 1.312 0 2.528.288 1.216.256 1.984.64l-.864 2.336q-.768-.288-1.792-.544-1.024-.256-1.92-.256-5.056 0-5.056 6.496 0 3.104 1.216 4.768 1.248 1.632 3.68 1.632 1.408 0 2.464-.288 1.088-.288 1.984-.704v2.496q-.864.448-1.92.672-1.024.256-2.496.256zM14205.822 473.025q.48 0 1.024.064.576.032.992.128l-.352 2.592q-.416-.096-.928-.16-.48-.064-.928-.064-1.312 0-2.464.736-1.152.704-1.856 2.016-.672 1.28-.672 3.008v9.152h-2.816v-17.152h2.304l.32 3.136h.128q.832-1.408 2.144-2.432 1.312-1.024 3.104-1.024zM14225.31 481.889q0 4.256-2.176 6.592-2.144 2.336-5.824 2.336-2.272 0-4.064-1.024-1.76-1.056-2.784-3.04-1.024-2.016-1.024-4.864 0-4.256 2.144-6.56 2.144-2.304 5.824-2.304 2.336 0 4.096 1.056 1.792 1.024 2.784 3.008 1.024 1.952 1.024 4.8zm-12.96 0q0 3.04 1.184 4.832 1.216 1.76 3.84 1.76 2.592 0 3.808-1.76 1.216-1.792 1.216-4.832t-1.216-4.768q-1.216-1.728-3.84-1.728-2.624 0-3.808 1.728-1.184 1.728-1.184 4.768zM14240.926 485.76q0 2.497-1.856 3.777-1.856 1.28-4.992 1.28-1.792 0-3.104-.288-1.28-.288-2.272-.8v-2.56q1.024.512 2.464.96 1.472.416 2.976.416 2.144 0 3.104-.672.96-.704.96-1.856 0-.64-.352-1.152-.352-.512-1.28-1.024-.896-.512-2.592-1.152-1.664-.64-2.848-1.28t-1.824-1.536q-.64-.896-.64-2.304 0-2.176 1.76-3.36 1.792-1.184 4.672-1.184 1.568 0 2.912.32 1.376.288 2.56.832l-.96 2.24q-1.088-.448-2.272-.768-1.184-.32-2.432-.32-1.728 0-2.656.576-.896.544-.896 1.504 0 .704.416 1.216.416.48 1.376.96.992.448 2.624 1.088 1.632.608 2.784 1.248t1.76 1.568q.608.896.608 2.272zM14256.254 485.76q0 2.497-1.856 3.777-1.856 1.28-4.992 1.28-1.792 0-3.104-.288-1.28-.288-2.272-.8v-2.56q1.024.512 2.464.96 1.472.416 2.976.416 2.144 0 3.104-.672.96-.704.96-1.856 0-.64-.352-1.152-.352-.512-1.28-1.024-.896-.512-2.592-1.152-1.664-.64-2.848-1.28t-1.824-1.536q-.64-.896-.64-2.304 0-2.176 1.76-3.36 1.792-1.184 4.672-1.184 1.568 0 2.912.32 1.376.288 2.56.832l-.96 2.24q-1.088-.448-2.272-.768-1.184-.32-2.432-.32-1.728 0-2.656.576-.896.544-.896 1.504 0 .704.416 1.216.416.48 1.376.96.992.448 2.624 1.088 1.632.608 2.784 1.248t1.76 1.568q.608.896.608 2.272zM13932.606 513.025q2.208 0 3.776.96 1.6.96 2.432 2.72.864 1.728.864 4.064v1.696h-11.744q.06 2.912 1.472 4.448 1.44 1.504 4 1.504 1.632 0 2.88-.288 1.28-.32 2.624-.896v2.464q-1.312.576-2.592.832-1.28.288-3.04.288-2.432 0-4.32-.992-1.856-.992-2.912-2.944-1.024-1.984-1.024-4.832 0-2.816.928-4.832.96-2.016 2.656-3.104 1.728-1.088 4-1.088zm-.03 2.304q-2.016 0-3.2 1.312-1.152 1.28-1.376 3.584h8.736q-.03-2.176-1.024-3.52-.992-1.376-3.136-1.376zM13952.286 513.025q3.072 0 4.64 1.504 1.568 1.472 1.568 4.8v11.168h-2.784V519.52q0-4.128-3.84-4.128-2.848 0-3.936 1.6t-1.088 4.608v8.896h-2.816v-17.152h2.272l.416 2.336h.16q.832-1.344 2.304-1.984 1.472-.672 3.104-.672zM13969.534 528.513q.64 0 1.312-.096.672-.128 1.088-.256v2.144q-.448.224-1.28.352-.832.16-1.6.16-1.344 0-2.496-.448-1.12-.48-1.824-1.632t-.704-3.232v-9.984h-2.432v-1.344l2.464-1.12 1.12-3.648h1.664v3.936h4.96v2.176h-4.96v9.92q0 1.568.736 2.336.768.736 1.952.736zM13976.798 506.913q.64 0 1.12.448.512.416.512 1.344 0 .896-.512 1.344-.48.448-1.12.448-.704 0-1.184-.448t-.48-1.344q0-.928.48-1.344.48-.448 1.184-.448zm1.376 6.432v17.152h-2.816v-17.152zM13991.614 513.025q.48 0 1.024.064.576.032.992.128l-.352 2.592q-.416-.096-.928-.16-.48-.064-.928-.064-1.312 0-2.464.736-1.152.704-1.856 2.016-.672 1.28-.672 3.008v9.152h-2.816v-17.152h2.304l.32 3.136h.128q.832-1.408 2.144-2.432 1.312-1.024 3.104-1.024zM14002.814 513.025q2.208 0 3.776.96 1.6.96 2.432 2.72.864 1.728.864 4.064v1.696h-11.744q.06 2.912 1.472 4.448 1.44 1.504 4 1.504 1.632 0 2.88-.288 1.28-.32 2.624-.896v2.464q-1.312.576-2.592.832-1.28.288-3.04.288-2.432 0-4.32-.992-1.856-.992-2.912-2.944-1.024-1.984-1.024-4.832 0-2.816.928-4.832.96-2.016 2.656-3.104 1.728-1.088 4-1.088zm-.03 2.304q-2.016 0-3.2 1.312-1.152 1.28-1.376 3.584h8.736q-.03-2.176-1.024-3.52-.992-1.376-3.136-1.376zM14030.718 513.025q3.168 0 5.088 2.208 1.952 2.208 1.952 6.656 0 4.384-1.952 6.656-1.92 2.272-5.12 2.272-1.984 0-3.296-.736-1.28-.768-2.016-1.76h-.192q.06.544.128 1.376.06.832.06 1.44v7.04h-2.816v-24.832h2.304l.384 2.336h.128q.768-1.12 2.016-1.888 1.248-.768 3.328-.768zm-.512 2.368q-2.624 0-3.712 1.472-1.056 1.472-1.12 4.48v.544q0 3.168 1.024 4.896 1.056 1.696 3.872 1.696 1.568 0 2.56-.864 1.024-.864 1.504-2.336.512-1.504.512-3.424 0-2.944-1.152-4.704-1.12-1.76-3.488-1.76zM14048.734 513.057q3.136 0 4.64 1.376 1.504 1.376 1.504 4.384v11.68h-2.048l-.544-2.432h-.128q-1.12 1.408-2.368 2.08-1.216.672-3.392.672-2.336 0-3.872-1.216-1.536-1.248-1.536-3.872 0-2.56 2.016-3.936 2.016-1.408 6.208-1.536l2.912-.096v-1.024q0-2.144-.928-2.976-.928-.832-2.624-.832-1.344 0-2.56.416-1.216.384-2.272.896l-.864-2.112q1.12-.608 2.656-1.024 1.536-.448 3.2-.448zm.832 9.152q-3.2.128-4.448 1.024-1.216.896-1.216 2.528 0 1.44.864 2.112.896.672 2.272.672 2.176 0 3.616-1.184 1.44-1.216 1.44-3.712v-1.536zM14066.27 513.025q1.696 0 3.04.64 1.376.64 2.336 1.952h.16l.384-2.272h2.24v17.44q0 3.68-1.888 5.536-1.856 1.856-5.792 1.856-3.776 0-6.176-1.088v-2.592q2.528 1.344 6.336 1.344 2.208 0 3.456-1.312 1.28-1.28 1.28-3.52v-.672q0-.384.03-1.088.03-.736.06-1.024h-.128q-1.728 2.592-5.312 2.592-3.328 0-5.216-2.336-1.856-2.336-1.856-6.528 0-4.096 1.856-6.496 1.888-2.432 5.184-2.432zm.384 2.368q-2.144 0-3.328 1.728-1.184 1.696-1.184 4.864t1.152 4.864q1.184 1.664 3.424 1.664 2.592 0 3.776-1.376 1.184-1.408 1.184-4.512v-.672q0-3.52-1.216-5.024-1.216-1.536-3.808-1.536zM14086.494 513.025q2.208 0 3.776.96 1.6.96 2.432 2.72.864 1.728.864 4.064v1.696h-11.744q.06 2.912 1.472 4.448 1.44 1.504 4 1.504 1.632 0 2.88-.288 1.28-.32 2.624-.896v2.464q-1.312.576-2.592.832-1.28.288-3.04.288-2.432 0-4.32-.992-1.856-.992-2.912-2.944-1.024-1.984-1.024-4.832 0-2.816.928-4.832.96-2.016 2.656-3.104 1.728-1.088 4-1.088zm-.03 2.304q-2.016 0-3.2 1.312-1.152 1.28-1.376 3.584h8.736q-.03-2.176-1.024-3.52-.992-1.376-3.136-1.376z"/></g><g aria-label="1/4 pinch mark -&gt;" style="font-size:28px;line-height:1.25;font-family:&quot;Noto Sans&quot;;-inkscape-font-specification:&quot;Noto Sans&quot;;letter-spacing:0;white-space:pre;shape-inside:url(#b);display:inline" transform="matrix(.26458 0 0 .26458 -3674.802 -49.938)"><path d="M13954.37 817.03h-2.408v-13.973q0-1.204.03-1.932t.08-1.512q-.448.448-.812.756l-.924.784-2.128 1.736-1.288-1.652 5.404-4.2h2.044zM13970.582 797.037l-7.448 19.992h-2.408l7.448-19.992zM13986.318 812.493h-2.912v4.536h-2.38v-4.536h-9.576v-2.1l9.408-13.468h2.548v13.356h2.912zm-5.292-8.512q0-1.456.06-2.464.06-1.036.08-1.96h-.112q-.224.532-.56 1.148-.336.616-.644 1.036l-5.992 8.54h7.168zM14003.678 801.741q2.772 0 4.452 1.932 1.708 1.932 1.708 5.824 0 3.836-1.708 5.824-1.68 1.988-4.48 1.988-1.736 0-2.884-.644-1.12-.672-1.764-1.54h-.168q.06.476.112 1.204.06.728.06 1.26v6.16h-2.464v-21.728h2.016l.336 2.044h.112q.672-.98 1.764-1.652 1.092-.672 2.912-.672zm-.448 2.072q-2.296 0-3.248 1.288-.924 1.288-.98 3.92v.476q0 2.772.896 4.284.924 1.484 3.388 1.484 1.372 0 2.24-.756.896-.756 1.316-2.044.448-1.316.448-2.996 0-2.576-1.008-4.116-.98-1.54-3.052-1.54zM14015.018 796.393q.56 0 .98.392.448.364.448 1.176 0 .784-.448 1.176-.42.392-.98.392-.616 0-1.036-.392-.42-.392-.42-1.176 0-.812.42-1.176.42-.392 1.036-.392zm1.204 5.628v15.008h-2.464v-15.008zM14028.206 801.741q2.688 0 4.06 1.316 1.372 1.288 1.372 4.2v9.772h-2.436v-9.604q0-3.612-3.36-3.612-2.492 0-3.444 1.4t-.952 4.032v7.784h-2.464v-15.008h1.988l.364 2.044h.14q.728-1.176 2.016-1.736 1.288-.588 2.716-.588zM14044.306 817.31q-1.988 0-3.556-.813-1.54-.812-2.436-2.52-.868-1.708-.868-4.368 0-2.772.924-4.508.924-1.736 2.492-2.548 1.596-.812 3.612-.812 1.148 0 2.212.252 1.064.224 1.736.56l-.756 2.044q-.672-.252-1.568-.476-.896-.224-1.68-.224-4.424 0-4.424 5.684 0 2.716 1.064 4.172 1.092 1.428 3.22 1.428 1.232 0 2.156-.252.952-.252 1.736-.616v2.184q-.756.392-1.68.588-.896.224-2.184.224zM14054.19 801.993q0 1.12-.14 2.1h.168q.728-1.148 1.96-1.736 1.26-.588 2.716-.588 2.744 0 4.116 1.316 1.372 1.288 1.372 4.172v9.772h-2.436v-9.604q0-3.612-3.36-3.612-2.52 0-3.472 1.428-.924 1.4-.924 4.032v7.756h-2.464v-21.28h2.464zM14092.774 801.741q2.548 0 3.808 1.316 1.26 1.288 1.26 4.2v9.772h-2.436v-9.66q0-3.556-3.052-3.556-2.184 0-3.136 1.26-.924 1.26-.924 3.668v8.288h-2.436v-9.66q0-3.556-3.08-3.556-2.268 0-3.136 1.4-.868 1.4-.868 4.032v7.784h-2.464v-15.008h1.988l.364 2.044h.14q.7-1.176 1.876-1.736 1.204-.588 2.548-.588 3.528 0 4.592 2.52h.14q.756-1.288 2.044-1.904 1.316-.616 2.772-.616zM14108.174 801.77q2.744 0 4.06 1.203 1.316 1.204 1.316 3.836v10.22h-1.792l-.476-2.128h-.112q-.98 1.232-2.072 1.82-1.064.588-2.968.588-2.044 0-3.388-1.064-1.344-1.092-1.344-3.388 0-2.24 1.764-3.444 1.764-1.232 5.432-1.344l2.548-.084v-.896q0-1.876-.812-2.604-.812-.728-2.296-.728-1.176 0-2.24.364-1.064.336-1.988.784l-.756-1.848q.98-.532 2.324-.896 1.344-.392 2.8-.392zm.728 8.007q-2.8.112-3.892.896-1.064.784-1.064 2.212 0 1.26.756 1.848.784.588 1.988.588 1.904 0 3.164-1.036 1.26-1.064 1.26-3.248v-1.344zM14125.198 801.741q.42 0 .896.056.504.028.868.112l-.308 2.268q-.364-.084-.812-.14-.42-.056-.812-.056-1.148 0-2.156.644-1.008.616-1.624 1.764-.588 1.12-.588 2.632v8.008h-2.464v-15.008h2.016l.28 2.744h.112q.728-1.232 1.876-2.128 1.148-.896 2.716-.896zM14132.198 806.865q0 .448-.06 1.176-.03.728-.06 1.26h.112q.168-.224.504-.644l.672-.84q.364-.448.616-.728l4.788-5.068h2.884l-6.076 6.412 6.496 8.596h-2.968l-5.208-7-1.708 1.484v5.516h-2.436v-21.28h2.436zM14158.014 810.617v-2.184h6.776v2.184zM14167.31 811.597l10.556-4.396-10.556-5.012v-2.184l13.188 6.58v1.4l-13.188 5.796z"/></g></svg>