<svg xmlns="http://www.w3.org/2000/svg" width="795.214" height="1128.395" viewBox="0 0 210.4 298.555"><path d="M260 0h210v297H260Z" style="fill:#f0f0f0;stroke-width:1.32292" transform="translate(-259.6 1.555)"/><path d="M364.5 0v13.125h1V0Z" style="color:#000;fill:gray;-inkscape-stroke:none" transform="translate(-259.6 1.555)"/><path d="m273.393-.422-.536.844a86.468 86.468 0 0 0 39.604 13.201c17.438 1.341 35.21-2.87 50.28-11.736C350.548 16.65 331.66 25.75 312.5 25.75c-20.12 0-40.028-9.955-52.1-26.05l-.8.6c12.27 16.36 32.45 26.45 52.9 26.45 20.45 0 40.63-10.09 52.9-26.45l-.668-.722c-15.39 9.794-34.004 14.448-52.193 13.049A85.496 85.496 0 0 1 273.393-.422Z" style="color:#000;fill:#303030;-inkscape-stroke:none" transform="translate(-259.6 1.555)"/><path d="m276.947-1.543-4.629 1.03 1.028 4.628a.5.5 0 0 0 .597.381.5.5 0 0 0 .38-.598L273.51.246l3.654-.812a.5.5 0 0 0 .379-.596.5.5 0 0 0-.596-.381z" style="color:#000;fill:#303030;stroke-linecap:round;-inkscape-stroke:none" transform="translate(-259.6 1.555)"/><path d="M312 0v3.75h1V0Zm0 4.75v4h1v-4z" style="color:#000;fill:#303030;stroke-dasharray:4,1;-inkscape-stroke:none" transform="translate(-259.6 1.555)"/></svg>