<svg xmlns="http://www.w3.org/2000/svg" width="803.096" height="1089.331" viewBox="0 0 212.486 288.219"><path d="M313.758 4473.277v8.75h1v-8.75zM336.89 4473.277v8.75h1v-8.75zM325.324 4473.277v8.75h1v-8.75z" style="color:#000;fill:gray;-inkscape-stroke:none" transform="translate(-260 -4472.782)"/><path d="M-938.612 4631.081h210v9.607h-210Z" style="fill:#f0f0f0;stroke-width:1.01749;stroke-dasharray:4.06994,1.01749" transform="matrix(1 0 .25882 .96593 -260 -4472.782)"/><path d="m312.984 4473.152-.966.258 2.486 9.28.967-.258zM295.408 4473.152l-.965.258 2.487 9.28.965-.258zM382.945 4473.148l-.966.258 2.486 9.28.967-.258zM400.408 4473.152l-.965.258 2.487 9.28.965-.258zM330.334 4473.152l-.967.258 2.487 9.28.966-.258zM365.484 4473.152l-.966.258 2.486 9.28.967-.258z" style="color:#000;fill:gray;-inkscape-stroke:none" transform="translate(-260 -4472.782)"/><path d="M470 4473.032v287.717H260v-287.717Z" style="fill:#d0d0d0;fill-opacity:1;stroke:none;stroke-width:1.32292" transform="translate(-260 -4472.782)"/><path d="M417.008 4472.781V4761h.984v-288.219zM329.582 4472.781V4761h.984v-288.219zM434.582 4472.781V4761h.984v-288.219zM347.045 4472.781V4761h.984v-288.219zM461.25 4611.5v1H470v-1zM461.25 4500.625v1H470v-1zM461.25 4537.75v1H470v-1zM461.25 4519.188v1H470v-1z" style="color:#000;fill:gray;-inkscape-stroke:none" transform="translate(-260 -4472.782)"/><path d="M260 4528.469v1h210v-1zM461.25 4482.063v1H470v-1zM260 4472.781v1h210v-1z" style="color:#000;fill:gray;-inkscape-stroke:none" transform="translate(-260 -4472.782)"/><path d="m417.977 4473.13-.956.3 1.198 3.818.955-.3zm1.496 4.772-.955.3 1.197 3.816.955-.3zm1.496 4.772-.955.299 1.197 3.816.955-.299zm1.496 4.77-.955.3 1.197 3.816.955-.298zm1.496 4.77-.955.3 1.197 3.818.955-.3zm1.496 4.772-.955.3 1.197 3.816.955-.3zm1.496 4.772-.955.299 1.197 3.816.955-.299zm1.496 4.77-.955.298 1.197 3.818.955-.3zm1.496 4.77-.955.3 1.197 3.816.956-.299zm1.496 4.772-.955.3 1.198 3.815.955-.298zm1.496 4.77-.955.3 1.198 3.817.955-.299zm1.497 4.771-.955.3 1.005 3.206.955-.299zM330.55 4473.13l-.952.3 1.197 3.818.953-.3zm1.497 4.772-.953.3 1.197 3.816.953-.3zm1.496 4.772-.953.299 1.197 3.816.953-.299zm1.496 4.77-.953.3 1.197 3.816.953-.298zm1.496 4.77-.953.3 1.197 3.818.953-.3zm1.496 4.772-.953.3 1.197 3.816.954-.3zm1.496 4.772-.953.299 1.197 3.816.954-.299zm1.496 4.77-.953.298 1.198 3.818.953-.3zm1.497 4.77-.954.3 1.198 3.816.953-.299zm1.496 4.772-.954.3 1.198 3.815.953-.298zm1.496 4.77-.953.3 1.197 3.817.953-.299zm1.496 4.771-.953.3 1.006 3.206.953-.299z" style="color:#000;fill:#303030;stroke-dasharray:4,1;-inkscape-stroke:none" transform="translate(-260 -4472.782)"/><path d="M399.65 4473.281v3.844h1v-3.844z" style="color:#000;fill:gray;-inkscape-stroke:none" transform="translate(-260 -4472.782)"/></svg>