<svg xmlns="http://www.w3.org/2000/svg" width="801.868" height="1092.411" viewBox="0 0 212.161 289.034"><path d="M262.948 5217.032v287.717h210v-287.717z" style="fill:#f0f0f0;fill-opacity:1;stroke:none;stroke-width:1.32292" transform="translate(-260.787 -5216.031)"/><path d="M314.957 5216.781V5505h.984v-288.219zM402.38 5216.781V5505h.985v-288.219zM297.38 5216.781V5505h.987v-288.219zM384.918 5216.781V5505h.986v-288.219zM262.95 5355.5v1h8.75v-1zM262.95 5244.625v1h8.75v-1zM262.95 5281.75v1h8.75v-1zM262.95 5263.188v1h8.75v-1z" style="color:#000;fill:gray;-inkscape-stroke:none" transform="translate(-260.787 -5216.031)"/><path d="M262.95 5272.469v1h209.997v-1zM262.95 5393.123v1h8.75v-1z" style="color:#000;fill:gray;-inkscape-stroke:none" transform="translate(-260.787 -5216.031)"/><path d="m263.336 5356.434-.846.513c10.043 23.205 14.563 48.78 13.084 74.022a162.863 162.863 0 0 1-13.084 55.02l.918.396a163.851 163.851 0 0 0 13.164-55.358c1.413-24.116-2.677-48.503-11.738-70.894 15.315 20.228 23.92 45.487 23.865 70.865-.056 26.486-9.448 52.87-26.138 73.436l.775.63c16.838-20.747 26.306-47.344 26.363-74.064.057-26.888-9.419-53.689-26.363-74.566z" style="color:#000;fill:#303030;-inkscape-stroke:none" transform="translate(-260.787 -5216.031)"/><path d="M261.104 5482.006a.5.5 0 0 0-.282.648l1.746 4.41 4.41-1.746a.5.5 0 0 0 .28-.648.5.5 0 0 0-.649-.281l-3.478 1.377-1.379-3.479a.5.5 0 0 0-.648-.281z" style="color:#000;fill:#303030;stroke-linecap:round;-inkscape-stroke:none" transform="translate(-260.787 -5216.031)"/><path d="M262.95 5430.498v1h3.75v-1zm4.75 0v1h4v-1z" style="color:#000;fill:#303030;stroke-dasharray:4,1;-inkscape-stroke:none" transform="translate(-260.787 -5216.031)"/><path d="M262.696 5216.532h210v9.28h-210z" style="fill:#d0d0d0;stroke-dasharray:4,1" transform="matrix(1 0 .00005 1 -260.787 -5216.031)"/><path d="M262.95 5216.031v1h209.997v-1z" style="color:#000;fill:gray;-inkscape-stroke:none" transform="translate(-260.787 -5216.031)"/><path d="M314.95 5216.531v9.28h1v-9.28zM297.373 5216.531l.002 9.28h1l-.002-9.28zM384.912 5216.527v9.28h1v-9.28zM402.373 5216.531l.002 9.28h1l-.002-9.28zM332.299 5216.531v9.28h1v-9.28zM367.45 5216.531v9.28h1v-9.28zM338.082 5216.531v8.75h1v-8.75zM326.516 5216.531v8.75h1v-8.75z" style="color:#000;fill:gray;-inkscape-stroke:none" transform="translate(-260.787 -5216.031)"/><path d="M332.166 5216.494v9.227h1v-9.227zM262.947 5225.313v1h8.75v-1zM314.97 5217.13l-17.46 55.688.953.3 17.463-55.688zM402.396 5217.13l-17.462 55.688.955.3 17.463-55.688z" style="color:#000;fill:gray;-inkscape-stroke:none" transform="translate(-260.787 -5216.031)"/></svg>