<svg xmlns="http://www.w3.org/2000/svg" width="800.119" height="1092.165" viewBox="0 0 211.698 288.969"><path d="M522.948 5217.032v287.717h210v-287.717z" style="fill:#f0f0f0;fill-opacity:1;stroke:none;stroke-width:1.32292" transform="translate(-521.25 -5216.031)"/><path d="M574.955 5216.781V5505h.986v-288.219zM662.38 5216.781V5505h.985v-288.219zM557.38 5216.781V5505h.985v-288.219zM644.918 5216.781V5505h.984v-288.219zM522.947 5355.5v1h8.75v-1zM522.947 5244.625v1h8.75v-1zM522.947 5281.75v1h8.75v-1zM522.947 5263.188v1h8.75v-1z" style="color:#000;fill:gray;-inkscape-stroke:none" transform="translate(-521.25 -5216.031)"/><path d="M522.947 5272.469v1h210v-1z" style="color:#000;fill:gray;-inkscape-stroke:none" transform="translate(-521.25 -5216.031)"/><path d="m574.97 5217.13-17.462 55.688.955.3 17.463-55.688zM662.396 5217.13l-17.462 55.688.953.3 17.463-55.688zM522.947 5393.123v1h8.75v-1zM522.947 5430.498v1h8.75v-1z" style="color:#000;fill:gray;-inkscape-stroke:none" transform="translate(-521.25 -5216.031)"/><path d="m523.27 5393.242-.752.635a32.29 32.29 0 0 1 4.306 18.504 32.192 32.192 0 0 1-4.306 13.879l.86.506a33.184 33.184 0 0 0 4.444-14.313c.4-5.528-.707-11.106-3.011-16.143 3.963 4.394 6.386 10.189 6.386 16.108 0 6.98-3.228 13.917-8.57 18.41l.643.766c5.577-4.691 8.927-11.888 8.927-19.176 0-7.288-3.35-14.485-8.927-19.176z" style="color:#000;fill:#303030;-inkscape-stroke:none" transform="translate(-521.25 -5216.031)"/><path d="M521.623 5422.14a.5.5 0 0 0-.357.61l1.199 4.59 4.588-1.201a.5.5 0 0 0 .357-.61.5.5 0 0 0-.61-.357l-3.62.947-.948-3.621a.5.5 0 0 0-.609-.357z" style="color:#000;fill:#303030;stroke-linecap:round;-inkscape-stroke:none" transform="translate(-521.25 -5216.031)"/><path d="M522.947 5411.918v1h4v-1zm5 0v1h4v-1zm5 0v1h4v-1zm5 0v1h4v-1zm5 0v1h4v-1zm5 0v1h4v-1zm5 0v1h4v-1zm5 0v1h4v-1zm5 0v1h4v-1zm5 0v1h4v-1zm5 0v1h4v-1zm5 0v1h4v-1zm5 0v1h4v-1zm5 0v1h4v-1zm5 0v1h4v-1zm5 0v1h4v-1zm5 0v1h4v-1zm5 0v1h4v-1zm5 0v1h4v-1zm5 0v1h4v-1zm5 0v1h4v-1zm5 0v1h4v-1zm5 0v1h4v-1zm5 0v1h4v-1zm5 0v1h4v-1zm5 0v1h4v-1zm5 0v1h4v-1zm5 0v1h4v-1zm5 0v1h4v-1zm5 0v1h4v-1zm5 0v1h4v-1zm5 0v1h4v-1zm5 0v1h4v-1zm5 0v1h4v-1zm5 0v1h4v-1zm5 0v1h4v-1zm5 0v1h4v-1zm5 0v1h4v-1zm5 0v1h4v-1zm5 0v1h4v-1zm5 0v1h4v-1zm5 0v1h4v-1z" style="color:#000;fill:#303030;stroke-dasharray:4,1;-inkscape-stroke:none" transform="translate(-521.25 -5216.031)"/><path d="M522.695 5216.532h210v9.28h-210z" style="fill:#d0d0d0;stroke-dasharray:4,1" transform="matrix(1 0 .00005 1 -521.25 -5216.031)"/><path d="M522.947 5216.031v1h210v-1z" style="color:#000;fill:gray;-inkscape-stroke:none" transform="translate(-521.25 -5216.031)"/><path d="m574.947 5216.531.002 9.28h1l-.002-9.28zM557.373 5216.531v9.28h1v-9.28zM644.91 5216.527l.002 9.28h1l-.002-9.28zM662.373 5216.531v9.28h1v-9.28zM592.299 5216.531v9.28h1v-9.28zM627.447 5216.531l.002 9.28h1l-.002-9.28zM598.082 5216.531v8.75h1v-8.75zM586.516 5216.531v8.75h1v-8.75z" style="color:#000;fill:gray;-inkscape-stroke:none" transform="translate(-521.25 -5216.031)"/><path d="M592.166 5216.494v9.227h1v-9.227zM522.947 5225.313v1h8.75v-1z" style="color:#000;fill:gray;-inkscape-stroke:none" transform="translate(-521.25 -5216.031)"/></svg>