<svg xmlns="http://www.w3.org/2000/svg" width="793.702" height="1092.165" viewBox="0 0 210 288.969"><defs><path id="a" d="M7114.307 673.712h658.781V869.61h-658.781z"/></defs><path d="M260 5961.28v287.717h210V5961.28z" style="fill:#f0f0f0;fill-opacity:1;stroke:none;stroke-width:1.32292" transform="translate(-260 -5960.28)"/><path d="M312.008 5961.03v288.218h.986v-288.219zM399.434 5961.03v288.218h.984v-288.219zM294.434 5961.03v288.218h.984v-288.219zM381.97 5961.03v288.218h.985v-288.219zM260 6099.748v1h8.75v-1zM260 5988.873v1h8.75v-1zM260 6025.998v1h8.75v-1zM260 6007.435v1h8.75v-1z" style="color:#000;fill:gray;-inkscape-stroke:none" transform="translate(-260 -5960.28)"/><path d="M260 6016.717v1h210v-1z" style="color:#000;fill:gray;-inkscape-stroke:none" transform="translate(-260 -5960.28)"/><path d="m312.023 5961.379-17.462 55.687.955.3 17.463-55.688zM399.45 5961.379l-17.464 55.687.953.3 17.463-55.688zM260 6137.371v1h8.75v-1zM260 6174.746v1h8.75v-1zM260 6156.166v1h210v-1z" style="color:#000;fill:gray;-inkscape-stroke:none" transform="translate(-260 -5960.28)"/><path d="M259.712 5960.78H469.71v9.28h-210Z" style="fill:#d0d0d0;stroke-dasharray:4,1" transform="matrix(1 0 .00005 1 -260 -5960.28)"/><path d="M260 5960.28v1h210v-1z" style="color:#000;fill:gray;-inkscape-stroke:none" transform="translate(-260 -5960.28)"/><path d="m312 5960.78.002 9.279h1l-.002-9.28ZM294.426 5960.78v9.279h1v-9.28zM381.963 5960.775l.002 9.28h1l-.002-9.28zM399.426 5960.78v9.279h1v-9.28zM329.352 5960.78v9.279h1v-9.28zM364.5 5960.78l.002 9.279h1l-.002-9.28zM335.135 5960.78v8.75h1v-8.75zM323.568 5960.78v8.75h1v-8.75z" style="color:#000;fill:gray;-inkscape-stroke:none" transform="translate(-260 -5960.28)"/><path d="M329.219 5960.742v9.227h1v-9.227zM260 5969.56v1h8.75v-1zM355.713 6240.246v8.75h1v-8.75z" style="color:#000;fill:gray;-inkscape-stroke:none" transform="translate(-260 -5960.28)"/><g aria-label="turn the page over" style="font-size:72px;line-height:1.25;font-family:&quot;Noto Sans&quot;;-inkscape-font-specification:&quot;Noto Sans&quot;;letter-spacing:0;white-space:pre;shape-inside:url(#a);display:inline" transform="matrix(.26458 0 0 .26458 -1863.242 32.117)"><path d="M7133.315 734.76q1.44 0 2.952-.216 1.512-.288 2.448-.576v4.824q-1.008.504-2.88.792-1.872.36-3.6.36-3.024 0-5.616-1.008-2.52-1.08-4.104-3.672t-1.584-7.272v-22.464h-5.472v-3.024l5.544-2.52 2.52-8.208h3.744v8.856h11.16v4.896h-11.16v22.32q0 3.528 1.656 5.256 1.728 1.656 4.392 1.656zM7178.675 700.632v38.592h-5.184l-.936-5.112h-.288q-1.872 3.024-5.184 4.464-3.312 1.368-7.056 1.368-6.984 0-10.512-3.312-3.528-3.384-3.528-10.728v-25.272h6.408v24.84q0 9.216 8.568 9.216 6.408 0 8.856-3.6 2.52-3.6 2.52-10.368v-20.088zM7208.915 699.912q1.08 0 2.304.144 1.296.072 2.232.288l-.792 5.832q-.936-.216-2.088-.36-1.08-.144-2.088-.144-2.952 0-5.544 1.656-2.592 1.584-4.176 4.536-1.512 2.88-1.512 6.768v20.592h-6.336v-38.592h5.184l.72 7.056h.288q1.872-3.168 4.824-5.472 2.952-2.304 6.984-2.304zM7239.227 699.912q6.912 0 10.44 3.384 3.528 3.312 3.528 10.8v25.128h-6.264v-24.696q0-9.288-8.64-9.288-6.408 0-8.856 3.6-2.448 3.6-2.448 10.368v20.016h-6.336v-38.592h5.112l.936 5.256h.36q1.872-3.024 5.184-4.464 3.312-1.512 6.984-1.512zM7296.755 734.76q1.44 0 2.952-.216 1.512-.288 2.448-.576v4.824q-1.008.504-2.88.792-1.872.36-3.6.36-3.024 0-5.616-1.008-2.52-1.08-4.104-3.672t-1.584-7.272v-22.464h-5.472v-3.024l5.544-2.52 2.52-8.208h3.744v8.856h11.16v4.896h-11.16v22.32q0 3.528 1.656 5.256 1.728 1.656 4.392 1.656zM7316.195 700.56q0 2.88-.36 5.4h.432q1.872-2.952 5.04-4.464 3.24-1.512 6.984-1.512 7.056 0 10.584 3.384 3.528 3.312 3.528 10.728v25.128h-6.264v-24.696q0-9.288-8.64-9.288-6.48 0-8.928 3.672-2.376 3.6-2.376 10.368v19.944h-6.336v-54.72h6.336zM7369.259 699.912q4.968 0 8.496 2.16 3.6 2.16 5.472 6.12 1.944 3.888 1.944 9.144v3.816h-26.424q.144 6.552 3.312 10.008 3.24 3.384 9 3.384 3.672 0 6.48-.648 2.88-.72 5.904-2.016v5.544q-2.952 1.296-5.832 1.872-2.88.648-6.84.648-5.472 0-9.72-2.232-4.176-2.232-6.552-6.624-2.304-4.464-2.304-10.872 0-6.336 2.088-10.872 2.16-4.536 5.976-6.984 3.888-2.448 9-2.448zm-.072 5.184q-4.536 0-7.2 2.952-2.592 2.88-3.096 8.064h19.656q-.072-4.896-2.304-7.92-2.232-3.096-7.056-3.096zM7432.043 699.912q7.128 0 11.448 4.968 4.392 4.968 4.392 14.976 0 9.864-4.392 14.976-4.32 5.112-11.52 5.112-4.464 0-7.416-1.656-2.88-1.728-4.536-3.96h-.432q.144 1.224.288 3.096t.144 3.24v15.84h-6.336v-55.872h5.184l.864 5.256h.288q1.728-2.52 4.536-4.248 2.808-1.728 7.488-1.728zm-1.152 5.328q-5.904 0-8.352 3.312-2.376 3.312-2.52 10.08v1.224q0 7.128 2.304 11.016 2.376 3.816 8.712 3.816 3.528 0 5.76-1.944 2.304-1.944 3.384-5.256 1.152-3.384 1.152-7.704 0-6.624-2.592-10.584-2.52-3.96-7.848-3.96zM7472.579 699.984q7.056 0 10.44 3.096 3.384 3.096 3.384 9.864v26.28h-4.608l-1.224-5.472h-.288q-2.52 3.168-5.328 4.68-2.736 1.512-7.632 1.512-5.256 0-8.712-2.736-3.456-2.808-3.456-8.712 0-5.76 4.536-8.856 4.536-3.168 13.968-3.456l6.552-.216v-2.304q0-4.824-2.088-6.696-2.088-1.872-5.904-1.872-3.024 0-5.76.936-2.736.864-5.112 2.016l-1.944-4.752q2.52-1.368 5.976-2.304 3.456-1.008 7.2-1.008zm1.872 20.592q-7.2.288-10.008 2.304-2.736 2.016-2.736 5.688 0 3.24 1.944 4.752 2.016 1.512 5.112 1.512 4.896 0 8.136-2.664 3.24-2.736 3.24-8.352v-3.456zM7512.035 699.912q3.816 0 6.84 1.44 3.096 1.44 5.256 4.392h.36l.864-5.112h5.04v39.24q0 8.28-4.248 12.456-4.176 4.176-13.032 4.176-8.496 0-13.896-2.448v-5.832q5.688 3.024 14.256 3.024 4.968 0 7.776-2.952 2.88-2.88 2.88-7.92v-1.512q0-.864.072-2.448.072-1.656.144-2.304h-.288q-3.888 5.832-11.952 5.832-7.488 0-11.736-5.256-4.176-5.256-4.176-14.688 0-9.216 4.176-14.616 4.248-5.472 11.664-5.472zm.864 5.328q-4.824 0-7.488 3.888-2.664 3.816-2.664 10.944 0 7.128 2.592 10.944 2.664 3.744 7.704 3.744 5.832 0 8.496-3.096 2.664-3.168 2.664-10.152V720q0-7.92-2.736-11.304-2.736-3.456-8.568-3.456zM7557.539 699.912q4.968 0 8.496 2.16 3.6 2.16 5.472 6.12 1.944 3.888 1.944 9.144v3.816h-26.424q.144 6.552 3.312 10.008 3.24 3.384 9 3.384 3.672 0 6.48-.648 2.88-.72 5.904-2.016v5.544q-2.952 1.296-5.832 1.872-2.88.648-6.84.648-5.472 0-9.72-2.232-4.176-2.232-6.552-6.624-2.304-4.464-2.304-10.872 0-6.336 2.088-10.872 2.16-4.536 5.976-6.984 3.888-2.448 9-2.448zm-.072 5.184q-4.536 0-7.2 2.952-2.592 2.88-3.096 8.064h19.656q-.072-4.896-2.304-7.92-2.232-3.096-7.056-3.096zM7635.515 719.856q0 9.576-4.896 14.832-4.824 5.256-13.104 5.256-5.112 0-9.144-2.304-3.96-2.376-6.264-6.84-2.304-4.536-2.304-10.944 0-9.576 4.824-14.76 4.824-5.184 13.104-5.184 5.256 0 9.216 2.376 4.032 2.304 6.264 6.768 2.304 4.392 2.304 10.8zm-29.16 0q0 6.84 2.664 10.872 2.736 3.96 8.64 3.96 5.832 0 8.568-3.96 2.736-4.032 2.736-10.872t-2.736-10.728q-2.736-3.888-8.64-3.888t-8.568 3.888q-2.664 3.888-2.664 10.728zM7652.578 739.224l-14.616-38.592h6.768l8.209 22.752q.575 1.584 1.223 3.528.648 1.944 1.152 3.744.504 1.728.72 2.952h.289q.287-1.224.791-3.024.577-1.8 1.225-3.744.72-1.944 1.223-3.456l8.209-22.752h6.767l-14.687 38.592zM7695.563 699.912q4.967 0 8.495 2.16 3.6 2.16 5.473 6.12 1.943 3.888 1.943 9.144v3.816h-26.423q.143 6.552 3.311 10.008 3.24 3.384 9 3.384 3.673 0 6.48-.648 2.88-.72 5.905-2.016v5.544q-2.953 1.296-5.833 1.872-2.88.648-6.84.648-5.471 0-9.72-2.232-4.176-2.232-6.552-6.624-2.303-4.464-2.303-10.872 0-6.336 2.087-10.872 2.16-4.536 5.976-6.984 3.888-2.448 9-2.448zm-.073 5.184q-4.535 0-7.2 2.952-2.591 2.88-3.095 8.064h19.656q-.072-4.896-2.304-7.92-2.232-3.096-7.056-3.096zM7739.266 699.912q1.08 0 2.305.144 1.295.072 2.231.288l-.791 5.832q-.937-.216-2.089-.36-1.08-.144-2.087-.144-2.953 0-5.545 1.656-2.591 1.584-4.175 4.536-1.513 2.88-1.513 6.768v20.592h-6.335v-38.592h5.183l.72 7.056h.289q1.871-3.168 4.823-5.472 2.952-2.304 6.984-2.304z"/></g><path d="M362.867 1621.74c-2.728 0-5.337 1.305-7.174 3.276-1.831 1.965-2.907 4.528-3.32 7.146-.604 3.83.19 7.852 2.203 11.164 1.633 2.685 4.068 4.83 6.883 6.215-3.326.989-6.98.903-10.201-.387a15.7 15.7 0 0 1-7.95-7.148l-.884.469a16.678 16.678 0 0 0 8.463 7.609 16.67 16.67 0 0 0 11.373.336c.21-.07.4-.187.607-.266.207.078.396.196.606.266a16.676 16.676 0 0 0 11.375-.336 16.674 16.674 0 0 0 8.46-7.61l-.884-.468a15.7 15.7 0 0 1-7.95 7.148c-3.22 1.29-6.875 1.375-10.2.387 2.815-1.385 5.25-3.53 6.882-6.215a16.675 16.675 0 0 0 2.205-11.164c-.413-2.618-1.49-5.181-3.322-7.146-1.837-1.97-4.444-3.276-7.172-3.276zm0 1c2.406 0 4.778 1.172 6.442 2.957 1.668 1.79 2.677 4.169 3.064 6.621a15.7 15.7 0 0 1-2.07 10.489c-1.705 2.803-4.403 4.906-7.436 6.16-3.033-1.254-5.73-3.356-7.435-6.16a15.7 15.7 0 0 1-2.07-10.489c.386-2.452 1.395-4.83 3.064-6.62 1.664-1.786 4.035-2.958 6.441-2.958z" style="color:#000;fill:#000;-inkscape-stroke:none" transform="translate(-258.577 -1491.64)"/><path d="m383.314 1641.395-4.533 1.394a.5.5 0 0 0-.33.625.5.5 0 0 0 .625.33l3.576-1.1 1.1 3.579a.5.5 0 0 0 .625.33.5.5 0 0 0 .332-.625z" style="color:#000;fill:#000;stroke-linecap:round;-inkscape-stroke:none" transform="translate(-258.577 -1491.64)"/></svg>