<svg xmlns="http://www.w3.org/2000/svg" width="803.098" height="1090.29" viewBox="0 0 212.486 288.473"><path d="M-1077.253 6171.314h210v9.607h-210z" style="fill:#f0f0f0;stroke-width:1.01749;stroke-dasharray:4.06994,1.01749" transform="matrix(1 0 .25882 .96593 -520 -5960.527)"/><path d="M520 5960.531v1h210v-1z" style="color:#000;fill:gray;-inkscape-stroke:none" transform="translate(-520 -5960.527)"/><path d="M659.65 5961.031v3.844h1v-3.844z" style="color:#000;fill:gray;-inkscape-stroke:none" transform="translate(-520 -5960.527)"/><path d="M730 5961.032v287.716H520v-287.716z" style="fill:#d0d0d0;fill-opacity:1;stroke:none;stroke-width:1.32292" transform="translate(-520 -5960.527)"/><path d="M677.008 5960.781V6249h.984v-288.219zM589.582 5960.781V6249h.984v-288.219zM694.582 5960.781V6249h.984v-288.219zM607.045 5960.781V6249h.984v-288.219zM721.25 6099.5v1H730v-1zM721.25 5988.625v1H730v-1zM721.25 6025.75v1H730v-1zM721.25 6007.188v1H730v-1z" style="color:#000;fill:gray;-inkscape-stroke:none" transform="translate(-520 -5960.527)"/><path d="M520 6016.469v1h210v-1z" style="color:#000;fill:gray;-inkscape-stroke:none" transform="translate(-520 -5960.527)"/><path d="m677.977 5961.13-.956.3 17.463 55.687.955-.299zM590.55 5961.13l-.952.3 17.463 55.687.953-.299zM721.25 6137.123v1H730v-1zM721.25 6174.498v1H730v-1zM520 6155.918v1h210v-1z" style="color:#000;fill:gray;-inkscape-stroke:none" transform="translate(-520 -5960.527)"/><path d="m677 5960.531-.002 9.28h1l.002-9.28zM694.574 5960.531v9.28h1v-9.28zM607.037 5960.527v9.28h1v-9.28zM589.574 5960.531v9.28h1v-9.28zM721.25 5969.313v1H730v-1zM633.287 6239.998v8.75h1v-8.75z" style="color:#000;fill:gray;-inkscape-stroke:none" transform="translate(-520 -5960.527)"/><path d="m608.018 6156.281-.961.274 1.093 3.847.961-.273zm1.367 4.809-.961.273 1.094 3.848.96-.273zm1.367 4.81-.961.274 1.094 3.848.96-.274zm1.367 4.809-.96.273 1.093 3.848.96-.273zm1.367 4.81-.96.274 1.093 3.848.963-.274zm1.37 4.81-.963.273 1.093 3.847.963-.273zm1.367 4.808-.963.273 1.094 3.848.962-.274zm1.367 4.81-.963.274 1.094 3.847.963-.273zm1.367 4.809-.963.273 1.094 3.848.963-.273zm1.367 4.81-.963.274 1.094 3.848.963-.274zm1.367 4.809-.962.273 1.093 3.848.963-.273zm1.368 4.81-.963.274 1.095 3.846.961-.274zm1.367 4.81-.961.273 1.094 3.847.96-.273zm1.367 4.808-.961.273 1.094 3.848.96-.274zm1.367 4.81-.96.274 1.093 3.847.96-.273zm1.367 4.809-.96.273 1.093 3.848.961-.273zm1.368 4.81-.961.274 1.093 3.848.961-.274zm1.367 4.809-.961.274 1.094 3.847.96-.273zm1.367 4.809-.961.273 1.094 3.848.963-.274zm1.37 4.81-.964.274.272.95.96-.273z" style="color:#000;fill:#303030;stroke-dasharray:4,1;-inkscape-stroke:none" transform="translate(-520 -5960.527)"/></svg>