<svg xmlns="http://www.w3.org/2000/svg" width="793.184" height="201.556" viewBox="0 0 209.863 53.328"><path d="M.818 871.36v47.054h208.364V871.36z" style="fill:#f0f0f0;fill-opacity:1;stroke:none;stroke-width:4.26158" transform="translate(-.068 -865.836)"/><path d="M.818 865.836v.75h-.75v7.398h1.5v-6.648h7.297v-1.5zm10.059 0v1.5h8.047v-1.5zm10.059 0v1.5h8.046v-1.5zm10.058 0v1.5h8.047v-1.5zm10.059 0v1.5H49.1v-1.5zm10.058 0v1.5h8.045v-1.5zm10.057 0v1.5h8.047v-1.5zm10.059 0v1.5h8.046v-1.5zm10.058 0v1.5h8.047v-1.5zm10.059 0v1.5h8.047v-1.5zm10.058 0v1.5h8.047v-1.5zm10.059 0v1.5h8.047v-1.5zm10.059 0v1.5h8.046v-1.5zm10.058 0v1.5h8.047v-1.5zm10.059 0v1.5h8.047v-1.5zm10.058 0v1.5h8.047v-1.5zm10.059 0v1.5h8.047v-1.5zm10.059 0v1.5h8.046v-1.5zm10.058 0v1.5h8.047v-1.5zm10.059 0v1.5h8.047v-1.5zm10.058 0v1.5h6.444v.103h1.5v-1.603zm6.444 3.615v8.047h1.5v-8.047zM.068 875.996v8.047h1.5v-8.047zm208.364 3.514v8.047h1.5v-8.047zM.068 886.055v8.047h1.5v-8.047zm208.364 3.513v8.047h1.5v-8.047zM.068 896.113v8.047h1.5v-8.047zm208.364 3.514v8.047h1.5v-8.047zM.068 906.172v8.047h1.5v-8.047zm208.364 3.514v8.046h1.5v-8.046zM.068 916.23v2.934h6.614v-1.5H1.568v-1.434zm8.625 1.434v1.5h8.047v-1.5zm10.059 0v1.5h8.047v-1.5zm10.059 0v1.5h8.046v-1.5zm10.058 0v1.5h8.047v-1.5zm10.059 0v1.5h8.047v-1.5zm10.058 0v1.5h8.047v-1.5zm10.059 0v1.5h8.047v-1.5zm10.059 0v1.5h8.046v-1.5zm10.058 0v1.5h8.047v-1.5zm10.059 0v1.5h8.047v-1.5zm10.058 0v1.5h8.047v-1.5zm10.059 0v1.5h8.047v-1.5zm10.058 0v1.5h8.045v-1.5zm10.057 0v1.5h8.047v-1.5zm10.059 0v1.5h8.047v-1.5zm10.058 0v1.5h8.047v-1.5zm10.059 0v1.5h8.047v-1.5zm10.059 0v1.5h8.046v-1.5zm10.058 0v1.5h8.047v-1.5zm10.059 0v1.5h8.047v-1.5z" style="color:#000;fill:#0d805a;stroke-dasharray:8.04684,2.0117;-inkscape-stroke:none" transform="translate(-.068 -865.836)"/><path d="M18.83 871.36v28.187h3.22v-28.188zM187.95 871.36v42.28h3.222v-42.28zM93.35 871.36v28.187h3.222v-28.188z" style="color:#000;fill:gray;-inkscape-stroke:none" transform="translate(-.068 -865.836)"/><path d="m30.12 870.664-1.104 1.018c7.355 7.97 17.634 13.153 28.416 14.33 11.51 1.255 23.346-2.242 32.537-9.237-3.237 3.71-7.053 6.92-11.348 9.323a43.166 43.166 0 0 1-21.105 5.464 43.168 43.168 0 0 1-21.034-5.59 43.168 43.168 0 0 1-15.587-15.187l-1.286.774a44.647 44.647 0 0 0 16.133 15.718 44.642 44.642 0 0 0 21.768 5.785 44.644 44.644 0 0 0 21.844-5.654 44.649 44.649 0 0 0 16.248-15.658l-1.19-.902c-9.252 9.911-23.34 15.142-36.818 13.672-10.411-1.136-20.372-6.16-27.475-13.856z" style="color:#000;fill:#000;-inkscape-stroke:none" transform="translate(-.068 -865.836)"/><path d="m28.594 870.117-.285 7.11a.75.75 0 0 0 .718.779.75.75 0 0 0 .78-.72l.226-5.61 5.61.226a.75.75 0 0 0 .779-.72.75.75 0 0 0-.72-.78z" style="color:#000;fill:#000;stroke-linecap:round;-inkscape-stroke:none" transform="translate(-.068 -865.836)"/><path d="M55.902 871.36v12.08h3.221v-12.08zm0 15.302v12.885h3.221v-12.885z" style="color:#000;fill:#303030;stroke-dasharray:12.8854,3.22134;-inkscape-stroke:none" transform="translate(-.068 -865.836)"/></svg>