<svg xmlns="http://www.w3.org/2000/svg" width="791.243" height="194.432" viewBox="0 0 209.35 51.443"><defs><path id="a" d="M4350.662 485.749h249.405v169.893h-249.405z"/></defs><path d="M262.151 872.521v46.027H470V872.52z" style="fill:#f0f0f0;fill-opacity:1;stroke:none;stroke-width:4.24422" transform="translate(-261.4 -867.853)"/><path d="M280.256 872.521v28.073h3.209V872.52z" style="color:#000;fill:gray;-inkscape-stroke:none" transform="translate(-261.4 -867.853)"/><path d="M262.15 867.854v.75h-.75v5.583h1.5v-4.833h5.25v-1.5zm7.5 0v1.5h6v-1.5zm7.5 0v1.5h6v-1.5zm7.5 0v1.5h6v-1.5zm7.5 0v1.5h6v-1.5zm7.5 0v1.5h6v-1.5zm7.5 0v1.5h6v-1.5zm7.5 0v1.5h6v-1.5zm7.5 0v1.5h6v-1.5zm7.5 0v1.5h6v-1.5zm7.5 0v1.5h6v-1.5zm7.5 0v1.5h6.002v-1.5zm7.502 0v1.5h6v-1.5zm7.5 0v1.5h6v-1.5zm7.5 0v1.5h6v-1.5zm7.5 0v1.5h6v-1.5zm7.5 0v1.5h6v-1.5zm7.5 0v1.5h6v-1.5zm7.5 0v1.5h6v-1.5zm7.5 0v1.5h6v-1.5zm7.5 0v1.5h6v-1.5zm7.5 0v1.5h6v-1.5zm7.5 0v1.5h6v-1.5zm7.5 0v1.5h6v-1.5zm7.5 0v1.5h6v-1.5zm7.5 0v1.5h6v-1.5zm7.5 0v1.5h6v-1.5zm7.5 0v1.5H470l-.098-.098h.848v-1.403zm4.598 2.902v6h1.5v-6zm-207.85 4.932v6h1.5v-6zm207.85 2.568v6h1.5v-6zm-207.85 4.932v6h1.5v-6zm207.85 2.568v6h1.5v-6zm-207.85 4.932v6h1.5v-6zm207.85 2.568v6h1.5v-6zm-207.85 4.932v6h1.5v-6zm207.85 2.568v6h1.5v-6zm-207.85 4.932v6h1.5v-6zm207.85 2.568v6h1.5v-6zm-207.85 4.932v6.109h1.391v-1.5h.11v-4.61Zm207.85 2.568v2.04h-2.457v1.5h3.957v-3.54zm-204.959 2.04v1.5h6v-1.5zm7.5 0v1.5h6v-1.5zm7.5 0v1.5h6.002v-1.5zm7.502 0v1.5h6v-1.5zm7.5 0v1.5h6v-1.5zm7.5 0v1.5h6v-1.5zm7.5 0v1.5h6v-1.5zm7.5 0v1.5h6v-1.5zm7.5 0v1.5h6v-1.5zm7.5 0v1.5h6v-1.5zm7.5 0v1.5h6v-1.5zm7.5 0v1.5h6v-1.5zm7.5 0v1.5h6v-1.5zm7.5 0v1.5h6v-1.5zm7.5 0v1.5h6v-1.5zm7.5 0v1.5h6v-1.5zm7.5 0v1.5h6v-1.5zm7.5 0v1.5h6v-1.5zm7.5 0v1.5h6v-1.5zm7.5 0v1.5h6v-1.5zm7.5 0v1.5h6v-1.5zm7.5 0v1.5h6v-1.5zm7.5 0v1.5h6v-1.5zm7.5 0v1.5h6v-1.5zm7.5 0v1.5h6v-1.5zm7.5 0v1.5h6v-1.5zm7.5 0v1.5h6v-1.5z" style="color:#000;fill:#0d805a;stroke-dasharray:6.00001,1.5;-inkscape-stroke:none" transform="translate(-261.4 -867.853)"/><path d="M448.688 872.521v42.108h3.208V872.52zM364.473 872.521v28.073h3.207V872.52zM322.363 872.521v28.073h3.21V872.52z" style="color:#000;fill:gray;-inkscape-stroke:none" transform="translate(-261.4 -867.853)"/><path d="m329.006 871.59-.674.738a28.948 28.948 0 0 0 16.262 7.334c7.004.76 14.157-1.311 19.867-5.422-1.728 3.186-4.05 6.06-7.065 8.07a22.478 22.478 0 0 1-12.375 3.747c-4.37 0-8.737-1.323-12.373-3.746a22.48 22.48 0 0 1-8.218-9.983l-.924.385a23.462 23.462 0 0 0 8.588 10.43 23.452 23.452 0 0 0 12.927 3.914c4.572 0 9.127-1.379 12.93-3.914a23.458 23.458 0 0 0 8.586-10.43l-.787-.57c-5.727 4.915-13.546 7.339-21.049 6.525a27.969 27.969 0 0 1-15.695-7.078z" style="color:#000;fill:#303030;-inkscape-stroke:none" transform="translate(-261.4 -867.853)"/><path d="m332.7 871.096-4.74.218.22 4.737a.5.5 0 0 0 .523.476.5.5 0 0 0 .477-.521l-.172-3.738 3.738-.174a.5.5 0 0 0 .477-.522.5.5 0 0 0-.524-.476z" style="color:#000;fill:#303030;stroke-linecap:round;-inkscape-stroke:none" transform="translate(-261.4 -867.853)"/><path d="M343.418 872.521v10.028h3.209V872.52zm0 13.237v12.832h3.209v-12.832zm0 16.039v12.832h3.209v-12.832z" style="color:#000;fill:#303030;stroke-dasharray:12.832,3.208;-inkscape-stroke:none" transform="translate(-261.4 -867.853)"/><g aria-label="important pinch mark, make it longer" style="font-size:28px;line-height:1.25;letter-spacing:0;white-space:pre;shape-inside:url(#a);display:inline" transform="matrix(.26458 0 0 .26458 -1032.68 -114.915)"><path d="M4354.862 496.555h-2.324v14.672h2.324zm0-5.74h-2.352v2.94h2.352zM4358.838 496.555v14.672h2.352v-9.212c0-2.128 1.54-3.836 3.444-3.836 1.736 0 2.716 1.064 2.716 2.94v10.108h2.352v-9.212c0-2.128 1.54-3.836 3.444-3.836 1.708 0 2.716 1.092 2.716 2.94v10.108h2.352v-11.004c0-2.632-1.512-4.088-4.256-4.088-1.96 0-3.136.588-4.508 2.24-.868-1.568-2.044-2.24-3.948-2.24-1.96 0-3.276.728-4.508 2.492v-2.072zM4381.742 517.33h2.352v-7.643c1.232 1.512 2.604 2.184 4.508 2.184 3.808 0 6.272-3.052 6.272-7.728 0-4.928-2.408-8.008-6.3-8.008-1.988 0-3.584.896-4.676 2.632v-2.212h-2.156zm6.44-19.011c2.576 0 4.256 2.268 4.256 5.768 0 3.332-1.708 5.6-4.256 5.6-2.492 0-4.088-2.24-4.088-5.684s1.596-5.684 4.088-5.684zM4403.414 496.135c-4.144 0-6.608 2.94-6.608 7.868 0 4.956 2.464 7.868 6.636 7.868 4.144 0 6.636-2.94 6.636-7.756 0-5.096-2.408-7.98-6.664-7.98zm.028 2.156c2.632 0 4.2 2.156 4.2 5.796 0 3.472-1.624 5.628-4.2 5.628-2.604 0-4.2-2.156-4.2-5.712 0-3.556 1.596-5.712 4.2-5.712zM4413.298 496.555v14.672h2.352v-7.616c.028-3.528 1.484-5.096 4.704-5.012v-2.38c-.392-.056-.616-.084-.896-.084-1.512 0-2.66.896-4.004 3.08v-2.66zM4428.558 496.555h-2.408v-4.032h-2.324v4.032h-1.988v1.904h1.988v11.088c0 1.512 1.008 2.324 2.828 2.324.616 0 1.12-.056 1.904-.196v-1.96c-.336.084-.644.112-1.12.112-1.008 0-1.288-.28-1.288-1.316v-10.052h2.408zM4444.154 509.855c-.252.056-.364.056-.504.056-.812 0-1.26-.42-1.26-1.148v-8.624c0-2.604-1.904-4.004-5.516-4.004-2.156 0-3.864.616-4.872 1.708-.672.756-.952 1.596-1.008 3.052h2.352c.196-1.792 1.26-2.604 3.444-2.604 2.128 0 3.276.784 3.276 2.184v.616c-.028 1.008-.532 1.372-2.436 1.624-3.304.42-3.808.532-4.704.896-1.708.728-2.576 2.016-2.576 3.92 0 2.66 1.848 4.34 4.816 4.34 1.848 0 3.332-.644 4.984-2.156.168 1.512.896 2.156 2.408 2.156.504 0 .812-.056 1.596-.252zm-4.088-3.248c0 .784-.224 1.26-.924 1.904-.952.868-2.1 1.316-3.472 1.316-1.82 0-2.884-.868-2.884-2.352 0-1.54 1.008-2.324 3.528-2.688 2.492-.336 2.968-.448 3.752-.812zM4446.702 496.555v14.672h2.352v-8.092c0-2.996 1.568-4.956 3.976-4.956 1.848 0 3.024 1.12 3.024 2.884v10.164h2.324v-11.088c0-2.436-1.82-4.004-4.648-4.004-2.184 0-3.584.84-4.872 2.884v-2.464zM4467.422 496.555h-2.408v-4.032h-2.324v4.032h-1.988v1.904h1.988v11.088c0 1.512 1.008 2.324 2.828 2.324.616 0 1.12-.056 1.904-.196v-1.96c-.336.084-.644.112-1.12.112-1.008 0-1.288-.28-1.288-1.316v-10.052h2.408zM4477.39 517.33h2.352v-7.643c1.232 1.512 2.604 2.184 4.508 2.184 3.808 0 6.272-3.052 6.272-7.728 0-4.928-2.408-8.008-6.3-8.008-1.988 0-3.584.896-4.676 2.632v-2.212h-2.156zm6.44-19.011c2.576 0 4.256 2.268 4.256 5.768 0 3.332-1.708 5.6-4.256 5.6-2.492 0-4.088-2.24-4.088-5.684s1.596-5.684 4.088-5.684zM4495.646 496.555h-2.324v14.672h2.324zm0-5.74h-2.352v2.94h2.352zM4499.622 496.555v14.672h2.352v-8.092c0-2.996 1.568-4.956 3.976-4.956 1.848 0 3.024 1.12 3.024 2.884v10.164h2.324v-11.088c0-2.436-1.82-4.004-4.648-4.004-2.184 0-3.584.84-4.872 2.884v-2.464zM4526.418 501.483c-.112-1.428-.42-2.352-.98-3.164-1.008-1.372-2.772-2.184-4.816-2.184-3.976 0-6.524 3.136-6.524 8.008 0 4.732 2.52 7.728 6.496 7.728 3.5 0 5.712-2.1 5.992-5.684h-2.352c-.392 2.352-1.596 3.528-3.584 3.528-2.576 0-4.116-2.1-4.116-5.572 0-3.668 1.512-5.852 4.06-5.852 1.96 0 3.192 1.148 3.472 3.192zM4529.19 490.815v20.412h2.324v-8.092c0-2.996 1.568-4.956 3.976-4.956.784 0 1.512.224 2.072.644.672.504.952 1.204.952 2.24v10.164h2.324v-11.088c0-2.464-1.764-4.004-4.62-4.004-2.072 0-3.332.644-4.704 2.436v-7.756zM4352.622 533.119v14.672h2.352v-9.212c0-2.128 1.54-3.836 3.444-3.836 1.736 0 2.716 1.064 2.716 2.94v10.108h2.352v-9.212c0-2.128 1.54-3.836 3.444-3.836 1.708 0 2.716 1.092 2.716 2.94v10.108h2.352v-11.004c0-2.632-1.512-4.088-4.256-4.088-1.96 0-3.136.588-4.508 2.24-.868-1.568-2.044-2.24-3.948-2.24-1.96 0-3.276.728-4.508 2.492v-2.072zM4388.966 546.419c-.252.056-.364.056-.504.056-.812 0-1.26-.42-1.26-1.148v-8.624c0-2.604-1.904-4.004-5.516-4.004-2.156 0-3.864.616-4.872 1.708-.672.756-.952 1.596-1.008 3.052h2.352c.196-1.792 1.26-2.604 3.444-2.604 2.128 0 3.276.784 3.276 2.184v.616c-.028 1.008-.532 1.372-2.436 1.624-3.304.42-3.808.532-4.704.896-1.708.728-2.576 2.016-2.576 3.92 0 2.66 1.848 4.34 4.816 4.34 1.848 0 3.332-.644 4.984-2.156.168 1.512.896 2.156 2.408 2.156.504 0 .812-.056 1.596-.252zm-4.088-3.248c0 .784-.224 1.26-.924 1.904-.952.868-2.1 1.316-3.472 1.316-1.82 0-2.884-.868-2.884-2.352 0-1.54 1.008-2.324 3.528-2.688 2.492-.336 2.968-.448 3.752-.812zM4391.486 533.119v14.672h2.352v-7.616c.028-3.528 1.484-5.096 4.704-5.012v-2.38c-.392-.056-.616-.084-.896-.084-1.512 0-2.66.896-4.004 3.08v-2.66zM4402.966 527.379h-2.324v20.412h2.324v-5.712l2.268-2.24 4.956 7.952h2.884l-5.992-9.604 5.096-5.068h-2.996l-6.216 6.216zM4415.314 544.879v2.912h1.68v.504c0 1.932-.364 2.492-1.68 2.548v1.064c1.848.056 2.94-1.288 2.94-3.668v-3.36zM4430.406 533.119v14.672h2.352v-9.212c0-2.128 1.54-3.836 3.444-3.836 1.736 0 2.716 1.064 2.716 2.94v10.108h2.352v-9.212c0-2.128 1.54-3.836 3.444-3.836 1.708 0 2.716 1.092 2.716 2.94v10.108h2.352v-11.004c0-2.632-1.512-4.088-4.256-4.088-1.96 0-3.136.588-4.508 2.24-.868-1.568-2.044-2.24-3.948-2.24-1.96 0-3.276.728-4.508 2.492v-2.072zM4466.75 546.419c-.252.056-.364.056-.504.056-.812 0-1.26-.42-1.26-1.148v-8.624c0-2.604-1.904-4.004-5.516-4.004-2.156 0-3.864.616-4.872 1.708-.672.756-.952 1.596-1.008 3.052h2.352c.196-1.792 1.26-2.604 3.444-2.604 2.128 0 3.276.784 3.276 2.184v.616c-.028 1.008-.532 1.372-2.436 1.624-3.304.42-3.808.532-4.704.896-1.708.728-2.576 2.016-2.576 3.92 0 2.66 1.848 4.34 4.816 4.34 1.848 0 3.332-.644 4.984-2.156.168 1.512.896 2.156 2.408 2.156.504 0 .812-.056 1.596-.252zm-4.088-3.248c0 .784-.224 1.26-.924 1.904-.952.868-2.1 1.316-3.472 1.316-1.82 0-2.884-.868-2.884-2.352 0-1.54 1.008-2.324 3.528-2.688 2.492-.336 2.968-.448 3.752-.812zM4471.286 527.379h-2.324v20.412h2.324v-5.712l2.268-2.24 4.956 7.952h2.884l-5.992-9.604 5.096-5.068h-2.996l-6.216 6.216zM4495.114 541.239c0-2.24-.168-3.584-.588-4.676-.952-2.408-3.192-3.864-5.936-3.864-4.088 0-6.72 3.108-6.72 7.952 0 4.844 2.52 7.784 6.664 7.784 3.36 0 5.684-1.904 6.272-5.096h-2.352c-.644 1.932-1.96 2.94-3.836 2.94-1.484 0-2.744-.672-3.528-1.904-.56-.84-.756-1.68-.784-3.136zm-10.752-1.904c.196-2.716 1.848-4.48 4.2-4.48 2.38 0 4.032 1.848 4.032 4.48zM4508.302 533.119h-2.324v14.672h2.324zm0-5.74h-2.352v2.94h2.352zM4517.43 533.119h-2.408v-4.032h-2.324v4.032h-1.988v1.904h1.988v11.088c0 1.512 1.008 2.324 2.828 2.324.616 0 1.12-.056 1.904-.196v-1.96c-.336.084-.644.112-1.12.112-1.008 0-1.288-.28-1.288-1.316v-10.052h2.408zM4354.918 563.944h-2.352v20.412h2.352zM4364.494 569.264c-4.144 0-6.608 2.94-6.608 7.868 0 4.956 2.464 7.868 6.636 7.868 4.144 0 6.636-2.94 6.636-7.756 0-5.096-2.408-7.98-6.664-7.98zm.028 2.156c2.632 0 4.2 2.156 4.2 5.796 0 3.472-1.624 5.628-4.2 5.628-2.604 0-4.2-2.156-4.2-5.712 0-3.556 1.596-5.712 4.2-5.712zM4374.406 569.684v14.672h2.352v-8.092c0-2.996 1.568-4.956 3.976-4.956 1.848 0 3.024 1.12 3.024 2.884v10.164h2.324v-11.088c0-2.436-1.82-4.004-4.648-4.004-2.184 0-3.584.84-4.872 2.884v-2.464zM4399.326 569.684v2.128c-1.176-1.764-2.464-2.548-4.312-2.548-3.556 0-6.02 3.304-6.02 8.008 0 2.464.588 4.256 1.848 5.74 1.092 1.288 2.492 1.988 4.004 1.988 1.764 0 3.024-.784 4.256-2.632v.756c0 3.92-1.092 5.376-4.004 5.376-1.988 0-3.024-.784-3.248-2.464h-2.38c.224 2.716 2.38 4.424 5.572 4.424 2.156 0 3.948-.7 4.9-1.876 1.12-1.372 1.54-3.192 1.54-6.636v-12.264zm-4.088 1.736c2.464 0 3.864 2.072 3.864 5.796 0 3.556-1.428 5.628-3.864 5.628-2.408 0-3.808-2.1-3.808-5.712 0-3.584 1.4-5.712 3.808-5.712zM4417.806 577.804c0-2.24-.168-3.584-.588-4.676-.952-2.408-3.192-3.864-5.936-3.864-4.088 0-6.72 3.108-6.72 7.952 0 4.844 2.52 7.784 6.664 7.784 3.36 0 5.684-1.904 6.272-5.096h-2.352c-.644 1.932-1.96 2.94-3.836 2.94-1.484 0-2.744-.672-3.528-1.904-.56-.84-.756-1.68-.784-3.136zm-10.752-1.904c.196-2.716 1.848-4.48 4.2-4.48 2.38 0 4.032 1.848 4.032 4.48zM4420.942 569.684v14.672h2.352v-7.616c.028-3.528 1.484-5.096 4.704-5.012v-2.38c-.392-.056-.616-.084-.896-.084-1.512 0-2.66.896-4.004 3.08v-2.66z" style="font-family:&quot;Nimbus Sans&quot;;-inkscape-font-specification:&quot;Nimbus Sans&quot;"/></g></svg>